<svg width="22" height="19" viewBox="0 0 22 19" fill="none" xmlns="http://www.w3.org/2000/svg">
<path d="M7.14531 18.2993C14.9865 18.2993 19.2743 11.452 19.2743 5.51456C19.2743 5.32007 19.2705 5.12646 19.2622 4.93373C20.0946 4.29946 20.8181 3.50794 21.3887 2.60692C20.6249 2.96479 19.8029 3.20571 18.9406 3.31434C19.8208 2.75804 20.4965 1.87804 20.8152 0.828956C19.9916 1.34364 19.0794 1.71772 18.1082 1.91965C17.3303 1.04622 16.2228 0.5 14.9965 0.5C12.6424 0.5 10.7333 2.51231 10.7333 4.99287C10.7333 5.34548 10.7707 5.68845 10.8438 6.01741C7.30075 5.8295 4.15911 4.04147 2.05679 1.32262C1.69068 1.98667 1.47958 2.75804 1.47958 3.5811C1.47958 5.14004 2.23215 6.51633 3.37661 7.32143C2.67722 7.29865 2.02022 7.09628 1.44591 6.75944C1.44529 6.77829 1.44529 6.79667 1.44529 6.81682C1.44529 8.99295 2.91471 10.8099 4.86535 11.2216C4.50714 11.3246 4.13022 11.3798 3.74126 11.3798C3.46699 11.3798 3.19978 11.3513 2.94006 11.2987C3.48278 13.0841 5.05651 14.3833 6.92238 14.4197C5.46334 15.6251 3.62532 16.3431 1.62772 16.3431C1.28405 16.3431 0.944535 16.3225 0.61084 16.2809C2.49749 17.5555 4.73777 18.2993 7.14553 18.2993" fill="#DBDADA"/>
</svg>
