<svg width="24" height="196" viewBox="0 0 24 196" fill="none" xmlns="http://www.w3.org/2000/svg">
<path d="M23.33 189.865C23.33 187.285 22.13 185.695 20.54 184.885L23 184.885L23 180.565L7.31 180.565L7.31 184.885L16.52 184.885C18.83 184.885 19.97 186.325 19.97 188.155C19.97 190.015 18.95 190.885 16.82 190.885L7.31 190.885L7.31 195.205L17.42 195.205C21.53 195.205 23.33 192.925 23.33 189.865ZM23 176.716L23 172.366L13.94 172.366C11.63 172.366 10.49 170.956 10.49 169.096C10.49 167.176 11.51 166.336 13.64 166.336L23 166.336L23 161.986L13.01 161.986C8.81 161.986 6.95 164.176 6.95 167.266C6.95 169.876 8.24 171.586 9.8 172.366L7.31 172.366L7.31 176.716L23 176.716ZM23.33 152.559C23.33 148.419 21.56 145.959 18.17 145.959C14.81 145.959 13.82 148.119 13.25 152.049C12.92 154.329 12.53 155.079 11.54 155.079C10.58 155.079 9.92 154.269 9.92 152.859C9.92 151.359 10.52 150.639 11.81 150.399L11.81 146.409C8.21 146.799 6.95 149.409 6.95 152.889C6.95 156.099 8.57 159.099 11.84 159.099C14.9 159.099 16.1 157.479 16.73 153.309C17.06 151.059 17.51 150.129 18.59 150.129C19.67 150.129 20.3 150.909 20.3 152.589C20.3 154.479 19.49 155.169 18.08 155.349L18.08 159.399C21.47 159.249 23.33 156.789 23.33 152.559ZM23.33 136.091C23.33 131.531 20.75 128.831 17.03 128.591L17.03 132.521C19.04 132.731 20.06 134.141 20.06 135.881C20.06 138.311 18.44 139.721 15.29 139.721L15.05 139.721C12.05 139.721 10.37 138.221 10.37 135.971C10.37 134.201 11.21 133.091 13.04 132.791L13.04 128.681C8.54 129.071 6.95 132.431 6.95 136.061C6.95 140.531 10.04 144.161 15.11 144.161L15.35 144.161C20.48 144.161 23.33 140.681 23.33 136.091ZM23 125.857L23 121.507L13.94 121.507C11.63 121.507 10.49 120.097 10.49 118.237C10.49 116.317 11.51 115.477 13.64 115.477L23 115.477L23 111.127L13.01 111.127C8.81 111.127 6.95 113.317 6.95 116.407C6.95 119.017 8.24 120.727 9.8 121.507L0.199995 121.507L0.199995 125.857L23 125.857ZM20.03 100.08C20.03 102.54 18.23 103.92 15.23 103.92L14.99 103.92C11.99 103.92 10.25 102.48 10.25 100.08C10.25 97.6498 12.05 96.2398 15.05 96.2398L15.26 96.2398C18.23 96.2398 20.03 97.6498 20.03 100.08ZM23.33 100.11C23.33 95.3998 20.18 91.8298 15.23 91.8298L14.99 91.8298C10.1 91.8298 6.94999 95.3698 6.94999 100.08C6.95 104.79 10.16 108.36 15.08 108.36L15.32 108.36C20.21 108.36 23.33 104.79 23.33 100.11ZM20.03 81.5935C20.03 84.0535 18.23 85.4335 15.23 85.4335L14.99 85.4335C11.99 85.4335 10.25 83.9935 10.25 81.5935C10.25 79.1635 12.05 77.7535 15.05 77.7535L15.26 77.7535C18.23 77.7535 20.03 79.1635 20.03 81.5935ZM23.33 81.6235C23.33 76.9135 20.18 73.3435 15.23 73.3435L14.99 73.3435C10.1 73.3435 6.94999 76.8835 6.94999 81.5935C6.94999 86.3035 10.16 89.8735 15.08 89.8735L15.32 89.8735C20.21 89.8735 23.33 86.3035 23.33 81.6235ZM23 70.3072L23 65.9872L0.199993 65.9872L0.199993 70.3072L23 70.3072ZM23.33 54.789C23.33 50.499 21.44 47.799 18.05 47.289L18.05 51.399C19.37 51.669 20.24 52.659 20.24 54.669C20.24 57.039 18.74 58.449 16.13 58.569L16.13 47.259L14.93 47.259C9.31999 47.259 6.94999 50.859 6.94999 54.909C6.94999 59.469 10.16 62.979 15.11 62.979L15.35 62.979C20.36 62.979 23.33 59.529 23.33 54.789ZM13.46 58.509C11.24 58.179 9.94999 56.859 9.94999 54.909C9.94999 52.839 11.09 51.639 13.46 51.489L13.46 58.509ZM23 44.4115L23 40.0615L15.14 40.0615C12.14 40.0615 11.09 38.2015 11.12 34.9915L7.06999 34.9915C7.09999 37.5415 8.20999 39.0715 10.31 40.0615L7.30999 40.0615L7.30999 44.4115L23 44.4115ZM23 24.9758L23 20.0858L1.54999 20.0858L1.54999 24.9758L23 24.9758ZM23 11.1399L23 6.2499L5.32999 6.2499L5.32999 0.459902L1.54999 0.459902L1.54999 16.9299L5.32999 16.9299L5.32999 11.1399L23 11.1399Z" fill="black"/>
</svg>
