<svg width="12" height="22" viewBox="0 0 12 22" fill="none" xmlns="http://www.w3.org/2000/svg">
<path d="M9.22504 5.2833C10.7305 5.26423 11.181 5.28292 11.1852 5.28292C11.25 5.28827 11.3184 5.25964 11.3677 5.20965C11.4174 5.15966 11.4459 5.0902 11.448 5.01693L11.5399 1.29803C11.5399 1.0267 11.5399 1.0267 10.6143 1.01258L10.5237 1.01106C10.3128 1.00838 10.1 1.00228 9.8862 0.995792C8.90099 0.966789 7.88338 0.936644 6.91544 1.24384C5.91086 1.56288 5.09861 2.17729 4.56638 3.02106C3.99118 3.93313 3.67452 5.16501 3.67452 6.48962V9.11823H0.802035C0.665017 9.11823 0.553008 9.23692 0.549481 9.38536L0.460016 13.4004C0.458609 13.4737 0.484318 13.5447 0.531518 13.5973C0.578718 13.65 0.643528 13.6801 0.711157 13.6805L3.64211 13.6981L3.73722 21.7301C3.73898 21.8797 3.85169 22.0002 3.98977 22.0002H7.61498C7.75341 22.0002 7.86612 21.8793 7.86754 21.7293L7.94503 13.6805H10.6865C10.8126 13.6805 10.919 13.5798 10.9366 13.4447L11.4455 9.49756C11.4554 9.42009 11.4343 9.34147 11.3874 9.28194C11.3406 9.22241 11.2722 9.18768 11.2 9.18615L7.93129 9.12318L7.94784 6.30605C7.94783 6.20301 7.98447 5.29895 9.22504 5.2833Z" fill="#DBDADA"/>
</svg>
