<svg width="22" height="16" viewBox="0 0 22 16" fill="none" xmlns="http://www.w3.org/2000/svg">
<path fill-rule="evenodd" clip-rule="evenodd" d="M19.1293 0.955375C20.0193 1.20794 20.721 1.94759 20.9606 2.88568C21.4056 4.59951 21.3885 8.17148 21.3885 8.17148C21.3885 8.17148 21.3885 11.7254 20.9606 13.4392C20.721 14.3773 20.0193 15.117 19.1293 15.3696C17.5034 15.8206 10.9997 15.8206 10.9997 15.8206C10.9997 15.8206 4.51306 15.8206 2.87002 15.3515C1.98004 15.0989 1.27833 14.3593 1.03872 13.4212C0.61084 11.7254 0.61084 8.15344 0.61084 8.15344C0.61084 8.15344 0.61084 4.59951 1.03872 2.88568C1.27833 1.94759 1.99716 1.1899 2.87002 0.937335C4.49595 0.486328 10.9997 0.486328 10.9997 0.486328C10.9997 0.486328 17.5034 0.486328 19.1293 0.955375ZM14.3369 8.15335L8.92855 4.87002V11.4367L14.3369 8.15335Z" fill="#DBDADA"/>
</svg>
