<svg width="133" height="178" viewBox="0 0 133 178" fill="none" xmlns="http://www.w3.org/2000/svg">
<path d="M132.479 2.26988C132.57 1.16109 131.757 0.191953 130.664 0.105263C129.571 0.0185738 128.611 0.847152 128.521 1.95595L132.479 2.26988ZM0.505175 162.212C-0.216948 163.052 -0.132978 164.324 0.692701 165.052L14.148 176.92C14.9737 177.649 16.2284 177.557 16.9505 176.717C17.6726 175.876 17.5887 174.604 16.763 173.876L4.80273 163.327L15.2628 151.151C15.9849 150.31 15.9009 149.039 15.0752 148.31C14.2495 147.582 12.9948 147.673 12.2727 148.514L0.505175 162.212ZM130.5 2.11292C128.521 1.95595 128.521 1.95579 128.521 1.95621C128.52 1.95713 128.52 1.95812 128.52 1.95995C128.52 1.9636 128.519 1.96957 128.519 1.97783C128.517 1.99435 128.515 2.02005 128.512 2.05479C128.506 2.12427 128.497 2.22992 128.483 2.37058C128.457 2.65191 128.416 3.0733 128.357 3.6257C128.239 4.73053 128.05 6.35912 127.769 8.43896C127.206 12.5991 126.272 18.5618 124.79 25.7474C121.826 40.1267 116.677 59.3627 107.943 78.8387C90.4646 117.813 58.8279 157.389 1.8676 161.522L2.13281 165.539C61.1722 161.255 93.7853 120.122 111.557 80.4916C120.448 60.6654 125.674 41.1253 128.678 26.554C130.181 19.2643 131.13 13.2081 131.704 8.9682C131.991 6.84799 132.184 5.18126 132.306 4.04077C132.367 3.4705 132.41 3.03174 132.438 2.73358C132.452 2.5845 132.462 2.47055 132.469 2.3929C132.472 2.35406 132.475 2.32431 132.476 2.30375C132.477 2.29348 132.478 2.28551 132.478 2.27986C132.479 2.27703 132.479 2.27453 132.479 2.27312C132.479 2.27121 132.479 2.26988 130.5 2.11292Z" fill="black"/>
</svg>
