<svg width="253" height="161" viewBox="0 0 253 161" fill="none" xmlns="http://www.w3.org/2000/svg">
<path d="M252.031 148.555C252.57 149.519 252.225 150.737 251.261 151.276L235.55 160.06C234.586 160.599 233.367 160.254 232.828 159.29C232.289 158.326 232.634 157.107 233.598 156.568L247.564 148.761L239.756 134.795C239.217 133.831 239.562 132.612 240.526 132.073C241.49 131.534 242.708 131.879 243.247 132.843L252.031 148.555ZM2.28528 1.53047C4.04253 0.575446 4.04206 0.57459 4.04179 0.574085C4.04195 0.574383 4.04186 0.574227 4.04219 0.574822C4.04284 0.576012 4.04426 0.578597 4.04644 0.58257C4.05082 0.590516 4.05828 0.604014 4.06887 0.623002C4.09006 0.660978 4.12377 0.720916 4.17039 0.802328C4.26361 0.965152 4.40845 1.21388 4.60787 1.5446C5.00671 2.20605 5.62393 3.19553 6.48339 4.48186C8.2023 7.05448 10.8904 10.8147 14.7388 15.5132C22.4351 24.9095 34.775 38.0616 53.2898 52.9729C90.3147 82.7916 152.069 119.674 250.83 147.606L249.741 151.455C150.502 123.387 88.2559 86.2695 50.7808 56.0882C32.0456 40.9994 19.5105 27.6515 11.6443 18.0478C7.71144 13.2462 4.94639 9.38148 3.15748 6.70409C2.26304 5.36542 1.61267 4.32364 1.18241 3.61009C0.967285 3.25332 0.807186 2.97861 0.69912 2.78987C0.645087 2.6955 0.604063 2.62262 0.575673 2.57173C0.561477 2.54629 0.550441 2.52634 0.542516 2.51194C0.538553 2.50475 0.535368 2.49894 0.532956 2.49453C0.53175 2.49232 0.530517 2.49007 0.529915 2.48896C0.528876 2.48706 0.528029 2.4855 2.28528 1.53047Z" fill="black"/>
</svg>
