<svg width="259" height="170" viewBox="0 0 259 170" fill="none" xmlns="http://www.w3.org/2000/svg">
<path d="M12.4479 168.874C13.1445 169.731 14.4041 169.862 15.2613 169.165L29.2312 157.814C30.0884 157.118 30.2187 155.858 29.5222 155.001C28.8256 154.144 27.566 154.013 26.7088 154.71L14.2911 164.8L4.20141 152.382C3.50486 151.525 2.24526 151.394 1.38799 152.091C0.53074 152.787 0.40046 154.047 1.09701 154.904L12.4479 168.874ZM227.996 3.10943C242.98 22.9842 250.872 38.5412 253.409 50.762C255.918 62.8506 253.189 71.6177 246.857 78.2869C240.399 85.0883 230 89.9143 216.775 93.5093C203.589 97.0933 187.865 99.3854 171.001 101.303C137.414 105.121 99.2552 107.439 68.9049 115.721C38.5792 123.996 14.9988 138.517 12.0107 167.407L15.9895 167.819C18.7052 141.562 39.9768 127.761 69.9579 119.58C99.9143 111.406 137.517 109.135 171.453 105.277C188.351 103.356 204.329 101.037 217.824 97.3692C231.279 93.7121 242.539 88.6444 249.758 81.041C257.102 73.3054 260.067 63.1567 257.325 49.949C254.611 36.8734 246.307 20.7536 231.19 0.701416L227.996 3.10943Z" fill="black"/>
</svg>
