<svg width="482" height="374" viewBox="0 0 482 374" fill="none" xmlns="http://www.w3.org/2000/svg">
<path d="M23.1822 197.295C10.379 193.864 2.78105 180.704 6.21166 167.901L44.9697 23.2537C48.8874 8.63258 65.1969 1.24492 78.7714 7.94267L442.697 187.506C452.964 192.572 458.223 204.183 455.26 215.241L437.015 283.334C433.584 296.137 420.424 303.735 407.621 300.305L23.1822 197.295Z" fill="#89CBD7" style="mix-blend-mode:multiply"/>
<path d="M96.0818 313.258H82.9958L67.7615 294.85L63.1716 299.537V313.258H53.0642L53.0642 267.75H63.1716V287.037L81.3845 267.75H95.2517L74.2556 288.649L96.0818 313.258Z" fill="#242938"/>
<path d="M150.379 267.75L130.75 322.145C129.285 326.084 127.153 328.802 124.353 330.299C121.554 331.796 118.217 332.545 114.344 332.545C113.009 332.545 111.577 332.415 110.047 332.155C108.517 331.894 106.922 331.455 105.261 330.836L107.361 321.559C108.761 322.08 110.047 322.438 111.219 322.633C112.39 322.861 113.432 322.975 114.344 322.975C117.371 322.975 119.438 321.608 120.545 318.873L122.351 314.479L104.969 267.75H115.467L127.967 302.174L139.539 267.75H150.379Z" fill="#242938"/>
<path d="M162.244 267.75H172.351V271.852C174.272 270.127 176.209 268.841 178.162 267.994C180.148 267.115 182.41 266.676 184.949 266.676C187.879 266.676 190.597 267.278 193.103 268.483C195.61 269.655 197.758 271.298 199.549 273.414C201.339 275.498 202.755 278.02 203.797 280.983C204.838 283.912 205.359 287.102 205.359 290.553C205.359 294.036 204.838 297.242 203.797 300.172C202.755 303.102 201.339 305.625 199.549 307.74C197.758 309.824 195.61 311.451 193.103 312.623C190.597 313.795 187.879 314.381 184.949 314.381C182.41 314.381 180.148 313.925 178.162 313.014C176.209 312.102 174.272 310.784 172.351 309.059V331.471H162.244V267.75ZM172.351 301.051C173.556 302.386 175.086 303.427 176.941 304.176C178.829 304.892 180.636 305.25 182.361 305.25C186.17 305.25 189.262 303.899 191.638 301.198C194.047 298.496 195.252 294.948 195.252 290.553C195.252 286.158 194.047 282.594 191.638 279.86C189.262 277.125 186.17 275.758 182.361 275.758C180.636 275.758 178.829 276.116 176.941 276.832C175.086 277.516 173.556 278.525 172.351 279.86V301.051Z" fill="#242938"/>
<path d="M258.24 306.764C255.31 309.694 252.218 311.696 248.963 312.77C245.74 313.844 242.241 314.381 238.465 314.381C234.656 314.381 231.189 313.811 228.064 312.672C224.972 311.533 222.335 309.938 220.154 307.887C218.006 305.804 216.345 303.297 215.174 300.367C214.034 297.438 213.465 294.166 213.465 290.553C213.465 287.102 214.034 283.912 215.174 280.983C216.345 278.02 217.908 275.498 219.861 273.414C221.847 271.298 224.174 269.655 226.844 268.483C229.513 267.278 232.345 266.676 235.34 266.676C238.465 266.676 241.183 267.327 243.494 268.629C245.805 269.931 247.482 271.836 248.523 274.342V267.75H257.556V288.942H248.523C248.523 284.938 247.416 281.748 245.203 279.371C243.022 276.962 240.174 275.758 236.658 275.758C235.258 275.758 233.777 276.051 232.215 276.637C230.685 277.19 229.269 278.069 227.967 279.274C226.697 280.478 225.639 282.008 224.793 283.864C223.946 285.719 223.523 287.949 223.523 290.553C223.523 293.092 223.93 295.289 224.744 297.145C225.558 298.968 226.616 300.481 227.918 301.686C229.252 302.858 230.815 303.753 232.605 304.371C234.428 304.957 236.3 305.25 238.22 305.25C241.508 305.25 244.357 304.746 246.765 303.737C249.207 302.695 251.306 301.328 253.064 299.635L258.24 306.764Z" fill="#242938"/>
<path d="M299.939 299.244C299.939 303.867 298.474 307.366 295.545 309.742C292.615 312.086 288.513 313.258 283.24 313.258H268.054V267.75H278.113V285.377H283.338C288.546 285.377 292.615 286.533 295.545 288.844C298.474 291.123 299.939 294.589 299.939 299.244ZM289.832 299.342C289.832 297.682 289.246 296.461 288.074 295.68C286.902 294.866 285.323 294.459 283.338 294.459H278.113V304.176H283.338C285.323 304.176 286.902 303.769 288.074 302.955C289.246 302.142 289.832 300.937 289.832 299.342ZM305.408 267.75H315.515V313.258H305.408V267.75Z" fill="#242938"/>
<path d="M370.301 285.67C369.78 288.046 369.031 290.488 368.054 292.994C367.11 295.501 365.873 297.926 364.344 300.27L372.01 307.35L365.711 314.576L358.435 307.448C356.092 309.596 353.52 311.289 350.72 312.526C347.921 313.763 344.829 314.381 341.443 314.381C338.774 314.381 336.267 313.925 333.924 313.014C331.58 312.102 329.562 310.865 327.869 309.303C326.176 307.74 324.842 305.918 323.865 303.834C322.888 301.718 322.4 299.423 322.4 296.949C322.4 292.685 323.181 289.202 324.744 286.5C326.339 283.798 328.227 281.487 330.408 279.567C328.552 277.223 327.12 274.879 326.111 272.535C325.102 270.159 324.597 267.604 324.597 264.869C324.597 262.395 325.037 260.149 325.916 258.131C326.795 256.08 327.95 254.339 329.383 252.906C330.815 251.474 332.491 250.384 334.412 249.635C336.365 248.854 338.432 248.463 340.613 248.463C342.827 248.463 344.894 248.805 346.814 249.489C348.767 250.14 350.46 251.084 351.892 252.321C353.325 253.558 354.431 255.055 355.213 256.813C356.026 258.571 356.433 260.589 356.433 262.867C356.433 265.048 356.043 267.018 355.261 268.776C354.513 270.501 353.52 272.063 352.283 273.463C351.046 274.863 349.663 276.149 348.133 277.321C346.603 278.492 345.073 279.599 343.543 280.641L357.41 293.776C358.224 292.148 358.924 290.455 359.51 288.698C360.128 286.94 360.665 285.166 361.121 283.375L370.301 285.67ZM342.127 305.25C344.047 305.25 345.821 304.892 347.449 304.176C349.109 303.427 350.639 302.418 352.039 301.149L336.707 286.256H336.609C335.405 287.526 334.412 288.942 333.631 290.504C332.882 292.067 332.508 293.824 332.508 295.778C332.508 298.577 333.419 300.856 335.242 302.614C337.097 304.371 339.392 305.25 342.127 305.25ZM334.705 264.869C334.705 266.66 334.868 268.271 335.193 269.703C335.551 271.136 336.332 272.682 337.537 274.342C338.741 273.561 339.864 272.78 340.906 271.998C341.98 271.184 342.908 270.306 343.689 269.362C344.503 268.418 345.138 267.408 345.594 266.334C346.082 265.227 346.326 264.007 346.326 262.672C346.326 261.142 345.805 259.905 344.763 258.961C343.722 258.017 342.469 257.545 341.004 257.545C339.083 257.545 337.553 258.245 336.414 259.645C335.275 261.045 334.705 262.786 334.705 264.869Z" fill="#242938"/>
<path d="M96.0818 373.258H82.9958L67.7615 354.85L63.1716 359.537V373.258H53.0642V327.75H63.1716L63.1716 347.037L81.3845 327.75H95.2517L74.2556 348.649L96.0818 373.258Z" fill="#242938"/>
<path d="M148.377 373.258H138.269V354.459H117.761V373.258H107.654V327.75H117.761V345.377H138.269V327.75H148.377V373.258Z" fill="#242938"/>
<path d="M162.244 327.75H172.351V359.049L190.271 327.75H202.967V373.258H192.859V340.153L173.963 373.258H162.244V327.75Z" fill="#242938"/>
<path d="M216.834 327.75H259.949V336.246H226.941V373.258H216.834V327.75Z" fill="#242938"/>
<path d="M271.424 327.75H281.531V359.049L299.451 327.75H312.146V373.258H302.039V340.153L283.142 373.258H271.424V327.75Z" fill="#242938"/>
<path d="M68.1831 77.2581H66.0269V58.6956H57.2925V77.2581H55.1519V56.8674H68.1831V77.2581ZM86.4175 69.9924C86.4175 71.1278 86.2404 72.1591 85.8862 73.0862C85.5321 74.0133 85.0321 74.8153 84.3862 75.4924C83.7508 76.1591 82.98 76.6799 82.0737 77.0549C81.1675 77.4299 80.1519 77.6174 79.0269 77.6174C78.256 77.6174 77.506 77.4768 76.7769 77.1956C76.0581 76.9143 75.3862 76.4976 74.7612 75.9456V83.0862H72.6206V62.6956H74.7612V64.0393C76.0841 62.9143 77.506 62.3518 79.0269 62.3518C80.1519 62.3518 81.1675 62.5393 82.0737 62.9143C82.98 63.2789 83.7508 63.8049 84.3862 64.4924C85.0321 65.1695 85.5321 65.982 85.8862 66.9299C86.2404 67.8674 86.4175 68.8883 86.4175 69.9924ZM84.2769 69.9924C84.2769 69.1799 84.1623 68.4195 83.9331 67.7112C83.7144 66.9924 83.381 66.3726 82.9331 65.8518C82.4852 65.331 81.9331 64.9195 81.2769 64.6174C80.631 64.3153 79.881 64.1643 79.0269 64.1643C78.2144 64.1643 77.4539 64.3153 76.7456 64.6174C76.0477 64.9195 75.3862 65.4091 74.7612 66.0862V73.8987C75.3862 74.5758 76.0477 75.0601 76.7456 75.3518C77.4539 75.6435 78.2144 75.7893 79.0269 75.7893C79.881 75.7893 80.631 75.6383 81.2769 75.3362C81.9331 75.0341 82.4852 74.6226 82.9331 74.1018C83.381 73.581 83.7144 72.9716 83.9331 72.2737C84.1623 71.5653 84.2769 70.8049 84.2769 69.9924ZM104.261 70.0237C104.261 71.1591 104.079 72.1903 103.714 73.1174C103.36 74.0445 102.845 74.8414 102.167 75.5081C101.501 76.1643 100.699 76.6799 99.7612 77.0549C98.8237 77.4299 97.7769 77.6174 96.6206 77.6174C95.4852 77.6174 94.4487 77.4299 93.5112 77.0549C92.5737 76.6799 91.7664 76.1643 91.0894 75.5081C90.4227 74.8414 89.9071 74.0445 89.5425 73.1174C89.1883 72.1903 89.0112 71.1591 89.0112 70.0237C89.0112 68.9195 89.1883 67.8935 89.5425 66.9456C89.9071 65.9872 90.4227 65.1747 91.0894 64.5081C91.7664 63.831 92.5737 63.3049 93.5112 62.9299C94.4487 62.5445 95.4852 62.3518 96.6206 62.3518C97.7769 62.3518 98.8237 62.5445 99.7612 62.9299C100.699 63.3049 101.501 63.831 102.167 64.5081C102.845 65.1747 103.36 65.9872 103.714 66.9456C104.079 67.8935 104.261 68.9195 104.261 70.0237ZM102.121 70.0237C102.121 69.1903 101.996 68.4247 101.746 67.7268C101.506 67.0185 101.147 66.3987 100.667 65.8674C100.188 65.3362 99.605 64.9195 98.9175 64.6174C98.2404 64.3153 97.4748 64.1643 96.6206 64.1643C95.7664 64.1643 94.9956 64.3153 94.3081 64.6174C93.631 64.9195 93.0581 65.3362 92.5894 65.8674C92.1206 66.3987 91.7612 67.0185 91.5112 67.7268C91.2716 68.4247 91.1519 69.1903 91.1519 70.0237C91.1519 70.857 91.2716 71.6278 91.5112 72.3362C91.7612 73.0341 92.1206 73.6383 92.5894 74.1487C93.0581 74.6591 93.631 75.0601 94.3081 75.3518C94.9956 75.6435 95.7664 75.7893 96.6206 75.7893C97.4748 75.7893 98.2404 75.6435 98.9175 75.3518C99.605 75.0601 100.188 74.6591 100.667 74.1487C101.147 73.6383 101.506 73.0341 101.746 72.3362C101.996 71.6278 102.121 70.857 102.121 70.0237ZM107.558 62.6956H109.699V74.4456L117.574 62.6956H120.589V77.2581H118.433V64.9768L110.214 77.2581H107.558V62.6956ZM118.542 58.3518C117.324 59.5601 115.839 60.1643 114.089 60.1643C112.339 60.1643 110.855 59.5601 109.636 58.3518L110.855 57.1643C111.834 58.1435 112.912 58.6331 114.089 58.6331C115.266 58.6331 116.345 58.1435 117.324 57.1643L118.542 58.3518ZM124.261 75.4299C124.751 75.3258 125.22 75.0445 125.667 74.5862C126.115 74.1278 126.506 73.4924 126.839 72.6799C127.173 71.8674 127.438 70.8831 127.636 69.7268C127.845 68.5601 127.949 67.2216 127.949 65.7112V62.6956H135.902V75.4299H138.824V82.2424H136.902V77.2581H126.183V82.2424H124.261V75.4299ZM130.089 65.7112C130.089 66.9195 130.001 68.0549 129.824 69.1174C129.657 70.1695 129.433 71.1122 129.152 71.9456C128.881 72.7789 128.569 73.4976 128.214 74.1018C127.86 74.6956 127.511 75.1383 127.167 75.4299H133.761V64.5237H130.089V65.7112ZM142.496 62.6956H144.636V74.4456L152.511 62.6956H155.527V77.2581H153.371V64.9768L145.152 77.2581H142.496V62.6956ZM191.199 77.2581H188.152L182.199 70.7268L179.574 73.1331V77.2581H177.433V62.6956H179.574V70.5393L187.871 62.6956H190.933L183.636 69.3831L191.199 77.2581ZM209.152 62.6956L201.277 80.9456C200.871 81.9664 200.298 82.6331 199.558 82.9456C198.819 83.2685 198.001 83.4299 197.105 83.4299C196.105 83.4299 195.105 83.2476 194.105 82.8831L194.527 81.0393C195.016 81.2476 195.496 81.3935 195.964 81.4768C196.433 81.5706 196.813 81.6174 197.105 81.6174C197.813 81.6174 198.298 81.4456 198.558 81.1018C198.829 80.7581 199.063 80.3518 199.261 79.8831L200.152 77.6799L193.652 62.6956H196.183L201.433 75.4299L206.589 62.6956H209.152ZM226.167 69.9924C226.167 71.1278 225.99 72.1591 225.636 73.0862C225.282 74.0133 224.782 74.8153 224.136 75.4924C223.501 76.1591 222.73 76.6799 221.824 77.0549C220.917 77.4299 219.902 77.6174 218.777 77.6174C218.006 77.6174 217.256 77.4768 216.527 77.1956C215.808 76.9143 215.136 76.4976 214.511 75.9456V83.0862H212.371V62.6956H214.511V64.0393C215.834 62.9143 217.256 62.3518 218.777 62.3518C219.902 62.3518 220.917 62.5393 221.824 62.9143C222.73 63.2789 223.501 63.8049 224.136 64.4924C224.782 65.1695 225.282 65.982 225.636 66.9299C225.99 67.8674 226.167 68.8883 226.167 69.9924ZM224.027 69.9924C224.027 69.1799 223.912 68.4195 223.683 67.7112C223.464 66.9924 223.131 66.3726 222.683 65.8518C222.235 65.331 221.683 64.9195 221.027 64.6174C220.381 64.3153 219.631 64.1643 218.777 64.1643C217.964 64.1643 217.204 64.3153 216.496 64.6174C215.798 64.9195 215.136 65.4091 214.511 66.0862V73.8987C215.136 74.5758 215.798 75.0601 216.496 75.3518C217.204 75.6435 217.964 75.7893 218.777 75.7893C219.631 75.7893 220.381 75.6383 221.027 75.3362C221.683 75.0341 222.235 74.6226 222.683 74.1018C223.131 73.581 223.464 72.9716 223.683 72.2737C223.912 71.5653 224.027 70.8049 224.027 69.9924ZM243.089 74.5081C242.475 75.4664 241.631 76.2268 240.558 76.7893C239.496 77.3414 238.23 77.6174 236.761 77.6174C235.626 77.6174 234.584 77.4299 233.636 77.0549C232.688 76.6799 231.876 76.1591 231.199 75.4924C230.532 74.8153 230.011 74.0133 229.636 73.0862C229.261 72.1591 229.074 71.1278 229.074 69.9924C229.074 68.8883 229.246 67.8674 229.589 66.9299C229.933 65.982 230.423 65.1747 231.058 64.5081C231.694 63.831 232.47 63.3049 233.386 62.9299C234.313 62.5445 235.339 62.3518 236.464 62.3518C236.912 62.3518 237.371 62.4039 237.839 62.5081C238.308 62.6122 238.751 62.7737 239.167 62.9924C239.584 63.2008 239.959 63.456 240.292 63.7581C240.626 64.0497 240.876 64.3987 241.042 64.8049V62.6956H242.964V68.5237H241.042C241.042 67.8778 240.923 67.2893 240.683 66.7581C240.454 66.2268 240.136 65.7685 239.73 65.3831C239.324 64.9976 238.839 64.7008 238.277 64.4924C237.714 64.2737 237.11 64.1643 236.464 64.1643C235.589 64.1643 234.824 64.3153 234.167 64.6174C233.522 64.9195 232.98 65.331 232.542 65.8518C232.105 66.3726 231.772 66.9872 231.542 67.6956C231.324 68.3935 231.214 69.1591 231.214 69.9924C231.214 70.8258 231.339 71.5966 231.589 72.3049C231.85 73.0028 232.22 73.607 232.699 74.1174C233.188 74.6278 233.772 75.0341 234.449 75.3362C235.136 75.6383 235.907 75.7893 236.761 75.7893C237.845 75.7893 238.808 75.581 239.652 75.1643C240.496 74.7476 241.141 74.1851 241.589 73.4768L243.089 74.5081ZM258.964 62.6956H261.105V77.2581H258.964V62.6956ZM248.683 68.5237H251.183C252.787 68.5237 254.006 68.8726 254.839 69.5706C255.683 70.2581 256.105 71.357 256.105 72.8674C256.105 74.3883 255.683 75.5028 254.839 76.2112C254.006 76.9091 252.798 77.2581 251.214 77.2581H246.542V62.6956H248.683V68.5237ZM253.964 72.8674C253.964 72.0653 253.725 71.4456 253.246 71.0081C252.766 70.5706 252.089 70.3518 251.214 70.3518H248.683V75.4299H251.214C252.089 75.4299 252.766 75.206 253.246 74.7581C253.725 74.3101 253.964 73.6799 253.964 72.8674ZM55.1519 94.6956H57.2925V106.446L65.1675 94.6956H68.1831V109.258H66.0269V96.9768L57.8081 109.258H55.1519V94.6956ZM103.121 109.258H100.964V96.5237H92.23V109.258H90.0894V94.6956H103.121V109.258ZM121.355 101.992C121.355 103.128 121.178 104.159 120.824 105.086C120.47 106.013 119.97 106.815 119.324 107.492C118.688 108.159 117.917 108.68 117.011 109.055C116.105 109.43 115.089 109.617 113.964 109.617C113.194 109.617 112.444 109.477 111.714 109.196C110.996 108.914 110.324 108.498 109.699 107.946V115.086H107.558V94.6956H109.699V96.0393C111.022 94.9143 112.444 94.3518 113.964 94.3518C115.089 94.3518 116.105 94.5393 117.011 94.9143C117.917 95.2789 118.688 95.8049 119.324 96.4924C119.97 97.1695 120.47 97.982 120.824 98.9299C121.178 99.8674 121.355 100.888 121.355 101.992ZM119.214 101.992C119.214 101.18 119.1 100.42 118.871 99.7112C118.652 98.9924 118.319 98.3726 117.871 97.8518C117.423 97.331 116.871 96.9195 116.214 96.6174C115.569 96.3153 114.819 96.1643 113.964 96.1643C113.152 96.1643 112.391 96.3153 111.683 96.6174C110.985 96.9195 110.324 97.4091 109.699 98.0862V105.899C110.324 106.576 110.985 107.06 111.683 107.352C112.391 107.643 113.152 107.789 113.964 107.789C114.819 107.789 115.569 107.638 116.214 107.336C116.871 107.034 117.423 106.623 117.871 106.102C118.319 105.581 118.652 104.972 118.871 104.274C119.1 103.565 119.214 102.805 119.214 101.992ZM139.199 102.024C139.199 103.159 139.016 104.19 138.652 105.117C138.298 106.045 137.782 106.841 137.105 107.508C136.438 108.164 135.636 108.68 134.699 109.055C133.761 109.43 132.714 109.617 131.558 109.617C130.423 109.617 129.386 109.43 128.449 109.055C127.511 108.68 126.704 108.164 126.027 107.508C125.36 106.841 124.845 106.045 124.48 105.117C124.126 104.19 123.949 103.159 123.949 102.024C123.949 100.92 124.126 99.8935 124.48 98.9456C124.845 97.9872 125.36 97.1747 126.027 96.5081C126.704 95.831 127.511 95.3049 128.449 94.9299C129.386 94.5445 130.423 94.3518 131.558 94.3518C132.714 94.3518 133.761 94.5445 134.699 94.9299C135.636 95.3049 136.438 95.831 137.105 96.5081C137.782 97.1747 138.298 97.9872 138.652 98.9456C139.016 99.8935 139.199 100.92 139.199 102.024ZM137.058 102.024C137.058 101.19 136.933 100.425 136.683 99.7268C136.444 99.0185 136.084 98.3987 135.605 97.8674C135.126 97.3362 134.542 96.9195 133.855 96.6174C133.178 96.3153 132.412 96.1643 131.558 96.1643C130.704 96.1643 129.933 96.3153 129.246 96.6174C128.569 96.9195 127.996 97.3362 127.527 97.8674C127.058 98.3987 126.699 99.0185 126.449 99.7268C126.209 100.425 126.089 101.19 126.089 102.024C126.089 102.857 126.209 103.628 126.449 104.336C126.699 105.034 127.058 105.638 127.527 106.149C127.996 106.659 128.569 107.06 129.246 107.352C129.933 107.643 130.704 107.789 131.558 107.789C132.412 107.789 133.178 107.643 133.855 107.352C134.542 107.06 135.126 106.659 135.605 106.149C136.084 105.638 136.444 105.034 136.683 104.336C136.933 103.628 137.058 102.857 137.058 102.024ZM142.496 94.6956H144.636V99.3362C144.636 100.638 144.917 101.649 145.48 102.367C146.053 103.076 146.97 103.43 148.23 103.43C149.022 103.43 149.735 103.253 150.371 102.899C151.006 102.534 151.548 102.05 151.996 101.446C152.444 100.831 152.782 100.128 153.011 99.3362C153.251 98.5445 153.371 97.7216 153.371 96.8674V94.6956H155.527V109.258H153.371V101.258C152.35 103.925 150.516 105.258 147.871 105.258C144.287 105.258 142.496 103.284 142.496 99.3362V94.6956ZM159.964 94.6956H162.105V106.446L169.98 94.6956H172.996V109.258H170.839V96.9768L162.621 109.258H159.964V94.6956ZM191.23 101.571H189.402V96.5237H185.027V107.43H188.308V109.258H179.574V107.43H182.871V96.5237H178.496V101.571H176.667V94.6956H191.23V101.571ZM194.105 105.321C194.105 104.404 194.334 103.638 194.792 103.024C195.251 102.399 195.85 101.909 196.589 101.555C197.339 101.19 198.194 100.93 199.152 100.774C200.121 100.607 201.105 100.524 202.105 100.524C202.49 100.524 202.834 100.529 203.136 100.539C203.449 100.55 203.74 100.565 204.011 100.586C204.292 100.607 204.574 100.633 204.855 100.664C205.136 100.696 205.444 100.732 205.777 100.774V99.7268C205.777 99.0185 205.621 98.4351 205.308 97.9768C205.006 97.5185 204.631 97.1591 204.183 96.8987C203.735 96.6278 203.266 96.4403 202.777 96.3362C202.287 96.2216 201.871 96.1643 201.527 96.1643C200.444 96.1643 199.444 96.3101 198.527 96.6018C197.61 96.8935 196.756 97.2841 195.964 97.7737L194.996 96.1643C195.871 95.6331 196.85 95.2008 197.933 94.8674C199.027 94.5237 200.225 94.3518 201.527 94.3518C202.319 94.3518 203.095 94.456 203.855 94.6643C204.626 94.8622 205.313 95.1747 205.917 95.6018C206.532 96.0185 207.022 96.5706 207.386 97.2581C207.751 97.9456 207.933 98.7685 207.933 99.7268V109.258H205.777V106.821C205.402 107.289 204.975 107.701 204.496 108.055C204.027 108.409 203.532 108.701 203.011 108.93C202.49 109.149 201.97 109.315 201.449 109.43C200.928 109.555 200.433 109.617 199.964 109.617C198.037 109.617 196.579 109.248 195.589 108.508C194.6 107.768 194.105 106.706 194.105 105.321ZM199.964 107.789C200.86 107.789 201.662 107.659 202.371 107.399C203.089 107.128 203.699 106.795 204.199 106.399C204.699 106.003 205.084 105.581 205.355 105.133C205.636 104.685 205.777 104.279 205.777 103.914V102.539C205.079 102.435 204.407 102.378 203.761 102.367C203.126 102.357 202.574 102.352 202.105 102.352C201.334 102.352 200.589 102.404 199.871 102.508C199.162 102.612 198.542 102.784 198.011 103.024C197.48 103.253 197.053 103.555 196.73 103.93C196.407 104.305 196.246 104.768 196.246 105.321C196.246 105.935 196.542 106.503 197.136 107.024C197.74 107.534 198.683 107.789 199.964 107.789ZM212.371 94.6956H214.511V106.446L222.386 94.6956H225.402V109.258H223.246V96.9768L215.027 109.258H212.371V94.6956ZM223.355 90.3518C222.136 91.5601 220.652 92.1643 218.902 92.1643C217.152 92.1643 215.667 91.5601 214.449 90.3518L215.667 89.1643C216.647 90.1435 217.725 90.6331 218.902 90.6331C220.079 90.6331 221.157 90.1435 222.136 89.1643L223.355 90.3518ZM261.074 109.258H258.027L252.074 102.727L249.449 105.133V109.258H247.308V94.6956H249.449V102.539L257.746 94.6956H260.808L253.511 101.383L261.074 109.258ZM277.808 109.258H275.652V102.727H266.917V109.258H264.777V94.6956H266.917V100.899H275.652V94.6956H277.808V109.258ZM282.246 94.6956H284.386V106.446L292.261 94.6956H295.277V109.258H293.121V96.9768L284.902 109.258H282.246V94.6956ZM299.714 94.6956H313.511V96.5237H301.855V109.258H299.714V94.6956ZM317.183 94.6956H319.324V106.446L327.199 94.6956H330.214V109.258H328.058V96.9768L319.839 109.258H317.183V94.6956ZM68.1831 141.258H66.0269V128.524H57.2925V141.258H55.1519V126.696H68.1831V141.258ZM86.7925 134.024C86.7925 135.159 86.6102 136.19 86.2456 137.117C85.8914 138.045 85.3758 138.841 84.6987 139.508C84.0321 140.164 83.23 140.68 82.2925 141.055C81.355 141.43 80.3081 141.617 79.1519 141.617C78.0164 141.617 76.98 141.43 76.0425 141.055C75.105 140.68 74.2977 140.164 73.6206 139.508C72.9539 138.841 72.4383 138.045 72.0737 137.117C71.7196 136.19 71.5425 135.159 71.5425 134.024C71.5425 132.92 71.7196 131.893 72.0737 130.946C72.4383 129.987 72.9539 129.175 73.6206 128.508C74.2977 127.831 75.105 127.305 76.0425 126.93C76.98 126.545 78.0164 126.352 79.1519 126.352C80.3081 126.352 81.355 126.545 82.2925 126.93C83.23 127.305 84.0321 127.831 84.6987 128.508C85.3758 129.175 85.8914 129.987 86.2456 130.946C86.6102 131.893 86.7925 132.92 86.7925 134.024ZM84.6519 134.024C84.6519 133.19 84.5269 132.425 84.2769 131.727C84.0373 131.018 83.6779 130.399 83.1987 129.867C82.7196 129.336 82.1362 128.92 81.4487 128.617C80.7716 128.315 80.006 128.164 79.1519 128.164C78.2977 128.164 77.5269 128.315 76.8394 128.617C76.1623 128.92 75.5894 129.336 75.1206 129.867C74.6519 130.399 74.2925 131.018 74.0425 131.727C73.8029 132.425 73.6831 133.19 73.6831 134.024C73.6831 134.857 73.8029 135.628 74.0425 136.336C74.2925 137.034 74.6519 137.638 75.1206 138.149C75.5894 138.659 76.1623 139.06 76.8394 139.352C77.5269 139.643 78.2977 139.789 79.1519 139.789C80.006 139.789 80.7716 139.643 81.4487 139.352C82.1362 139.06 82.7196 138.659 83.1987 138.149C83.6779 137.638 84.0373 137.034 84.2769 136.336C84.5269 135.628 84.6519 134.857 84.6519 134.024ZM120.589 141.258H118.433V134.727H109.699V141.258H107.558V126.696H109.699V132.899H118.433V126.696H120.589V141.258ZM124.23 137.321C124.23 136.404 124.459 135.638 124.917 135.024C125.376 134.399 125.975 133.909 126.714 133.555C127.464 133.19 128.319 132.93 129.277 132.774C130.246 132.607 131.23 132.524 132.23 132.524C132.615 132.524 132.959 132.529 133.261 132.539C133.574 132.55 133.865 132.565 134.136 132.586C134.417 132.607 134.699 132.633 134.98 132.664C135.261 132.696 135.569 132.732 135.902 132.774V131.727C135.902 131.018 135.746 130.435 135.433 129.977C135.131 129.518 134.756 129.159 134.308 128.899C133.86 128.628 133.391 128.44 132.902 128.336C132.412 128.222 131.996 128.164 131.652 128.164C130.569 128.164 129.569 128.31 128.652 128.602C127.735 128.893 126.881 129.284 126.089 129.774L125.121 128.164C125.996 127.633 126.975 127.201 128.058 126.867C129.152 126.524 130.35 126.352 131.652 126.352C132.444 126.352 133.22 126.456 133.98 126.664C134.751 126.862 135.438 127.175 136.042 127.602C136.657 128.018 137.147 128.571 137.511 129.258C137.876 129.946 138.058 130.768 138.058 131.727V141.258H135.902V138.821C135.527 139.289 135.1 139.701 134.621 140.055C134.152 140.409 133.657 140.701 133.136 140.93C132.615 141.149 132.095 141.315 131.574 141.43C131.053 141.555 130.558 141.617 130.089 141.617C128.162 141.617 126.704 141.248 125.714 140.508C124.725 139.768 124.23 138.706 124.23 137.321ZM130.089 139.789C130.985 139.789 131.787 139.659 132.496 139.399C133.214 139.128 133.824 138.795 134.324 138.399C134.824 138.003 135.209 137.581 135.48 137.133C135.761 136.685 135.902 136.279 135.902 135.914V134.539C135.204 134.435 134.532 134.378 133.886 134.367C133.251 134.357 132.699 134.352 132.23 134.352C131.459 134.352 130.714 134.404 129.996 134.508C129.287 134.612 128.667 134.784 128.136 135.024C127.605 135.253 127.178 135.555 126.855 135.93C126.532 136.305 126.371 136.768 126.371 137.321C126.371 137.935 126.667 138.503 127.261 139.024C127.865 139.534 128.808 139.789 130.089 139.789ZM155.527 141.258H153.371V128.524H144.636V141.258H142.496V126.696H155.527V141.258ZM173.761 133.992C173.761 135.128 173.584 136.159 173.23 137.086C172.876 138.013 172.376 138.815 171.73 139.492C171.095 140.159 170.324 140.68 169.417 141.055C168.511 141.43 167.496 141.617 166.371 141.617C165.6 141.617 164.85 141.477 164.121 141.196C163.402 140.914 162.73 140.498 162.105 139.946V147.086H159.964V126.696H162.105V128.039C163.428 126.914 164.85 126.352 166.371 126.352C167.496 126.352 168.511 126.539 169.417 126.914C170.324 127.279 171.095 127.805 171.73 128.492C172.376 129.17 172.876 129.982 173.23 130.93C173.584 131.867 173.761 132.888 173.761 133.992ZM171.621 133.992C171.621 133.18 171.506 132.42 171.277 131.711C171.058 130.992 170.725 130.373 170.277 129.852C169.829 129.331 169.277 128.92 168.621 128.617C167.975 128.315 167.225 128.164 166.371 128.164C165.558 128.164 164.798 128.315 164.089 128.617C163.391 128.92 162.73 129.409 162.105 130.086V137.899C162.73 138.576 163.391 139.06 164.089 139.352C164.798 139.643 165.558 139.789 166.371 139.789C167.225 139.789 167.975 139.638 168.621 139.336C169.277 139.034 169.829 138.623 170.277 138.102C170.725 137.581 171.058 136.972 171.277 136.274C171.506 135.565 171.621 134.805 171.621 133.992ZM176.636 137.321C176.636 136.404 176.865 135.638 177.324 135.024C177.782 134.399 178.381 133.909 179.121 133.555C179.871 133.19 180.725 132.93 181.683 132.774C182.652 132.607 183.636 132.524 184.636 132.524C185.022 132.524 185.365 132.529 185.667 132.539C185.98 132.55 186.272 132.565 186.542 132.586C186.824 132.607 187.105 132.633 187.386 132.664C187.667 132.696 187.975 132.732 188.308 132.774V131.727C188.308 131.018 188.152 130.435 187.839 129.977C187.537 129.518 187.162 129.159 186.714 128.899C186.266 128.628 185.798 128.44 185.308 128.336C184.819 128.222 184.402 128.164 184.058 128.164C182.975 128.164 181.975 128.31 181.058 128.602C180.141 128.893 179.287 129.284 178.496 129.774L177.527 128.164C178.402 127.633 179.381 127.201 180.464 126.867C181.558 126.524 182.756 126.352 184.058 126.352C184.85 126.352 185.626 126.456 186.386 126.664C187.157 126.862 187.845 127.175 188.449 127.602C189.063 128.018 189.553 128.571 189.917 129.258C190.282 129.946 190.464 130.768 190.464 131.727V141.258H188.308V138.821C187.933 139.289 187.506 139.701 187.027 140.055C186.558 140.409 186.063 140.701 185.542 140.93C185.022 141.149 184.501 141.315 183.98 141.43C183.459 141.555 182.964 141.617 182.496 141.617C180.569 141.617 179.11 141.248 178.121 140.508C177.131 139.768 176.636 138.706 176.636 137.321ZM182.496 139.789C183.391 139.789 184.194 139.659 184.902 139.399C185.621 139.128 186.23 138.795 186.73 138.399C187.23 138.003 187.615 137.581 187.886 137.133C188.167 136.685 188.308 136.279 188.308 135.914V134.539C187.61 134.435 186.938 134.378 186.292 134.367C185.657 134.357 185.105 134.352 184.636 134.352C183.865 134.352 183.121 134.404 182.402 134.508C181.694 134.612 181.074 134.784 180.542 135.024C180.011 135.253 179.584 135.555 179.261 135.93C178.938 136.305 178.777 136.768 178.777 137.321C178.777 137.935 179.074 138.503 179.667 139.024C180.272 139.534 181.214 139.789 182.496 139.789ZM208.667 137.102C208.667 138.508 208.147 139.555 207.105 140.242C206.074 140.92 204.589 141.258 202.652 141.258H194.902V126.696H202.167C202.876 126.696 203.574 126.753 204.261 126.867C204.959 126.972 205.579 127.164 206.121 127.446C206.662 127.716 207.105 128.097 207.449 128.586C207.792 129.076 207.964 129.716 207.964 130.508C207.964 131.258 207.782 131.888 207.417 132.399C207.053 132.909 206.339 133.3 205.277 133.571C206.579 133.873 207.47 134.321 207.949 134.914C208.428 135.498 208.667 136.227 208.667 137.102ZM205.824 130.633C205.824 130.185 205.704 129.826 205.464 129.555C205.225 129.274 204.928 129.06 204.574 128.914C204.23 128.758 203.845 128.654 203.417 128.602C202.99 128.55 202.574 128.524 202.167 128.524H197.042V132.711H202.167C202.595 132.711 203.027 132.685 203.464 132.633C203.902 132.581 204.298 132.477 204.652 132.321C205.006 132.154 205.287 131.94 205.496 131.68C205.714 131.409 205.824 131.06 205.824 130.633ZM206.527 137.008C206.527 136.154 206.178 135.529 205.48 135.133C204.782 134.737 203.829 134.539 202.621 134.539H197.042V139.43H202.621C203.829 139.43 204.782 139.227 205.48 138.821C206.178 138.414 206.527 137.81 206.527 137.008ZM225.402 126.696V141.258H223.246V128.524H216.667V138.024C216.667 138.597 216.569 139.107 216.371 139.555C216.183 140.003 215.928 140.378 215.605 140.68C215.282 140.982 214.907 141.211 214.48 141.367C214.053 141.534 213.605 141.617 213.136 141.617C212.261 141.617 211.621 141.487 211.214 141.227L211.636 139.524C211.782 139.617 211.944 139.685 212.121 139.727C212.308 139.768 212.553 139.789 212.855 139.789C213.959 139.789 214.511 139.201 214.511 138.024V126.696H225.402ZM231.214 134.727C231.371 136.268 231.933 137.498 232.902 138.414C233.871 139.331 235.131 139.789 236.683 139.789C237.777 139.789 238.751 139.565 239.605 139.117C240.459 138.67 241.1 138.112 241.527 137.446L243.027 138.477C242.298 139.498 241.428 140.279 240.417 140.821C239.407 141.352 238.162 141.617 236.683 141.617C235.558 141.617 234.527 141.43 233.589 141.055C232.652 140.68 231.839 140.159 231.152 139.492C230.475 138.815 229.949 138.013 229.574 137.086C229.199 136.159 229.011 135.128 229.011 133.992C229.011 132.888 229.178 131.873 229.511 130.946C229.855 130.008 230.345 129.201 230.98 128.524C231.626 127.836 232.407 127.305 233.324 126.93C234.24 126.545 235.266 126.352 236.402 126.352C237.641 126.352 238.725 126.56 239.652 126.977C240.579 127.393 241.35 127.972 241.964 128.711C242.589 129.44 243.048 130.315 243.339 131.336C243.641 132.357 243.792 133.487 243.792 134.727H231.214ZM241.527 132.899C241.287 131.305 240.709 130.117 239.792 129.336C238.876 128.555 237.746 128.164 236.402 128.164C235.714 128.164 235.079 128.279 234.496 128.508C233.912 128.727 233.397 129.045 232.949 129.461C232.501 129.878 232.126 130.383 231.824 130.977C231.522 131.56 231.329 132.201 231.246 132.899H241.527ZM260.339 141.258H258.183V134.727H249.449V141.258H247.308V126.696H249.449V132.899H258.183V126.696H260.339V141.258ZM264.777 126.696H266.917V138.446L274.792 126.696H277.808V141.258H275.652V128.977L267.433 141.258H264.777V126.696ZM282.246 126.696H284.386V133.071H287.339C287.527 128.591 288.975 126.352 291.683 126.352C294.589 126.352 296.042 128.899 296.042 133.992C296.042 139.076 294.589 141.617 291.683 141.617C288.933 141.617 287.485 139.373 287.339 134.883H284.386V141.258H282.246V126.696ZM291.683 139.883C293.162 139.883 293.902 137.92 293.902 133.992C293.902 130.086 293.162 128.133 291.683 128.133C290.214 128.133 289.48 130.086 289.48 133.992C289.48 137.92 290.214 139.883 291.683 139.883ZM68.4019 171.18C67.4644 172.117 66.4748 172.758 65.4331 173.102C64.4019 173.446 63.2821 173.617 62.0737 173.617C60.855 173.617 59.7456 173.435 58.7456 173.071C57.756 172.706 56.9123 172.196 56.2144 171.539C55.5269 170.873 54.9956 170.071 54.6206 169.133C54.256 168.196 54.0737 167.149 54.0737 165.992C54.0737 164.888 54.256 163.867 54.6206 162.93C54.9956 161.982 55.4956 161.175 56.1206 160.508C56.756 159.831 57.5008 159.305 58.355 158.93C59.2091 158.545 60.1154 158.352 61.0737 158.352C62.0737 158.352 62.9435 158.56 63.6831 158.977C64.4227 159.393 64.9591 160.003 65.2925 160.805V158.696H68.1831V165.477H65.2925C65.2925 164.196 64.9383 163.175 64.23 162.414C63.5321 161.643 62.6206 161.258 61.4956 161.258C61.0477 161.258 60.5737 161.352 60.0737 161.539C59.5841 161.716 59.131 161.998 58.7144 162.383C58.3081 162.768 57.9696 163.258 57.6987 163.852C57.4279 164.446 57.2925 165.159 57.2925 165.992C57.2925 166.805 57.4227 167.508 57.6831 168.102C57.9435 168.685 58.2821 169.17 58.6987 169.555C59.1258 169.93 59.6258 170.216 60.1987 170.414C60.7821 170.602 61.381 170.696 61.9956 170.696C63.0477 170.696 63.9591 170.534 64.73 170.211C65.5112 169.878 66.1831 169.44 66.7456 168.899L68.4019 171.18ZM71.7925 169.071C71.7925 168.216 72.0216 167.472 72.48 166.836C72.9383 166.19 73.5373 165.654 74.2769 165.227C75.0269 164.8 75.881 164.482 76.8394 164.274C77.8081 164.055 78.7925 163.946 79.7925 163.946C80.3446 163.946 80.8185 163.956 81.2144 163.977C81.6102 163.998 82.0112 164.029 82.4175 164.071V163.492C82.4175 162.732 82.1206 162.164 81.5269 161.789C80.9435 161.414 80.1727 161.227 79.2144 161.227C78.3394 161.227 77.4487 161.352 76.5425 161.602C75.6362 161.841 74.7769 162.196 73.9644 162.664L72.6519 160.133C73.6102 159.581 74.6362 159.149 75.73 158.836C76.8341 158.513 77.9956 158.352 79.2144 158.352C80.006 158.352 80.7821 158.44 81.5425 158.617C82.3133 158.795 83.0008 159.086 83.605 159.492C84.2196 159.899 84.7091 160.43 85.0737 161.086C85.4383 161.732 85.6206 162.534 85.6206 163.492V173.258H82.4175V171.117C81.9071 171.909 81.1519 172.524 80.1519 172.961C79.1623 173.399 78.0946 173.617 76.9487 173.617C76.2404 173.617 75.5685 173.518 74.9331 173.321C74.3081 173.133 73.7664 172.847 73.3081 172.461C72.8498 172.076 72.48 171.602 72.1987 171.039C71.9279 170.466 71.7925 169.81 71.7925 169.071ZM77.7769 170.727C78.4123 170.727 79.006 170.649 79.5581 170.492C80.1206 170.326 80.6154 170.102 81.0425 169.821C81.4696 169.529 81.8029 169.18 82.0425 168.774C82.2925 168.367 82.4175 167.92 82.4175 167.43V166.883C81.9071 166.8 81.4279 166.753 80.98 166.742C80.5321 166.732 80.1362 166.727 79.7925 166.727C78.2091 166.727 77.0112 166.935 76.1987 167.352C75.3966 167.768 74.9956 168.284 74.9956 168.899C74.9956 170.117 75.9227 170.727 77.7769 170.727ZM103.121 173.258H99.8862V163.399L97.8394 168.649H95.3394L93.3237 163.399V173.258H90.0894V158.696H93.9331L96.5894 165.289L99.2456 158.696H103.121V173.258ZM121.73 165.992C121.73 167.128 121.548 168.159 121.183 169.086C120.829 170.013 120.313 170.815 119.636 171.492C118.97 172.159 118.167 172.68 117.23 173.055C116.292 173.43 115.246 173.617 114.089 173.617C112.954 173.617 111.917 173.43 110.98 173.055C110.042 172.68 109.235 172.159 108.558 171.492C107.891 170.815 107.376 170.013 107.011 169.086C106.657 168.159 106.48 167.128 106.48 165.992C106.48 164.888 106.657 163.867 107.011 162.93C107.376 161.982 107.891 161.17 108.558 160.492C109.235 159.805 110.042 159.279 110.98 158.914C111.917 158.539 112.954 158.352 114.089 158.352C115.246 158.352 116.292 158.539 117.23 158.914C118.167 159.279 118.97 159.805 119.636 160.492C120.313 161.17 120.829 161.982 121.183 162.93C121.548 163.867 121.73 164.888 121.73 165.992ZM118.511 165.992C118.511 165.336 118.407 164.716 118.199 164.133C118.001 163.539 117.709 163.034 117.324 162.617C116.938 162.201 116.47 161.873 115.917 161.633C115.376 161.383 114.766 161.258 114.089 161.258C113.402 161.258 112.787 161.383 112.246 161.633C111.704 161.873 111.246 162.201 110.871 162.617C110.496 163.034 110.204 163.539 109.996 164.133C109.798 164.716 109.699 165.336 109.699 165.992C109.699 166.68 109.798 167.305 109.996 167.867C110.204 168.43 110.496 168.925 110.871 169.352C111.246 169.779 111.704 170.112 112.246 170.352C112.787 170.581 113.402 170.696 114.089 170.696C114.766 170.696 115.376 170.581 115.917 170.352C116.47 170.112 116.938 169.779 117.324 169.352C117.709 168.925 118.001 168.43 118.199 167.867C118.407 167.305 118.511 166.68 118.511 165.992ZM138.277 171.18C137.339 172.117 136.35 172.758 135.308 173.102C134.277 173.446 133.157 173.617 131.949 173.617C130.73 173.617 129.621 173.435 128.621 173.071C127.631 172.706 126.787 172.196 126.089 171.539C125.402 170.873 124.871 170.071 124.496 169.133C124.131 168.196 123.949 167.149 123.949 165.992C123.949 164.888 124.131 163.867 124.496 162.93C124.871 161.982 125.371 161.175 125.996 160.508C126.631 159.831 127.376 159.305 128.23 158.93C129.084 158.545 129.99 158.352 130.949 158.352C131.949 158.352 132.819 158.56 133.558 158.977C134.298 159.393 134.834 160.003 135.167 160.805V158.696H138.058V165.477H135.167C135.167 164.196 134.813 163.175 134.105 162.414C133.407 161.643 132.496 161.258 131.371 161.258C130.923 161.258 130.449 161.352 129.949 161.539C129.459 161.716 129.006 161.998 128.589 162.383C128.183 162.768 127.845 163.258 127.574 163.852C127.303 164.446 127.167 165.159 127.167 165.992C127.167 166.805 127.298 167.508 127.558 168.102C127.819 168.685 128.157 169.17 128.574 169.555C129.001 169.93 129.501 170.216 130.074 170.414C130.657 170.602 131.256 170.696 131.871 170.696C132.923 170.696 133.834 170.534 134.605 170.211C135.386 169.878 136.058 169.44 136.621 168.899L138.277 171.18ZM156.261 166.117H153.371V161.617H150.621V170.352H153.855V173.258H144.167V170.352H147.386V161.617H144.605V166.117H141.73V158.696H156.261V166.117ZM174.136 165.992C174.136 167.128 173.954 168.159 173.589 169.086C173.235 170.013 172.72 170.815 172.042 171.492C171.376 172.159 170.574 172.68 169.636 173.055C168.699 173.43 167.652 173.617 166.496 173.617C165.36 173.617 164.324 173.43 163.386 173.055C162.449 172.68 161.641 172.159 160.964 171.492C160.298 170.815 159.782 170.013 159.417 169.086C159.063 168.159 158.886 167.128 158.886 165.992C158.886 164.888 159.063 163.867 159.417 162.93C159.782 161.982 160.298 161.17 160.964 160.492C161.641 159.805 162.449 159.279 163.386 158.914C164.324 158.539 165.36 158.352 166.496 158.352C167.652 158.352 168.699 158.539 169.636 158.914C170.574 159.279 171.376 159.805 172.042 160.492C172.72 161.17 173.235 161.982 173.589 162.93C173.954 163.867 174.136 164.888 174.136 165.992ZM170.917 165.992C170.917 165.336 170.813 164.716 170.605 164.133C170.407 163.539 170.115 163.034 169.73 162.617C169.345 162.201 168.876 161.873 168.324 161.633C167.782 161.383 167.173 161.258 166.496 161.258C165.808 161.258 165.194 161.383 164.652 161.633C164.11 161.873 163.652 162.201 163.277 162.617C162.902 163.034 162.61 163.539 162.402 164.133C162.204 164.716 162.105 165.336 162.105 165.992C162.105 166.68 162.204 167.305 162.402 167.867C162.61 168.43 162.902 168.925 163.277 169.352C163.652 169.779 164.11 170.112 164.652 170.352C165.194 170.581 165.808 170.696 166.496 170.696C167.173 170.696 167.782 170.581 168.324 170.352C168.876 170.112 169.345 169.779 169.73 169.352C170.115 168.925 170.407 168.43 170.605 167.867C170.813 167.305 170.917 166.68 170.917 165.992ZM181.886 167.633C180.24 167.612 178.959 167.232 178.042 166.492C177.126 165.753 176.667 164.649 176.667 163.18C176.667 161.711 177.136 160.597 178.074 159.836C179.011 159.076 180.324 158.696 182.011 158.696H190.464V173.258H187.23V167.633H185.917L180.792 173.258H176.48L181.886 167.633ZM179.902 163.149C179.902 163.68 180.089 164.076 180.464 164.336C180.839 164.586 181.345 164.711 181.98 164.711H187.23V161.617H181.98C181.345 161.617 180.839 161.748 180.464 162.008C180.089 162.258 179.902 162.638 179.902 163.149ZM208.667 166.117H205.777V161.617H203.027V170.352H206.261V173.258H196.574V170.352H199.792V161.617H197.011V166.117H194.136V158.696H208.667V166.117ZM214.574 167.211C214.73 168.211 215.204 169.045 215.996 169.711C216.798 170.367 217.871 170.696 219.214 170.696C220.266 170.696 221.178 170.534 221.949 170.211C222.73 169.878 223.402 169.44 223.964 168.899L225.621 171.18C224.683 172.117 223.688 172.758 222.636 173.102C221.595 173.446 220.454 173.617 219.214 173.617C218.089 173.617 217.042 173.43 216.074 173.055C215.105 172.68 214.266 172.159 213.558 171.492C212.85 170.815 212.292 170.013 211.886 169.086C211.49 168.159 211.292 167.128 211.292 165.992C211.292 164.888 211.475 163.873 211.839 162.946C212.214 162.008 212.735 161.201 213.402 160.524C214.079 159.836 214.886 159.305 215.824 158.93C216.761 158.545 217.798 158.352 218.933 158.352C220.11 158.352 221.178 158.555 222.136 158.961C223.095 159.357 223.912 159.935 224.589 160.696C225.277 161.456 225.813 162.388 226.199 163.492C226.584 164.586 226.777 165.826 226.777 167.211H214.574ZM223.121 164.367C222.954 163.43 222.47 162.68 221.667 162.117C220.865 161.545 219.954 161.258 218.933 161.258C217.912 161.258 216.996 161.545 216.183 162.117C215.371 162.68 214.881 163.43 214.714 164.367H223.121ZM242.871 158.696V173.258H239.636V161.617H234.136V168.946C234.136 169.789 234.011 170.513 233.761 171.117C233.511 171.711 233.178 172.19 232.761 172.555C232.355 172.92 231.871 173.185 231.308 173.352C230.756 173.529 230.162 173.617 229.527 173.617C228.652 173.617 228.011 173.487 227.605 173.227L228.011 170.446C228.167 170.529 228.339 170.591 228.527 170.633C228.704 170.675 228.938 170.696 229.23 170.696C230.345 170.696 230.902 170.112 230.902 168.946V158.696H242.871ZM261.105 168.774C261.105 170.253 260.636 171.373 259.699 172.133C258.761 172.883 257.449 173.258 255.761 173.258H247.308V158.696H250.542V164.336H255.792C257.459 164.336 258.761 164.706 259.699 165.446C260.636 166.175 261.105 167.284 261.105 168.774ZM257.871 168.805C257.871 168.274 257.683 167.883 257.308 167.633C256.933 167.373 256.428 167.242 255.792 167.242H250.542V170.352H255.792C256.428 170.352 256.933 170.222 257.308 169.961C257.683 169.701 257.871 169.315 257.871 168.805ZM277.808 173.258H274.574V167.242H268.011V173.258H264.777V158.696H268.011V164.336H274.574V158.696H277.808V173.258ZM296.417 165.992C296.417 167.128 296.235 168.159 295.871 169.086C295.516 170.013 295.001 170.815 294.324 171.492C293.657 172.159 292.855 172.68 291.917 173.055C290.98 173.43 289.933 173.617 288.777 173.617C287.641 173.617 286.605 173.43 285.667 173.055C284.73 172.68 283.923 172.159 283.246 171.492C282.579 170.815 282.063 170.013 281.699 169.086C281.345 168.159 281.167 167.128 281.167 165.992C281.167 164.888 281.345 163.867 281.699 162.93C282.063 161.982 282.579 161.17 283.246 160.492C283.923 159.805 284.73 159.279 285.667 158.914C286.605 158.539 287.641 158.352 288.777 158.352C289.933 158.352 290.98 158.539 291.917 158.914C292.855 159.279 293.657 159.805 294.324 160.492C295.001 161.17 295.516 161.982 295.871 162.93C296.235 163.867 296.417 164.888 296.417 165.992ZM293.199 165.992C293.199 165.336 293.095 164.716 292.886 164.133C292.688 163.539 292.397 163.034 292.011 162.617C291.626 162.201 291.157 161.873 290.605 161.633C290.063 161.383 289.454 161.258 288.777 161.258C288.089 161.258 287.475 161.383 286.933 161.633C286.391 161.873 285.933 162.201 285.558 162.617C285.183 163.034 284.891 163.539 284.683 164.133C284.485 164.716 284.386 165.336 284.386 165.992C284.386 166.68 284.485 167.305 284.683 167.867C284.891 168.43 285.183 168.925 285.558 169.352C285.933 169.779 286.391 170.112 286.933 170.352C287.475 170.581 288.089 170.696 288.777 170.696C289.454 170.696 290.063 170.581 290.605 170.352C291.157 170.112 291.626 169.779 292.011 169.352C292.397 168.925 292.688 168.43 292.886 167.867C293.095 167.305 293.199 166.68 293.199 165.992Z" fill="black"/>
</svg>
