<svg width="507" height="373" viewBox="0 0 507 373" fill="none" xmlns="http://www.w3.org/2000/svg">
<path d="M506.318 314.715C506.713 313.987 506.443 313.077 505.715 312.682C504.987 312.287 504.076 312.557 503.681 313.285L506.318 314.715ZM262.444 341L261.609 342.246L262.444 341ZM179 207L178.158 208.241L179 207ZM179 159L180.232 159.855L179 159ZM6.65824 55.6709C7.02872 56.4119 7.92973 56.7122 8.6707 56.3417L20.7455 50.3044C21.4864 49.9339 21.7868 49.0329 21.4163 48.2919C21.0458 47.551 20.1448 47.2506 19.4038 47.6211L8.6707 52.9876L3.30417 42.2545C2.93368 41.5135 2.03268 41.2132 1.29171 41.5837C0.550738 41.9542 0.2504 42.8552 0.620882 43.5961L6.65824 55.6709ZM11.1766 50.6714C11.4831 49.9017 11.1077 49.0293 10.3381 48.7228C9.56843 48.4163 8.69603 48.7917 8.38951 49.5613L11.1766 50.6714ZM11.8134 42.03C11.434 42.7664 11.7234 43.671 12.4598 44.0504C13.1962 44.4299 14.1008 44.1405 14.4802 43.404L11.8134 42.03ZM19.6295 34.8348C20.1029 34.155 19.9356 33.2201 19.2558 32.7466C18.5759 32.2732 17.641 32.4406 17.1676 33.1204L19.6295 34.8348ZM22.2893 26.5774C21.7426 27.1998 21.804 28.1476 22.4264 28.6943C23.0488 29.241 23.9966 29.1796 24.5433 28.5572L22.2893 26.5774ZM31.6648 21.5438C32.2956 21.0069 32.3717 20.0602 31.8348 19.4294C31.2979 18.7985 30.3512 18.7224 29.7203 19.2593L31.6648 21.5438ZM36.3727 14.2291C35.6844 14.6901 35.5 15.6218 35.961 16.3101C36.422 16.9985 37.3537 17.1828 38.042 16.7218L36.3727 14.2291ZM46.7179 11.7512C47.4632 11.3895 47.7742 10.4921 47.4125 9.74684C47.0508 9.00154 46.1534 8.69056 45.4081 9.05225L46.7179 11.7512ZM53.077 5.81608C52.2982 6.09852 51.8958 6.95882 52.1783 7.73762C52.4607 8.51641 53.321 8.91878 54.0998 8.63634L53.077 5.81608ZM63.7215 5.79761C64.5285 5.61055 65.0311 4.80469 64.844 3.99765C64.657 3.19062 63.8511 2.68803 63.0441 2.87508L63.7215 5.79761ZM71.1989 1.36502C70.3785 1.48024 69.8069 2.23869 69.9221 3.05907C70.0373 3.87945 70.7958 4.45109 71.6162 4.33586L71.1989 1.36502ZM81.6375 3.45199C82.4653 3.42055 83.1109 2.72398 83.0795 1.89615C83.0481 1.06832 82.3515 0.422711 81.5237 0.454148L81.6375 3.45199ZM89.7991 0.4542C88.9713 0.423412 88.2752 1.06956 88.2444 1.89742C88.2136 2.72527 88.8598 3.42134 89.6876 3.45213L89.7991 0.4542ZM99.7353 4.27435C100.557 4.37773 101.307 3.79522 101.411 2.97327C101.514 2.15132 100.932 1.40119 100.11 1.2978L99.7353 4.27435ZM108.275 2.60423C107.462 2.44637 106.674 2.97767 106.517 3.79091C106.359 4.60416 106.89 5.3914 107.703 5.54926L108.275 2.60423ZM117.527 7.87019C118.325 8.09258 119.153 7.62593 119.375 6.82791C119.597 6.02989 119.131 5.20269 118.333 4.98031L117.527 7.87019ZM126.223 7.44777C125.441 7.17602 124.586 7.59012 124.314 8.37271C124.042 9.15529 124.456 10.01 125.239 10.2818L126.223 7.44777ZM134.644 13.961C135.403 14.2924 136.287 13.9456 136.618 13.1863C136.95 12.4271 136.603 11.5429 135.844 11.2115L134.644 13.961ZM143.312 14.7513C142.575 14.3733 141.671 14.6645 141.293 15.4017C140.915 16.1389 141.206 17.0429 141.943 17.4208L143.312 14.7513ZM150.736 22.3769C151.441 22.8121 152.365 22.5935 152.8 21.8886C153.236 21.1837 153.017 20.2595 152.312 19.8243L150.736 22.3769ZM159.201 24.3947C158.526 23.9141 157.589 24.0716 157.109 24.7464C156.628 25.4212 156.786 26.3578 157.46 26.8383L159.201 24.3947ZM165.416 33.0314C166.047 33.5682 166.994 33.4918 167.531 32.8608C168.067 32.2299 167.991 31.2832 167.36 30.7464L165.416 33.0314ZM173.472 36.3393C172.882 35.7579 171.932 35.7651 171.351 36.3553C170.77 36.9455 170.777 37.8952 171.367 38.4766L173.472 36.3393ZM178.19 45.8748C178.721 46.5107 179.667 46.5957 180.303 46.0647C180.939 45.5338 181.024 44.5878 180.493 43.9519L178.19 45.8748ZM185.543 50.5329C185.066 49.855 184.131 49.6916 183.453 50.1678C182.775 50.6441 182.612 51.5796 183.088 52.2575L185.543 50.5329ZM188.399 60.7763C188.797 61.5029 189.709 61.7693 190.435 61.3713C191.162 60.9733 191.428 60.0617 191.03 59.3351L188.399 60.7763ZM194.674 66.7982C194.346 66.0373 193.464 65.686 192.703 66.0136C191.942 66.3411 191.591 67.2235 191.918 67.9844L194.674 66.7982ZM195.305 77.4086C195.536 78.2041 196.368 78.6619 197.163 78.431C197.959 78.2001 198.417 77.3679 198.186 76.5723L195.305 77.4086ZM200.094 84.6653C199.945 83.8503 199.164 83.3102 198.349 83.4588C197.534 83.6074 196.994 84.3886 197.143 85.2036L200.094 84.6653ZM198.304 95.1412C198.347 95.9685 199.053 96.604 199.88 96.5606C200.707 96.5172 201.343 95.8114 201.3 94.9841L198.304 95.1412ZM201.315 103.322C201.355 102.494 200.716 101.791 199.889 101.751C199.061 101.711 198.358 102.35 198.318 103.177L201.315 103.322ZM197.23 113.159C197.092 113.976 197.642 114.75 198.459 114.888C199.276 115.027 200.05 114.477 200.188 113.66L197.23 113.159ZM198.448 121.729C198.658 120.928 198.179 120.108 197.377 119.898C196.576 119.688 195.756 120.168 195.546 120.969L198.448 121.729ZM192.51 130.523C192.22 131.299 192.614 132.163 193.39 132.453C194.166 132.743 195.03 132.349 195.32 131.573L192.51 130.523ZM192.134 139.218C192.48 138.465 192.151 137.575 191.398 137.228C190.646 136.882 189.755 137.212 189.409 137.965L192.134 139.218ZM184.779 147.003C184.372 147.724 184.626 148.639 185.348 149.047C186.069 149.454 186.984 149.199 187.391 148.478L184.779 147.003ZM183.174 155.457C183.623 154.761 183.422 153.833 182.725 153.384C182.029 152.936 181.1 153.137 180.652 153.833L183.174 155.457ZM174.688 162.424C174.193 163.087 174.329 164.027 174.993 164.523C175.656 165.019 176.596 164.883 177.092 164.219L174.688 162.424ZM171.849 170.808C172.385 170.177 172.309 169.231 171.678 168.694C171.047 168.157 170.1 168.234 169.563 168.865L171.849 170.808ZM162.59 176.32C161.994 176.895 161.977 177.845 162.552 178.441C163.127 179.038 164.076 179.055 164.673 178.48L162.59 176.32ZM158.301 184.047C158.953 183.535 159.067 182.593 158.556 181.941C158.045 181.289 157.102 181.175 156.45 181.686L158.301 184.047ZM147.977 187.291C147.248 187.684 146.975 188.594 147.368 189.323C147.761 190.053 148.671 190.325 149.4 189.932L147.977 187.291ZM141.47 193.333C142.26 193.082 142.697 192.239 142.446 191.449C142.196 190.66 141.352 190.223 140.563 190.473L141.47 193.333ZM130.809 192.003C129.981 191.988 129.298 192.647 129.283 193.475C129.268 194.304 129.927 194.987 130.756 195.002L130.809 192.003ZM122.087 193.275C122.85 193.598 123.731 193.241 124.054 192.478C124.377 191.715 124.02 190.835 123.257 190.512L122.087 193.275ZM118.057 184.824C118.299 184.031 117.853 183.193 117.061 182.951C116.269 182.708 115.43 183.154 115.188 183.947L118.057 184.824ZM123.803 179.807C122.974 179.795 122.293 180.457 122.282 181.285C122.27 182.114 122.932 182.795 123.76 182.806L123.803 179.807ZM133.543 184.589C134.337 184.827 135.173 184.377 135.411 183.583C135.65 182.79 135.199 181.953 134.406 181.715L133.543 184.589ZM142.373 184.582C141.607 184.266 140.731 184.631 140.415 185.397C140.099 186.163 140.464 187.04 141.23 187.355L142.373 184.582ZM150.559 191.662C151.298 192.036 152.2 191.74 152.574 191.001C152.948 190.262 152.652 189.359 151.913 188.985L150.559 191.662ZM159.31 192.943C158.588 192.537 157.673 192.793 157.267 193.516C156.861 194.238 157.117 195.152 157.839 195.558L159.31 192.943ZM166.763 200.838C167.468 201.274 168.392 201.057 168.828 200.352C169.264 199.648 169.047 198.723 168.342 198.287L166.763 200.838ZM175.359 202.765C174.666 202.311 173.736 202.504 173.281 203.196C172.827 203.888 173.02 204.818 173.712 205.273L175.359 202.765ZM182.198 211.117C182.861 211.613 183.801 211.477 184.297 210.813C184.793 210.15 184.657 209.21 183.993 208.714L182.198 211.117ZM190.286 213.81C189.664 213.263 188.716 213.324 188.169 213.946C187.623 214.568 187.684 215.516 188.306 216.063L190.286 213.81ZM195.331 222.942C195.89 223.554 196.839 223.597 197.451 223.038C198.062 222.479 198.105 221.53 197.546 220.918L195.331 222.942ZM202.754 227.17C202.253 226.51 201.313 226.38 200.652 226.88C199.992 227.381 199.862 228.322 200.363 228.982L202.754 227.17ZM205.836 237.131C206.259 237.843 207.179 238.078 207.892 237.655C208.604 237.233 208.839 236.312 208.416 235.6L205.836 237.131ZM212.26 242.743C211.897 241.999 210.999 241.689 210.255 242.052C209.51 242.415 209.2 243.313 209.563 244.058L212.26 242.743ZM213.487 253.109C213.785 253.881 214.653 254.266 215.426 253.967C216.199 253.669 216.584 252.801 216.285 252.028L213.487 253.109ZM218.995 259.633C218.735 258.846 217.887 258.419 217.1 258.679C216.314 258.939 215.887 259.787 216.146 260.574L218.995 259.633ZM219.07 270.075C219.301 270.871 220.134 271.328 220.929 271.097C221.725 270.865 222.182 270.033 221.951 269.237L219.07 270.075ZM224.148 276.938C223.922 276.141 223.093 275.678 222.296 275.904C221.499 276.13 221.036 276.959 221.262 277.756L224.148 276.938ZM224.065 287.382C224.307 288.174 225.145 288.621 225.937 288.379C226.73 288.137 227.176 287.299 226.935 286.507L224.065 287.382ZM229.383 294.058C229.111 293.275 228.256 292.861 227.474 293.134C226.691 293.406 226.277 294.26 226.549 295.043L229.383 294.058ZM230.206 304.465C230.537 305.224 231.421 305.571 232.181 305.241C232.94 304.91 233.288 304.026 232.957 303.266L230.206 304.465ZM236.381 310.355C235.99 309.625 235.081 309.35 234.351 309.741C233.62 310.133 233.345 311.042 233.737 311.772L236.381 310.355ZM239.049 320.437C239.524 321.116 240.459 321.281 241.138 320.806C241.817 320.331 241.982 319.396 241.507 318.717L239.049 320.437ZM246.325 324.909C245.784 324.282 244.837 324.213 244.21 324.754C243.583 325.296 243.513 326.243 244.055 326.87L246.325 324.909ZM251.167 334.132C251.782 334.688 252.731 334.639 253.286 334.024C253.841 333.409 253.793 332.461 253.178 331.906L251.167 334.132ZM259.249 336.896C258.586 336.4 257.646 336.534 257.149 337.197C256.652 337.86 256.787 338.8 257.45 339.297L259.249 336.896ZM265.813 344.917C266.523 345.345 267.445 345.116 267.872 344.406C268.3 343.697 268.071 342.775 267.361 342.347L265.813 344.917ZM274.202 346.159C273.466 345.779 272.561 346.067 272.181 346.803C271.801 347.539 272.09 348.444 272.826 348.824L274.202 346.159ZM281.813 353.084C282.573 353.414 283.457 353.067 283.787 352.307C284.118 351.548 283.77 350.664 283.011 350.333L281.813 353.084ZM290.266 353.297C289.492 353 288.625 353.387 288.329 354.161C288.032 354.934 288.419 355.802 289.193 356.098L290.266 353.297ZM298.579 359.427C299.366 359.685 300.213 359.256 300.472 358.469C300.73 357.682 300.301 356.835 299.514 356.577L298.579 359.427ZM307.017 358.889C306.222 358.659 305.39 359.117 305.16 359.913C304.93 360.709 305.388 361.541 306.184 361.771L307.017 358.889ZM315.8 364.337C316.605 364.535 317.417 364.043 317.615 363.238C317.812 362.434 317.32 361.621 316.515 361.424L315.8 364.337ZM324.172 363.177C323.361 363.005 322.565 363.522 322.392 364.332C322.219 365.142 322.736 365.939 323.547 366.112L324.172 363.177ZM333.309 368.002C334.125 368.144 334.902 367.598 335.044 366.782C335.187 365.966 334.641 365.189 333.825 365.046L333.309 368.002ZM341.583 366.286C340.763 366.167 340.002 366.735 339.883 367.555C339.764 368.375 340.332 369.136 341.152 369.255L341.583 366.286ZM351.011 370.504C351.835 370.594 352.575 369.999 352.664 369.175C352.754 368.352 352.159 367.611 351.335 367.522L351.011 370.504ZM359.159 368.259C358.333 368.193 357.61 368.809 357.545 369.635C357.479 370.461 358.095 371.183 358.921 371.249L359.159 368.259ZM368.839 371.859C369.666 371.894 370.366 371.252 370.402 370.425C370.437 369.597 369.795 368.897 368.968 368.862L368.839 371.859ZM376.824 369.083C375.995 369.072 375.315 369.735 375.304 370.563C375.293 371.391 375.956 372.072 376.784 372.083L376.824 369.083ZM386.723 372.022C387.551 372 388.205 371.312 388.184 370.484C388.163 369.656 387.474 369.001 386.646 369.023L386.723 372.022ZM394.496 368.694C393.669 368.742 393.038 369.452 393.086 370.279C393.134 371.106 393.844 371.737 394.671 371.689L394.496 368.694ZM404.584 370.899C405.408 370.815 406.008 370.079 405.924 369.255C405.841 368.431 405.105 367.831 404.28 367.914L404.584 370.899ZM412.076 366.979C411.256 367.093 410.683 367.85 410.797 368.671C410.911 369.491 411.668 370.064 412.489 369.95L412.076 366.979ZM422.31 368.342C423.124 368.188 423.659 367.403 423.505 366.589C423.351 365.776 422.566 365.241 421.752 365.395L422.31 368.342ZM429.425 363.773C428.618 363.962 428.117 364.769 428.306 365.575C428.495 366.382 429.302 366.883 430.109 366.694L429.425 363.773ZM439.741 364.147C440.535 363.911 440.988 363.076 440.753 362.282C440.517 361.488 439.682 361.035 438.888 361.27L439.741 364.147ZM446.337 358.858C445.556 359.133 445.146 359.99 445.421 360.771C445.697 361.553 446.553 361.963 447.335 361.687L446.337 358.858ZM456.624 358.048C457.384 357.718 457.734 356.835 457.404 356.075C457.075 355.315 456.191 354.966 455.431 355.295L456.624 358.048ZM462.502 351.972C461.764 352.348 461.47 353.251 461.845 353.989C462.221 354.728 463.124 355.022 463.862 354.646L462.502 351.972ZM472.578 349.746C473.282 349.309 473.498 348.385 473.062 347.681C472.625 346.977 471.7 346.76 470.996 347.197L472.578 349.746ZM477.463 342.851C476.793 343.339 476.645 344.277 477.133 344.946C477.62 345.616 478.558 345.764 479.228 345.276L477.463 342.851ZM487.035 338.981C487.652 338.429 487.706 337.481 487.153 336.863C486.601 336.245 485.653 336.192 485.035 336.744L487.035 338.981ZM490.605 331.325C490.037 331.927 490.065 332.877 490.667 333.445C491.27 334.013 492.22 333.986 492.788 333.383L490.605 331.325ZM499.258 325.711C499.756 325.049 499.623 324.109 498.961 323.611C498.298 323.113 497.358 323.247 496.86 323.909L499.258 325.711ZM501.237 317.501C500.801 318.206 501.019 319.13 501.724 319.566C502.429 320.002 503.353 319.784 503.789 319.079L501.237 317.501ZM9.4229 55.4744C9.97096 53.8303 10.556 52.2295 11.1766 50.6714L8.38951 49.5613C7.74742 51.1735 7.14273 52.8281 6.57685 54.5257L9.4229 55.4744ZM14.4802 43.404C16.0494 40.3585 17.7707 37.504 19.6295 34.8348L17.1676 33.1204C15.2318 35.9002 13.4423 38.8686 11.8134 42.03L14.4802 43.404ZM24.5433 28.5572C26.7766 26.0146 29.1562 23.679 31.6648 21.5438L29.7203 19.2593C27.1022 21.4877 24.619 23.925 22.2893 26.5774L24.5433 28.5572ZM38.042 16.7218C40.818 14.8628 43.7161 13.208 46.7179 11.7512L45.4081 9.05225C42.2857 10.5676 39.2671 12.2908 36.3727 14.2291L38.042 16.7218ZM54.0998 8.63634C57.2256 7.50275 60.4388 6.55845 63.7215 5.79761L63.0441 2.87508C59.6491 3.66196 56.3202 4.63988 53.077 5.81608L54.0998 8.63634ZM71.6162 4.33586C74.9106 3.87316 78.2568 3.58037 81.6375 3.45199L81.5237 0.454148C78.0452 0.586241 74.5977 0.887661 71.1989 1.36502L71.6162 4.33586ZM89.6876 3.45213C93.0229 3.57617 96.3774 3.852 99.7353 4.27435L100.11 1.2978C96.6669 0.864774 93.2246 0.581595 89.7991 0.4542L89.6876 3.45213ZM107.703 5.54926C110.993 6.18775 114.272 6.96311 117.527 7.87019L118.333 4.98031C115.002 4.05203 111.644 3.25819 108.275 2.60423L107.703 5.54926ZM125.239 10.2818C128.415 11.3848 131.555 12.6129 134.644 13.961L135.844 11.2115C132.684 9.83247 129.473 8.57616 126.223 7.44777L125.239 10.2818ZM141.943 17.4208C144.943 18.9587 147.879 20.6125 150.736 22.3769L152.312 19.8243C149.386 18.0176 146.381 16.3249 143.312 14.7513L141.943 17.4208ZM157.46 26.8383C160.21 28.7962 162.867 30.8624 165.416 33.0314L167.36 30.7464C164.743 28.5202 162.018 26.4012 159.201 24.3947L157.46 26.8383ZM171.367 38.4766C173.77 40.8434 176.049 43.3114 178.19 45.8748L180.493 43.9519C178.288 41.3114 175.942 38.7721 173.472 36.3393L171.367 38.4766ZM183.088 52.2575C185.019 55.006 186.795 57.8476 188.399 60.7763L191.03 59.3351C189.371 56.3054 187.536 53.3694 185.543 50.5329L183.088 52.2575ZM191.918 67.9844C193.236 71.045 194.37 74.1882 195.305 77.4086L198.186 76.5723C197.216 73.2298 196.039 69.9698 194.674 66.7982L191.918 67.9844ZM197.143 85.2036C197.735 88.4479 198.126 91.7621 198.304 95.1412L201.3 94.9841C201.116 91.4761 200.709 88.0346 200.094 84.6653L197.143 85.2036ZM198.318 103.177C198.161 106.45 197.802 109.779 197.23 113.159L200.188 113.66C200.78 110.163 201.152 106.716 201.315 103.322L198.318 103.177ZM195.546 120.969C194.723 124.114 193.714 127.3 192.51 130.523L195.32 131.573C196.559 128.257 197.599 124.975 198.448 121.729L195.546 120.969ZM189.409 137.965C188.036 140.949 186.495 143.963 184.779 147.003L187.391 148.478C189.147 145.368 190.726 142.28 192.134 139.218L189.409 137.965ZM180.652 153.833C179.73 155.265 178.769 156.702 177.768 158.145L180.232 159.855C181.253 158.385 182.233 156.919 183.174 155.457L180.652 153.833ZM177.768 158.145C176.736 159.631 175.71 161.056 174.688 162.424L177.092 164.219C178.135 162.823 179.182 161.369 180.232 159.855L177.768 158.145ZM169.563 168.865C167.197 171.647 164.869 174.123 162.59 176.32L164.673 178.48C167.027 176.21 169.423 173.661 171.849 170.808L169.563 168.865ZM156.45 181.686C153.511 183.991 150.679 185.836 147.977 187.291L149.4 189.932C152.263 188.39 155.238 186.449 158.301 184.047L156.45 181.686ZM140.563 190.473C136.948 191.62 133.673 192.054 130.809 192.003L130.756 195.002C133.964 195.06 137.564 194.573 141.47 193.333L140.563 190.473ZM123.257 190.512C121.188 189.636 119.721 188.495 118.87 187.4C118.004 186.284 117.885 185.386 118.057 184.824L115.188 183.947C114.63 185.772 115.285 187.675 116.501 189.24C117.732 190.825 119.655 192.245 122.087 193.275L123.257 190.512ZM123.76 182.806C126.201 182.841 129.431 183.354 133.543 184.589L134.406 181.715C130.117 180.428 126.602 179.846 123.803 179.807L123.76 182.806ZM141.23 187.355C144.061 188.522 147.166 189.945 150.559 191.662L151.913 188.985C148.459 187.237 145.283 185.781 142.373 184.582L141.23 187.355ZM157.839 195.558C160.65 197.139 163.623 198.894 166.763 200.838L168.342 198.287C165.169 196.322 162.159 194.546 159.31 192.943L157.839 195.558ZM173.712 205.273C175.162 206.226 176.644 207.215 178.158 208.241L179.842 205.759C178.316 204.724 176.822 203.726 175.359 202.765L173.712 205.273ZM178.158 208.241C179.556 209.19 180.901 210.148 182.198 211.117L183.993 208.714C182.66 207.717 181.277 206.732 179.842 205.759L178.158 208.241ZM188.306 216.063C190.865 218.312 193.197 220.607 195.331 222.942L197.546 220.918C195.338 218.502 192.927 216.13 190.286 213.81L188.306 216.063ZM200.363 228.982C202.389 231.656 204.201 234.375 205.836 237.131L208.416 235.6C206.726 232.752 204.852 229.938 202.754 227.17L200.363 228.982ZM209.563 244.058C211.017 247.042 212.31 250.062 213.487 253.109L216.285 252.028C215.083 248.914 213.757 245.815 212.26 242.743L209.563 244.058ZM216.146 260.574C217.187 263.726 218.145 266.896 219.07 270.075L221.951 269.237C221.02 266.039 220.052 262.832 218.995 259.633L216.146 260.574ZM221.262 277.756C222.172 280.969 223.09 284.184 224.065 287.382L226.935 286.507C225.969 283.34 225.058 280.15 224.148 276.938L221.262 277.756ZM226.549 295.043C227.651 298.212 228.853 301.357 230.206 304.465L232.957 303.266C231.639 300.242 230.465 297.169 229.383 294.058L226.549 295.043ZM233.737 311.772C235.311 314.711 237.066 317.603 239.049 320.437L241.507 318.717C239.597 315.988 237.904 313.198 236.381 310.355L233.737 311.772ZM244.055 326.87C246.199 329.353 248.558 331.776 251.167 334.132L253.178 331.906C250.661 329.633 248.388 327.298 246.325 324.909L244.055 326.87ZM257.45 339.297C258.781 340.295 260.166 341.278 261.609 342.246L263.28 339.755C261.881 338.815 260.538 337.863 259.249 336.896L257.45 339.297ZM261.609 342.246C262.957 343.151 264.36 344.042 265.813 344.917L267.361 342.347C265.948 341.496 264.586 340.631 263.28 339.755L261.609 342.246ZM272.826 348.824C275.679 350.298 278.68 351.719 281.813 353.084L283.011 350.333C279.934 348.993 276.993 347.6 274.202 346.159L272.826 348.824ZM289.193 356.098C292.225 357.26 295.358 358.371 298.579 359.427L299.514 356.577C296.337 355.535 293.251 354.44 290.266 353.297L289.193 356.098ZM306.184 361.771C309.323 362.679 312.532 363.535 315.8 364.337L316.515 361.424C313.286 360.631 310.116 359.785 307.017 358.889L306.184 361.771ZM323.547 366.112C326.756 366.795 330.013 367.426 333.309 368.002L333.825 365.046C330.565 364.477 327.344 363.853 324.172 363.177L323.547 366.112ZM341.152 369.255C344.411 369.727 347.7 370.145 351.011 370.504L351.335 367.522C348.059 367.166 344.806 366.753 341.583 366.286L341.152 369.255ZM358.921 371.249C362.213 371.512 365.522 371.716 368.839 371.859L368.968 368.862C365.688 368.72 362.416 368.518 359.159 368.259L358.921 371.249ZM376.784 372.083C380.098 372.126 383.413 372.107 386.723 372.022L386.646 369.023C383.376 369.107 380.099 369.126 376.824 369.083L376.784 372.083ZM394.671 371.689C397.989 371.495 401.296 371.233 404.584 370.899L404.28 367.914C401.037 368.244 397.773 368.503 394.496 368.694L394.671 371.689ZM412.489 369.95C415.791 369.492 419.068 368.957 422.31 368.342L421.752 365.395C418.559 366 415.332 366.527 412.076 366.979L412.489 369.95ZM430.109 366.694C433.364 365.932 436.578 365.084 439.741 364.147L438.888 361.27C435.784 362.19 432.626 363.023 429.425 363.773L430.109 366.694ZM447.335 361.687C450.496 360.572 453.595 359.361 456.624 358.048L455.431 355.295C452.469 356.579 449.435 357.765 446.337 358.858L447.335 361.687ZM463.862 354.646C466.854 353.124 469.763 351.492 472.578 349.746L470.996 347.197C468.256 348.896 465.422 350.487 462.502 351.972L463.862 354.646ZM479.228 345.276C481.941 343.302 484.547 341.205 487.035 338.981L485.035 336.744C482.625 338.899 480.097 340.933 477.463 342.851L479.228 345.276ZM492.788 333.383C495.076 330.956 497.237 328.4 499.258 325.711L496.86 323.909C494.907 326.507 492.819 328.977 490.605 331.325L492.788 333.383ZM503.789 319.079C504.668 317.657 505.512 316.203 506.318 314.715L503.681 313.285C502.902 314.722 502.087 316.127 501.237 317.501L503.789 319.079Z" fill="#E4E4E4"/>
</svg>
