<svg width="88" height="286" viewBox="0 0 88 286" fill="none" xmlns="http://www.w3.org/2000/svg">
<path d="M3.78187 2.98773C3.29857 2.3149 3.45222 1.37766 4.12506 0.894356C4.7979 0.411053 5.73513 0.564701 6.21844 1.23754L3.78187 2.98773ZM70.9998 204.53L70.7288 203.055L70.9998 204.53ZM31.9999 168.113L31.7103 166.641L31.9999 168.113ZM1.90843 281.479C1.11923 281.227 0.683677 280.383 0.935582 279.594L5.04071 266.734C5.29261 265.944 6.1366 265.509 6.9258 265.761C7.715 266.013 8.15056 266.857 7.89864 267.646L4.24964 279.078L15.6814 282.726C16.4706 282.978 16.9061 283.822 16.6542 284.612C16.4023 285.401 15.5583 285.836 14.7691 285.584L1.90843 281.479ZM5.82713 276.396C6.53628 275.968 7.45832 276.196 7.88657 276.905C8.31482 277.614 8.08709 278.536 7.37794 278.964L5.82713 276.396ZM13.9304 274.525C13.2694 275.024 12.3287 274.893 11.8294 274.232C11.33 273.571 11.4611 272.63 12.1221 272.131L13.9304 274.525ZM19.343 265.939C19.9383 265.363 20.888 265.379 21.4641 265.974C22.0402 266.569 22.0246 267.519 21.4293 268.095L19.343 265.939ZM26.8473 262.347C26.3067 262.975 25.3596 263.046 24.7318 262.505C24.1041 261.965 24.0335 261.017 24.5742 260.39L26.8473 262.347ZM30.4075 252.839C30.8794 252.158 31.8139 251.989 32.4948 252.461C33.1757 252.933 33.345 253.867 32.8731 254.548L30.4075 252.839ZM37.1037 247.9C36.6862 248.616 35.7677 248.857 35.0522 248.44C34.3366 248.022 34.095 247.104 34.5125 246.388L37.1037 247.9ZM38.945 237.913C39.2952 237.162 40.1877 236.837 40.9385 237.187C41.6893 237.537 42.014 238.43 41.6638 239.181L38.945 237.913ZM44.7342 231.941C44.4377 232.715 43.5703 233.101 42.7967 232.805C42.0232 232.508 41.6365 231.641 41.933 230.867L44.7342 231.941ZM44.968 221.786C45.196 220.99 46.0266 220.529 46.823 220.757C47.6194 220.985 48.0801 221.816 47.8521 222.612L44.968 221.786ZM49.7488 214.971C49.5784 215.782 48.7831 216.301 47.9723 216.13C47.1616 215.96 46.6426 215.165 46.813 214.354L49.7488 214.971ZM48.3304 204.917C48.421 204.094 49.162 203.5 49.9855 203.59C50.809 203.681 51.403 204.422 51.3124 205.245L48.3304 204.917ZM51.8277 197.376C51.8124 198.205 51.1285 198.864 50.3002 198.848C49.4719 198.833 48.8129 198.149 48.8282 197.321L51.8277 197.376ZM48.3379 187.843C48.2294 187.022 48.8073 186.268 49.6286 186.16C50.4499 186.051 51.2036 186.629 51.3121 187.45L48.3379 187.843ZM49.5945 179.613C49.8503 180.401 49.4189 181.247 48.6309 181.503C47.8429 181.758 46.9968 181.327 46.7411 180.539L49.5945 179.613ZM42.4299 172.696C41.8609 172.094 41.8878 171.144 42.49 170.575C43.0922 170.007 44.0415 170.033 44.6105 170.636L42.4299 172.696ZM37.0897 166.511C37.9068 166.648 38.4585 167.421 38.322 168.238C38.1854 169.055 37.4124 169.607 36.5953 169.47L37.0897 166.511ZM28.0425 170.771C27.268 171.065 26.4018 170.676 26.1078 169.901C25.8139 169.127 26.2034 168.26 26.9779 167.966L28.0425 170.771ZM20.2182 172.35C20.7727 171.735 21.7211 171.685 22.3366 172.24C22.9522 172.794 23.0016 173.742 22.4472 174.358L20.2182 172.35ZM20.2551 181.751C20.3669 182.572 19.792 183.328 18.9712 183.44C18.1503 183.551 17.3943 182.977 17.2825 182.156L20.2551 181.751ZM20.2055 189.623C19.7568 188.926 19.9577 187.998 20.6541 187.549C21.3505 187.101 22.2788 187.302 22.7274 187.998L20.2055 189.623ZM28.6768 194.442C29.3221 194.962 29.424 195.906 28.9044 196.551C28.3849 197.196 27.4406 197.298 26.7954 196.779L28.6768 194.442ZM33.2332 201.014C32.503 200.622 32.2282 199.713 32.6194 198.983C33.0107 198.253 33.9198 197.978 34.65 198.369L33.2332 201.014ZM42.9473 201.801C43.7394 202.043 44.1846 202.882 43.9417 203.674C43.6989 204.466 42.8599 204.912 42.0679 204.669L42.9473 201.801ZM49.4956 206.388C48.6776 206.256 48.1211 205.487 48.2525 204.669C48.3839 203.851 49.1535 203.294 49.9715 203.426L49.4956 206.388ZM58.9947 204.14C59.8232 204.141 60.4938 204.814 60.4927 205.642C60.4916 206.471 59.8191 207.141 58.9907 207.14L58.9947 204.14ZM66.5708 206.707C65.7478 206.801 65.0041 206.21 64.9099 205.387C64.8156 204.564 65.4063 203.821 66.2294 203.726L66.5708 206.707ZM75.0615 201.704C75.8123 201.354 76.7047 201.679 77.0548 202.429C77.4049 203.18 77.0801 204.073 76.3292 204.423L75.0615 201.704ZM82.9122 199.095C82.4132 199.757 81.4726 199.888 80.8114 199.389C80.1501 198.89 80.0185 197.949 80.5175 197.288L82.9122 199.095ZM84.0884 188.92C84.2618 188.11 85.0591 187.594 85.8692 187.767C86.6792 187.941 87.1953 188.738 87.0219 189.548L84.0884 188.92ZM87.9075 181.519C87.8873 182.347 87.1995 183.002 86.3713 182.982C85.5431 182.962 84.8882 182.274 84.9084 181.446L87.9075 181.519ZM84.4205 171.866C84.3263 171.043 84.9171 170.299 85.7402 170.205C86.5633 170.111 87.3068 170.702 87.401 171.525L84.4205 171.866ZM86.1943 163.653C86.3478 164.468 85.8123 165.252 84.9982 165.405C84.1842 165.559 83.3998 165.023 83.2463 164.209L86.1943 163.653ZM81.1184 154.725C80.9124 153.922 81.3958 153.105 82.1982 152.899C83.0006 152.693 83.8181 153.176 84.0241 153.978L81.1184 154.725ZM81.904 146.371C82.1416 147.165 81.6907 148.001 80.8971 148.238C80.1034 148.476 79.2675 148.025 79.03 147.231L81.904 146.371ZM76.0456 137.955C75.7769 137.171 76.1945 136.318 76.9781 136.049C77.7618 135.781 78.6148 136.198 78.8835 136.982L76.0456 137.955ZM76.2264 129.556C76.5153 130.332 76.1202 131.196 75.3438 131.485C74.5674 131.774 73.7038 131.378 73.4148 130.602L76.2264 129.556ZM69.8739 121.488C69.5635 120.72 69.9344 119.846 70.7025 119.536C71.4706 119.225 72.3449 119.596 72.6553 120.364L69.8739 121.488ZM69.6335 113.095C69.9587 113.857 69.6047 114.738 68.8428 115.063C68.0809 115.388 67.1996 115.034 66.8744 114.272L69.6335 113.095ZM62.9348 105.317C62.5933 104.562 62.9282 103.673 63.683 103.332C64.4377 102.99 65.3264 103.325 65.668 104.08L62.9348 105.317ZM62.3685 96.9398C62.7218 97.6891 62.4007 98.5829 61.6514 98.9362C60.9021 99.2895 60.0082 98.9685 59.6549 98.2191L62.3685 96.9398ZM55.4016 89.4065C55.0349 88.6636 55.3398 87.7641 56.0827 87.3975C56.8256 87.0308 57.725 87.3357 58.0917 88.0786L55.4016 89.4065ZM54.5629 81.0498C54.9395 81.7876 54.6466 82.6911 53.9088 83.0677C53.1709 83.4443 52.2674 83.1514 51.8908 82.4136L54.5629 81.0498ZM47.372 73.7323C46.9837 73.0005 47.2621 72.0925 47.9939 71.7043C48.7257 71.316 49.6338 71.5945 50.022 72.3263L47.372 73.7323ZM46.2927 65.4003C46.6898 66.1273 46.4225 67.0387 45.6954 67.4358C44.9684 67.833 44.0571 67.5656 43.6599 66.8386L46.2927 65.4003ZM38.9032 58.284C38.4953 57.5629 38.7491 56.6477 39.4701 56.2398C40.1912 55.8319 41.1064 56.0857 41.5143 56.8067L38.9032 58.284ZM37.6005 49.9827C38.0169 50.6989 37.7738 51.617 37.0576 52.0333C36.3414 52.4497 35.4233 52.2066 35.0069 51.4904L37.6005 49.9827ZM30.0257 43.0639C29.5989 42.3539 29.8285 41.4323 30.5385 41.0055C31.2486 40.5787 32.1701 40.8084 32.5969 41.5184L30.0257 43.0639ZM28.5046 34.8005C28.9398 35.5054 28.7212 36.4296 28.0162 36.8648C27.3113 37.3 26.3871 37.0813 25.9519 36.3764L28.5046 34.8005ZM20.7468 28.0866C20.3009 27.3885 20.5054 26.461 21.2036 26.0151C21.9018 25.5692 22.8293 25.7737 23.2752 26.4719L20.7468 28.0866ZM18.999 19.8692C19.4538 20.5616 19.2612 21.4916 18.5688 21.9464C17.8764 22.4012 16.9464 22.2086 16.4916 21.5162L18.999 19.8692ZM11.05 13.3813C10.5835 12.6967 10.7602 11.7636 11.4448 11.297C12.1294 10.8305 13.0625 11.0073 13.5291 11.6918L11.05 13.3813ZM9.04944 5.22065C9.52607 5.89824 9.36315 6.83391 8.68556 7.31053C8.00797 7.78715 7.0723 7.62423 6.59569 6.94665L9.04944 5.22065ZM1.67665 278.717C3.0935 277.986 4.47691 277.211 5.82713 276.396L7.37794 278.964C5.97131 279.814 4.52956 280.621 3.05245 281.383L1.67665 278.717ZM12.1221 272.131C14.6654 270.21 17.0718 268.137 19.343 265.939L21.4293 268.095C19.0742 270.374 16.5753 272.527 13.9304 274.525L12.1221 272.131ZM24.5742 260.39C26.6559 257.973 28.5998 255.447 30.4075 252.839L32.8731 254.548C31.0085 257.238 29.0007 259.847 26.8473 262.347L24.5742 260.39ZM34.5125 246.388C36.1298 243.616 37.6067 240.782 38.945 237.913L41.6638 239.181C40.2881 242.13 38.7689 245.046 37.1037 247.9L34.5125 246.388ZM41.933 230.867C43.093 227.841 44.1039 224.804 44.968 221.786L47.8521 222.612C46.9643 225.712 45.9258 228.833 44.7342 231.941L41.933 230.867ZM46.813 214.354C47.489 211.138 47.9936 207.978 48.3304 204.917L51.3124 205.245C50.9646 208.407 50.4442 211.662 49.7488 214.971L46.813 214.354ZM48.8282 197.321C48.8906 193.948 48.7242 190.767 48.3379 187.843L51.3121 187.45C51.7203 190.54 51.8925 193.872 51.8277 197.376L48.8282 197.321ZM46.7411 180.539C45.6641 177.221 44.205 174.575 42.4299 172.696L44.6105 170.636C46.7762 172.928 48.4243 176.008 49.5945 179.613L46.7411 180.539ZM36.5953 169.47C35.2965 169.253 33.8643 169.275 32.2894 169.584L31.7103 166.641C33.6009 166.269 35.3985 166.228 37.0897 166.511L36.5953 169.47ZM32.2894 169.584C30.7016 169.897 29.2893 170.298 28.0425 170.771L26.9779 167.966C28.4003 167.427 29.9771 166.982 31.7103 166.641L32.2894 169.584ZM22.4472 174.358C20.5674 176.445 19.8784 178.984 20.2551 181.751L17.2825 182.156C16.7969 178.589 17.6989 175.147 20.2182 172.35L22.4472 174.358ZM22.7274 187.998C24.1514 190.208 26.1502 192.407 28.6768 194.442L26.7954 196.779C24.0542 194.571 21.8267 192.139 20.2055 189.623L22.7274 187.998ZM34.65 198.369C37.1434 199.705 39.9194 200.872 42.9473 201.801L42.0679 204.669C38.8583 203.685 35.9019 202.443 33.2332 201.014L34.65 198.369ZM49.9715 203.426C52.8229 203.884 55.837 204.136 58.9947 204.14L58.9907 207.14C55.6758 207.136 52.5039 206.871 49.4956 206.388L49.9715 203.426ZM66.2294 203.726C67.7045 203.557 69.2049 203.335 70.7288 203.055L71.2708 206.005C69.6808 206.297 68.1136 206.53 66.5708 206.707L66.2294 203.726ZM70.7288 203.055C72.3353 202.76 73.7749 202.304 75.0615 201.704L76.3292 204.423C74.7915 205.14 73.1052 205.668 71.2708 206.005L70.7288 203.055ZM80.5175 197.288C82.1781 195.088 83.3666 192.291 84.0884 188.92L87.0219 189.548C86.232 193.237 84.896 196.466 82.9122 199.095L80.5175 197.288ZM84.9084 181.446C84.9805 178.497 84.813 175.295 84.4205 171.866L87.401 171.525C87.8062 175.065 87.9836 178.408 87.9075 181.519L84.9084 181.446ZM83.2463 164.209C82.6736 161.173 81.961 158.006 81.1184 154.725L84.0241 153.978C84.8809 157.315 85.6082 160.545 86.1943 163.653L83.2463 164.209ZM79.03 147.231C78.1264 144.212 77.1293 141.116 76.0456 137.955L78.8835 136.982C79.9788 140.178 80.9882 143.311 81.904 146.371L79.03 147.231ZM73.4148 130.602C72.3008 127.609 71.1186 124.568 69.8739 121.488L72.6553 120.364C73.9098 123.468 75.1021 126.535 76.2264 129.556L73.4148 130.602ZM66.8744 114.272C65.6113 111.313 64.2965 108.326 62.9348 105.317L65.668 104.08C67.0381 107.107 68.3616 110.115 69.6335 113.095L66.8744 114.272ZM59.6549 98.2191C58.2756 95.2935 56.8564 92.3538 55.4016 89.4065L58.0917 88.0786C59.5542 91.0415 60.9812 93.9974 62.3685 96.9398L59.6549 98.2191ZM51.8908 82.4136C50.414 79.52 48.9063 76.6242 47.372 73.7323L50.022 72.3263C51.5637 75.2319 53.0787 78.1417 54.5629 81.0498L51.8908 82.4136ZM43.6599 66.8386C42.0962 63.9763 40.5093 61.1227 38.9032 58.284L41.5143 56.8067C43.1276 59.6583 44.7217 62.5248 46.2927 65.4003L43.6599 66.8386ZM35.0069 51.4904C33.3613 48.6595 31.6995 45.8487 30.0257 43.0639L32.5969 41.5184C34.2783 44.3157 35.9476 47.1392 37.6005 49.9827L35.0069 51.4904ZM25.9519 36.3764C24.2246 33.5785 22.4881 30.813 20.7468 28.0866L23.2752 26.4719C25.0248 29.2113 26.7693 31.9897 28.5046 34.8005L25.9519 36.3764ZM16.4916 21.5162C14.6774 18.7541 12.8619 16.04 11.05 13.3813L13.5291 11.6918C15.3508 14.365 17.1757 17.0932 18.999 19.8692L16.4916 21.5162ZM6.59569 6.94665C5.65542 5.60991 4.71726 4.28993 3.78187 2.98773L6.21844 1.23754C7.15971 2.54795 8.10361 3.876 9.04944 5.22065L6.59569 6.94665Z" fill="#E4E4E4"/>
</svg>
