<svg width="484" height="481" viewBox="0 0 484 481" fill="none" xmlns="http://www.w3.org/2000/svg">
<path d="M305.512 15.681C304.729 15.9503 304.312 16.8037 304.581 17.5871C304.851 18.3705 305.704 18.7874 306.488 18.5181L305.512 15.681ZM456.389 25.6267L457.393 24.5124L456.389 25.6267ZM422.333 186.766L422.592 185.289L422.333 186.766ZM417.5 157.096L416.476 156L417.5 157.096ZM418.389 258.312L418.518 259.807L418.389 258.312ZM6.47434 379.577C5.68843 379.315 4.83895 379.74 4.57698 380.526L0.3079 393.333C0.0459285 394.119 0.470668 394.968 1.25658 395.23C2.0425 395.492 2.89198 395.067 3.15395 394.282L6.94868 382.897L18.3329 386.692C19.1188 386.954 19.9683 386.529 20.2302 385.743C20.4922 384.957 20.0675 384.108 19.2816 383.846L6.47434 379.577ZM7.27854 386.308C7.72519 387.006 8.65287 387.209 9.35058 386.762C10.0483 386.316 10.2518 385.388 9.80517 384.69L7.27854 386.308ZM14.7423 390.82C14.1475 390.243 13.1979 390.258 12.6212 390.853C12.0445 391.447 12.059 392.397 12.6537 392.974L14.7423 390.82ZM21.6062 398.961C22.3673 399.288 23.2494 398.937 23.5765 398.175C23.9035 397.414 23.5516 396.532 22.7905 396.205L21.6062 398.961ZM30.3353 398.339C29.5175 398.206 28.7472 398.761 28.6146 399.579C28.482 400.397 29.0375 401.167 29.8552 401.3L30.3353 398.339ZM40.3807 401.942C41.209 401.928 41.8688 401.245 41.8545 400.416C41.8402 399.588 41.1572 398.928 40.3289 398.942L40.3807 401.942ZM48.4564 398.507C47.6307 398.573 47.0153 399.297 47.082 400.122C47.1486 400.948 47.872 401.564 48.6978 401.497L48.4564 398.507ZM58.9825 400.533C59.8071 400.453 60.4105 399.719 60.3303 398.895C60.2502 398.07 59.5168 397.467 58.6922 397.547L58.9825 400.533ZM66.9235 396.819C66.0974 396.881 65.4782 397.601 65.5404 398.427C65.6027 399.254 66.3228 399.873 67.1489 399.811L66.9235 396.819ZM77.3484 399.319C78.1768 399.306 78.8377 398.624 78.8247 397.796C78.8117 396.968 78.1297 396.307 77.3014 396.32L77.3484 399.319ZM85.6267 396.461C84.7994 396.418 84.0937 397.053 84.0506 397.881C84.0074 398.708 84.643 399.414 85.4703 399.457L85.6267 396.461ZM95.5506 400.493C96.369 400.622 97.1366 400.063 97.2651 399.244C97.3935 398.426 96.8342 397.658 96.0158 397.53L95.5506 400.493ZM104.217 399.204C103.414 399 102.598 399.487 102.395 400.29C102.192 401.093 102.678 401.909 103.481 402.112L104.217 399.204ZM113.126 405.172C113.899 405.469 114.767 405.083 115.064 404.31C115.361 403.536 114.975 402.669 114.201 402.372L113.126 405.172ZM121.846 405.722C121.103 405.356 120.203 405.66 119.837 406.403C119.47 407.146 119.774 408.045 120.517 408.412L121.846 405.722ZM129.36 413.397C130.06 413.841 130.987 413.635 131.431 412.935C131.875 412.236 131.668 411.309 130.969 410.865L129.36 413.397ZM137.814 415.597C137.151 415.101 136.211 415.236 135.715 415.9C135.218 416.563 135.354 417.503 136.017 417.999L137.814 415.597ZM143.882 424.47C144.494 425.028 145.443 424.984 146.001 424.372C146.559 423.76 146.516 422.811 145.904 422.253L143.882 424.47ZM151.683 428.074C151.133 427.456 150.184 427.4 149.566 427.951C148.947 428.502 148.891 429.45 149.442 430.069L151.683 428.074ZM155.336 437.991C155.761 438.703 156.682 438.935 157.393 438.51C158.104 438.086 158.337 437.165 157.912 436.453L155.336 437.991ZM161.453 444.118C161.196 443.33 160.35 442.899 159.562 443.156C158.774 443.412 158.344 444.259 158.6 445.046L161.453 444.118ZM159.811 454.435C159.745 455.26 160.361 455.983 161.187 456.049C162.012 456.115 162.735 455.499 162.801 454.674L159.811 454.435ZM160.569 462.988C160.925 462.24 160.607 461.345 159.859 460.989C159.112 460.633 158.216 460.95 157.86 461.698L160.569 462.988ZM152.103 469.225C151.483 469.774 151.427 470.723 151.977 471.342C152.527 471.962 153.475 472.018 154.095 471.468L152.103 469.225ZM147.058 476.211C147.797 475.838 148.095 474.936 147.722 474.196C147.349 473.456 146.447 473.159 145.707 473.532L147.058 476.211ZM136.525 476.589C135.709 476.736 135.167 477.516 135.314 478.331C135.461 479.146 136.241 479.688 137.056 479.541L136.525 476.589ZM128.615 480.052C129.442 480.102 130.154 479.473 130.204 478.646C130.255 477.819 129.625 477.108 128.799 477.057L128.615 480.052ZM119.48 474.878C118.72 474.546 117.836 474.894 117.505 475.653C117.174 476.412 117.522 477.296 118.281 477.628L119.48 474.878ZM111.084 472.998C111.698 473.554 112.647 473.507 113.203 472.894C113.759 472.28 113.713 471.331 113.099 470.775L111.084 472.998ZM107.494 463.112C107.142 462.362 106.248 462.041 105.498 462.394C104.749 462.747 104.427 463.64 104.78 464.39L107.494 463.112ZM102.189 456.32C102.348 457.133 103.135 457.663 103.949 457.505C104.762 457.346 105.292 456.558 105.133 455.745L102.189 456.32ZM104.114 445.664C104.054 444.838 103.335 444.217 102.509 444.277C101.683 444.337 101.062 445.056 101.122 445.882L104.114 445.664ZM100.527 437.524C100.583 438.351 101.299 438.975 102.126 438.918C102.952 438.861 103.576 438.145 103.52 437.319L100.527 437.524ZM102.862 426.873C102.816 426.046 102.108 425.413 101.28 425.46C100.453 425.506 99.8204 426.214 99.8668 427.041L102.862 426.873ZM99.4552 418.637C99.4893 419.464 100.188 420.108 101.016 420.074C101.843 420.04 102.487 419.341 102.453 418.513L99.4552 418.637ZM102.146 408.075C102.132 407.246 101.449 406.586 100.621 406.6C99.7927 406.614 99.1324 407.296 99.1461 408.124L102.146 408.075ZM99.1059 399.7C99.0995 400.528 99.7658 401.205 100.594 401.212C101.423 401.218 102.099 400.552 102.106 399.723L99.1059 399.7ZM102.371 389.299C102.408 388.471 101.767 387.771 100.939 387.734C100.111 387.697 99.4108 388.339 99.374 389.166L102.371 389.299ZM99.8899 380.744C99.8247 381.57 100.441 382.292 101.267 382.358C102.093 382.423 102.815 381.806 102.881 380.98L99.8899 380.744ZM103.954 370.63C104.061 369.809 103.481 369.056 102.66 368.949C101.838 368.843 101.086 369.422 100.979 370.244L103.954 370.63ZM102.259 361.885C102.114 362.7 102.658 363.479 103.474 363.624C104.289 363.769 105.068 363.225 105.213 362.409L102.259 361.885ZM107.36 352.254C107.559 351.449 107.068 350.636 106.264 350.437C105.46 350.238 104.647 350.729 104.448 351.533L107.36 352.254ZM106.728 343.37C106.48 344.161 106.921 345.002 107.711 345.25C108.502 345.497 109.343 345.057 109.591 344.266L106.728 343.37ZM113.093 334.526C113.407 333.759 113.04 332.883 112.273 332.569C111.506 332.256 110.63 332.623 110.316 333.389L113.093 334.526ZM113.827 325.651C113.456 326.392 113.756 327.293 114.497 327.664C115.237 328.035 116.139 327.735 116.509 326.994L113.827 325.651ZM121.59 318.009C122.035 317.31 121.829 316.382 121.13 315.938C120.43 315.493 119.503 315.7 119.059 316.399L121.59 318.009ZM123.929 309.42C123.426 310.078 123.551 311.02 124.21 311.523C124.868 312.026 125.809 311.9 126.312 311.242L123.929 309.42ZM133.021 303.402C133.593 302.804 133.572 301.854 132.973 301.282C132.375 300.709 131.425 300.73 130.852 301.329L133.021 303.402ZM136.991 295.45C136.368 295.996 136.306 296.944 136.853 297.567C137.399 298.19 138.347 298.251 138.97 297.705L136.991 295.45ZM147.091 291.312C147.767 290.834 147.929 289.898 147.451 289.221C146.973 288.545 146.037 288.383 145.361 288.861L147.091 291.312ZM152.48 284.249C151.768 284.672 151.533 285.592 151.956 286.305C152.379 287.017 153.3 287.252 154.012 286.829L152.48 284.249ZM162.835 282.101C163.58 281.74 163.892 280.843 163.531 280.097C163.17 279.352 162.273 279.04 161.527 279.401L162.835 282.101ZM168.734 276.162C167.969 276.48 167.608 277.358 167.926 278.123C168.245 278.888 169.123 279.249 169.888 278.931L168.734 276.162ZM178.935 275.498C179.718 275.228 180.134 274.374 179.864 273.591C179.594 272.808 178.74 272.392 177.957 272.662L178.935 275.498ZM185.463 270.263C184.668 270.498 184.215 271.332 184.45 272.127C184.685 272.921 185.519 273.374 186.314 273.139L185.463 270.263ZM195.673 270.624C196.478 270.428 196.971 269.616 196.775 268.811C196.579 268.007 195.768 267.513 194.963 267.709L195.673 270.624ZM202.639 265.982C201.828 266.15 201.307 266.944 201.475 267.755C201.643 268.567 202.437 269.088 203.248 268.92L202.639 265.982ZM212.801 267.131C213.618 266.993 214.169 266.219 214.031 265.402C213.894 264.585 213.12 264.035 212.303 264.172L212.801 267.131ZM220.066 262.972C219.246 263.088 218.675 263.847 218.791 264.667C218.907 265.488 219.666 266.059 220.486 265.943L220.066 262.972ZM230.146 264.722C230.969 264.63 231.562 263.888 231.47 263.065C231.377 262.241 230.635 261.649 229.812 261.741L230.146 264.722ZM237.616 260.947C236.791 261.023 236.183 261.753 236.259 262.578C236.335 263.403 237.065 264.01 237.89 263.935L237.616 260.947ZM247.595 263.153C248.422 263.095 249.045 262.378 248.987 261.552C248.929 260.725 248.212 260.102 247.386 260.16L247.595 263.153ZM255.213 259.673C254.385 259.718 253.752 260.426 253.797 261.253C253.842 262.08 254.55 262.714 255.377 262.668L255.213 259.673ZM265.108 262.216C265.936 262.184 266.581 261.487 266.549 260.659C266.517 259.831 265.82 259.186 264.992 259.218L265.108 262.216ZM272.824 258.959C271.996 258.982 271.343 259.672 271.366 260.5C271.389 261.328 272.079 261.981 272.907 261.958L272.824 258.959ZM282.656 261.745C283.484 261.731 284.145 261.049 284.131 260.221C284.118 259.392 283.435 258.732 282.607 258.745L282.656 261.745ZM290.436 258.647C289.608 258.655 288.942 259.332 288.95 260.161C288.957 260.989 289.634 261.655 290.463 261.647L290.436 258.647ZM300.222 261.598C301.05 261.596 301.721 260.923 301.719 260.095C301.718 259.267 301.045 258.596 300.217 258.598L300.222 261.598ZM308.041 258.602C307.213 258.6 306.54 259.27 306.537 260.098C306.535 260.927 307.205 261.6 308.033 261.602L308.041 258.602ZM317.799 261.647C318.627 261.653 319.303 260.985 319.308 260.157C319.313 259.328 318.646 258.653 317.817 258.647L317.799 261.647ZM325.637 258.702C324.808 258.696 324.131 259.362 324.125 260.191C324.119 261.019 324.785 261.696 325.614 261.702L325.637 258.702ZM335.385 261.778C336.214 261.784 336.89 261.118 336.897 260.289C336.903 259.461 336.236 258.784 335.408 258.778L335.385 261.778ZM343.222 258.832C342.393 258.827 341.718 259.494 341.713 260.323C341.708 261.151 342.375 261.827 343.204 261.832L343.222 258.832ZM352.982 261.875C353.81 261.877 354.483 261.207 354.485 260.378C354.487 259.55 353.817 258.877 352.989 258.875L352.982 261.875ZM360.798 258.876C359.969 258.878 359.299 259.551 359.301 260.38C359.303 261.208 359.976 261.878 360.804 261.876L360.798 258.876ZM370.589 261.82C371.417 261.812 372.082 261.134 372.074 260.305C372.066 259.477 371.388 258.812 370.56 258.82L370.589 261.82ZM378.363 258.715C377.535 258.729 376.875 259.412 376.889 260.241C376.904 261.069 377.587 261.729 378.416 261.714L378.363 258.715ZM388.205 261.485C389.033 261.461 389.685 260.77 389.66 259.941C389.636 259.113 388.945 258.462 388.116 258.487L388.205 261.485ZM395.91 258.211C395.082 258.246 394.439 258.944 394.473 259.772C394.508 260.6 395.206 261.243 396.034 261.209L395.91 258.211ZM405.822 260.722C406.649 260.673 407.28 259.964 407.231 259.137C407.183 258.31 406.473 257.679 405.646 257.727L405.822 260.722ZM413.421 257.209C412.595 257.271 411.976 257.991 412.038 258.817C412.1 259.643 412.82 260.262 413.646 260.2L413.421 257.209ZM423.278 259.255C424.098 259.135 424.666 258.374 424.546 257.554C424.426 256.734 423.665 256.167 422.845 256.286L423.278 259.255ZM430.076 254.869C429.272 255.068 428.782 255.882 428.981 256.686C429.181 257.49 429.995 257.98 430.799 257.781L430.076 254.869ZM439.937 254.87C440.708 254.567 441.087 253.696 440.784 252.925C440.48 252.155 439.61 251.775 438.839 252.079L439.937 254.87ZM445.517 249.013C444.785 249.401 444.505 250.309 444.893 251.041C445.281 251.773 446.188 252.052 446.92 251.665L445.517 249.013ZM455.066 246.56C455.733 246.07 455.876 245.131 455.385 244.463C454.895 243.796 453.956 243.653 453.288 244.143L455.066 246.56ZM458.921 239.449C458.318 240.017 458.29 240.967 458.859 241.569C459.427 242.172 460.376 242.2 460.979 241.632L458.921 239.449ZM467.449 234.508C467.957 233.853 467.838 232.911 467.184 232.403C466.529 231.895 465.587 232.014 465.079 232.668L467.449 234.508ZM469.207 226.613C468.783 227.324 469.017 228.245 469.728 228.669C470.44 229.093 471.361 228.86 471.785 228.148L469.207 226.613ZM476.074 219.545C476.388 218.779 476.022 217.903 475.255 217.588C474.489 217.274 473.612 217.641 473.298 218.407L476.074 219.545ZM475.699 211.46C475.472 212.257 475.934 213.086 476.73 213.313C477.527 213.54 478.357 213.078 478.584 212.281L475.699 211.46ZM480.6 202.912C480.722 202.093 480.157 201.329 479.338 201.207C478.519 201.084 477.755 201.649 477.633 202.468L480.6 202.912ZM478.375 195.128C478.33 195.955 478.964 196.663 479.791 196.708C480.618 196.753 481.325 196.119 481.371 195.292L478.375 195.128ZM481.224 185.289C481.136 184.465 480.397 183.868 479.574 183.956C478.75 184.044 478.153 184.783 478.241 185.606L481.224 185.289ZM476.747 177.924C476.975 178.721 477.805 179.182 478.602 178.954C479.398 178.726 479.86 177.896 479.632 177.1L476.747 177.924ZM475.691 167.445C475.296 166.717 474.385 166.448 473.657 166.843C472.929 167.238 472.659 168.149 473.055 168.877L475.691 167.445ZM468.725 162.37C469.245 163.016 470.189 163.118 470.834 162.598C471.479 162.078 471.581 161.134 471.062 160.489L468.725 162.37ZM463.589 153.177C462.931 152.674 461.99 152.8 461.486 153.458C460.983 154.116 461.109 155.057 461.767 155.561L463.589 153.177ZM455.143 151.511C455.892 151.864 456.786 151.544 457.14 150.795C457.493 150.045 457.173 149.151 456.424 148.798L455.143 151.511ZM446.355 145.731C445.535 145.611 444.774 146.179 444.654 146.999C444.535 147.819 445.103 148.58 445.922 148.699L446.355 145.731ZM438.233 148.564C439.057 148.473 439.65 147.731 439.558 146.908C439.466 146.084 438.724 145.491 437.901 145.583L438.233 148.564ZM427.738 148.381C426.982 148.72 426.644 149.608 426.983 150.364C427.322 151.12 428.21 151.458 428.966 151.119L427.738 148.381ZM422.288 155.052C422.954 154.56 423.095 153.62 422.603 152.954C422.11 152.288 421.171 152.147 420.505 152.639L422.288 155.052ZM413.12 160.333C412.714 161.056 412.971 161.97 413.693 162.376C414.415 162.782 415.33 162.525 415.736 161.803L413.12 160.333ZM413.4 168.894C413.515 168.073 412.942 167.316 412.122 167.201C411.301 167.087 410.543 167.66 410.429 168.48L413.4 168.894ZM411.458 179.153C411.749 179.928 412.614 180.321 413.389 180.03C414.165 179.738 414.557 178.874 414.266 178.098L411.458 179.153ZM418.504 183.688C417.815 183.228 416.884 183.414 416.424 184.103C415.964 184.792 416.149 185.723 416.838 186.183L418.504 183.688ZM427.326 188.914C428.152 188.979 428.874 188.362 428.939 187.536C429.003 186.71 428.387 185.988 427.561 185.923L427.326 188.914ZM435.435 185.866C434.611 185.947 434.009 186.682 434.09 187.506C434.172 188.33 434.906 188.933 435.731 188.851L435.435 185.866ZM446.038 186.491C446.814 186.202 447.21 185.339 446.921 184.562C446.632 183.786 445.769 183.39 444.992 183.679L446.038 186.491ZM452.009 180.183C451.311 180.628 451.104 181.555 451.549 182.254C451.994 182.953 452.921 183.159 453.62 182.714L452.009 180.183ZM461.765 176.025C462.342 175.43 462.327 174.481 461.732 173.904C461.137 173.328 460.187 173.343 459.611 173.938L461.765 176.025ZM464.662 167.82C464.183 168.496 464.343 169.432 465.019 169.911C465.695 170.389 466.632 170.229 467.11 169.553L464.662 167.82ZM472.443 160.587C472.814 159.846 472.513 158.945 471.772 158.574C471.031 158.204 470.13 158.504 469.76 159.245L472.443 160.587ZM472.983 151.891C472.686 152.665 473.073 153.532 473.847 153.829C474.621 154.125 475.488 153.738 475.784 152.964L472.983 151.891ZM478.985 143.103C479.202 142.304 478.73 141.48 477.931 141.262C477.132 141.045 476.307 141.517 476.09 142.317L478.985 143.103ZM477.934 134.461C477.772 135.273 478.299 136.063 479.111 136.226C479.923 136.388 480.714 135.861 480.876 135.049L477.934 134.461ZM482.516 124.838C482.617 124.016 482.033 123.267 481.211 123.166C480.388 123.064 479.64 123.649 479.538 124.471L482.516 124.838ZM480.31 116.416C480.253 117.242 480.876 117.958 481.703 118.015C482.529 118.072 483.245 117.449 483.302 116.622L480.31 116.416ZM483.684 106.32C483.689 105.491 483.022 104.816 482.193 104.811C481.365 104.806 480.689 105.474 480.685 106.302L483.684 106.32ZM480.535 98.1996C480.57 99.0272 481.27 99.6695 482.097 99.6341C482.925 99.5987 483.567 98.8991 483.532 98.0714L480.535 98.1996ZM482.781 87.7917C482.695 86.9676 481.958 86.3689 481.134 86.4543C480.31 86.5397 479.711 87.2769 479.797 88.101L482.781 87.7917ZM478.762 80.0629C478.888 80.8816 479.654 81.4428 480.473 81.3164C481.292 81.1899 481.853 80.4237 481.727 79.605L478.762 80.0629ZM479.817 69.4614C479.636 68.6529 478.834 68.1441 478.026 68.3248C477.217 68.5055 476.709 69.3075 476.889 70.1159L479.817 69.4614ZM474.899 62.2873C475.127 63.0837 475.958 63.5443 476.754 63.3161C477.551 63.0879 478.011 62.2574 477.783 61.461L474.899 62.2873ZM474.517 51.6279C474.222 50.854 473.355 50.4663 472.581 50.7619C471.807 51.0576 471.419 51.9246 471.715 52.6985L474.517 51.6279ZM468.545 45.3067C468.904 46.0534 469.8 46.3678 470.547 46.009C471.294 45.6502 471.608 44.754 471.249 44.0073L468.545 45.3067ZM466.15 34.9193C465.695 34.2269 464.765 34.0344 464.073 34.4893C463.38 34.9442 463.188 35.8742 463.643 36.5666L466.15 34.9193ZM458.853 30.2555C459.402 30.8762 460.35 30.9345 460.971 30.3858C461.591 29.8371 461.65 28.8891 461.101 28.2685L458.853 30.2555ZM453.615 21.2989C452.968 20.7805 452.024 20.8841 451.506 21.5304C450.988 22.1766 451.091 23.1206 451.738 23.639L453.615 21.2989ZM445.547 19.1256C446.238 19.5824 447.169 19.3924 447.625 18.7012C448.082 18.0101 447.892 17.0796 447.201 16.6228L445.547 19.1256ZM438.64 11.637C437.902 11.2608 436.999 11.5541 436.622 12.2921C436.246 13.0302 436.539 13.9335 437.277 14.3098L438.64 11.637ZM430.305 11.1274C431.073 11.4391 431.948 11.0695 432.259 10.302C432.571 9.53443 432.202 8.65953 431.434 8.34784L430.305 11.1274ZM422.093 5.09433C421.299 4.86052 420.465 5.31524 420.231 6.10999C419.997 6.90474 420.452 7.73855 421.247 7.97236L422.093 5.09433ZM413.799 6.07692C414.608 6.25232 415.407 5.73817 415.582 4.92852C415.758 4.11888 415.244 3.32034 414.434 3.14494L413.799 6.07692ZM404.713 1.46129C403.891 1.35288 403.138 1.93079 403.029 2.75209C402.921 3.57339 403.499 4.32708 404.32 4.43549L404.713 1.46129ZM396.652 3.65592C397.479 3.71584 398.197 3.0946 398.257 2.26834C398.317 1.44208 397.696 0.723697 396.869 0.663778L396.652 3.65592ZM387.033 0.281607C386.205 0.276106 385.529 0.943204 385.524 1.77161C385.518 2.60002 386.185 3.27604 387.014 3.28154L387.033 0.281607ZM379.288 3.41481C380.116 3.38139 380.76 2.68327 380.726 1.85551C380.693 1.02776 379.995 0.383828 379.167 0.417248L379.288 3.41481ZM369.365 1.07678C368.54 1.15368 367.934 1.8847 368.011 2.70955C368.088 3.5344 368.819 4.14073 369.644 4.06382L369.365 1.07678ZM361.952 4.93025C362.774 4.82221 363.352 4.06879 363.244 3.24744C363.136 2.42608 362.382 1.84783 361.561 1.95587L361.952 4.93025ZM351.865 3.44633C351.049 3.58932 350.503 4.36673 350.646 5.18272C350.789 5.99871 351.567 6.54429 352.383 6.4013L351.865 3.44633ZM344.77 7.85881C345.581 7.69062 346.103 6.89668 345.935 6.08551C345.766 5.27434 344.972 4.7531 344.161 4.92129L344.77 7.85881ZM334.603 7.08295C333.798 7.27969 333.305 8.09155 333.502 8.89627C333.699 9.701 334.51 10.1939 335.315 9.99711L334.603 7.08295ZM327.803 11.9386C328.602 11.7211 329.074 10.8967 328.856 10.0973C328.639 9.298 327.814 8.82635 327.015 9.04389L327.803 11.9386ZM317.607 11.7583C316.814 11.9997 316.368 12.8378 316.609 13.6303C316.85 14.4228 317.688 14.8695 318.481 14.6282L317.607 11.7583ZM311.085 16.9715C311.872 16.7126 312.3 15.8648 312.042 15.0779C311.783 14.2909 310.935 13.8629 310.148 14.1218L311.085 16.9715ZM4.65836 381.671C5.49277 383.34 6.36617 384.883 7.27854 386.308L9.80517 384.69C8.95413 383.361 8.13243 381.911 7.34164 380.329L4.65836 381.671ZM12.6537 392.974C15.4034 395.64 18.3956 397.582 21.6062 398.961L22.7905 396.205C19.9085 394.967 17.2243 393.227 14.7423 390.82L12.6537 392.974ZM29.8552 401.3C33.2125 401.844 36.7306 402.005 40.3807 401.942L40.3289 398.942C36.7934 399.003 33.4635 398.846 30.3353 398.339L29.8552 401.3ZM48.6978 401.497C52.0182 401.229 55.4608 400.875 58.9825 400.533L58.6922 397.547C55.1474 397.892 51.7445 398.241 48.4564 398.507L48.6978 401.497ZM67.1489 399.811C70.4743 399.56 73.8749 399.374 77.3484 399.319L77.3014 396.32C73.7523 396.376 70.2898 396.565 66.9235 396.819L67.1489 399.811ZM85.4703 399.457C88.7733 399.629 92.1345 399.957 95.5506 400.493L96.0158 397.53C92.4869 396.976 89.0219 396.638 85.6267 396.461L85.4703 399.457ZM103.481 402.112C106.652 402.914 109.868 403.921 113.126 405.172L114.201 402.372C110.829 401.077 107.5 400.034 104.217 399.204L103.481 402.112ZM120.517 408.412C123.433 409.852 126.382 411.505 129.36 413.397L130.969 410.865C127.901 408.916 124.859 407.211 121.846 405.722L120.517 408.412ZM136.017 417.999C137.355 419.001 138.699 420.054 140.049 421.16L141.951 418.84C140.568 417.706 139.189 416.626 137.814 415.597L136.017 417.999ZM140.049 421.16C141.406 422.272 142.682 423.376 143.882 424.47L145.904 422.253C144.663 421.122 143.346 419.984 141.951 418.84L140.049 421.16ZM149.442 430.069C151.866 432.792 153.812 435.438 155.336 437.991L157.912 436.453C156.28 433.719 154.217 430.922 151.683 428.074L149.442 430.069ZM158.6 445.046C159.691 448.397 160.042 451.537 159.811 454.435L162.801 454.674C163.066 451.355 162.657 447.819 161.453 444.118L158.6 445.046ZM157.86 461.698C156.508 464.539 154.53 467.07 152.103 469.225L154.095 471.468C156.787 469.078 159.025 466.231 160.569 462.988L157.86 461.698ZM145.707 473.532C142.845 474.975 139.726 476.013 136.525 476.589L137.056 479.541C140.537 478.915 143.933 477.786 147.058 476.211L145.707 473.532ZM128.799 477.057C125.556 476.859 122.392 476.147 119.48 474.878L118.281 477.628C121.545 479.051 125.057 479.834 128.615 480.052L128.799 477.057ZM113.099 470.775C110.877 468.761 108.961 466.226 107.494 463.112L104.78 464.39C106.412 467.855 108.563 470.713 111.084 472.998L113.099 470.775ZM105.133 455.745C104.836 454.222 104.621 452.606 104.496 450.891L101.504 451.109C101.637 452.937 101.868 454.673 102.189 456.32L105.133 455.745ZM104.496 450.891C104.371 449.171 104.243 447.426 104.114 445.664L101.122 445.882C101.251 447.647 101.379 449.388 101.504 451.109L104.496 450.891ZM103.52 437.319C103.285 433.892 103.06 430.406 102.862 426.873L99.8668 427.041C100.066 430.59 100.291 434.089 100.527 437.524L103.52 437.319ZM102.453 418.513C102.311 415.063 102.204 411.579 102.146 408.075L99.1461 408.124C99.2047 411.657 99.3124 415.165 99.4552 418.637L102.453 418.513ZM102.106 399.723C102.133 396.256 102.217 392.777 102.371 389.299L99.374 389.166C99.218 392.684 99.133 396.2 99.1059 399.7L102.106 399.723ZM102.881 380.98C103.154 377.517 103.508 374.063 103.954 370.63L100.979 370.244C100.526 373.731 100.167 377.235 99.8899 380.744L102.881 380.98ZM105.213 362.409C105.82 358.99 106.532 355.601 107.36 352.254L104.448 351.533C103.602 354.95 102.877 358.404 102.259 361.885L105.213 362.409ZM109.591 344.266C110.624 340.964 111.787 337.714 113.093 334.526L110.316 333.389C108.977 336.66 107.785 339.991 106.728 343.37L109.591 344.266ZM116.509 326.994C118.047 323.924 119.736 320.925 121.59 318.009L119.059 316.399C117.147 319.405 115.408 322.493 113.827 325.651L116.509 326.994ZM126.312 311.242C128.378 308.54 130.61 305.923 133.021 303.402L130.852 301.329C128.364 303.931 126.06 306.632 123.929 309.42L126.312 311.242ZM138.97 297.705C141.506 295.48 144.209 293.346 147.091 291.312L145.361 288.861C142.393 290.956 139.607 293.155 136.991 295.45L138.97 297.705ZM154.012 286.829C155.48 285.957 156.988 285.108 158.538 284.283L157.129 281.635C155.538 282.482 153.989 283.353 152.48 284.249L154.012 286.829ZM158.538 284.283C159.95 283.532 161.383 282.805 162.835 282.101L161.527 279.401C160.041 280.121 158.575 280.865 157.129 281.635L158.538 284.283ZM169.888 278.931C172.833 277.704 175.851 276.561 178.935 275.498L177.957 272.662C174.817 273.744 171.741 274.909 168.734 276.162L169.888 278.931ZM186.314 273.139C189.377 272.233 192.498 271.396 195.673 270.624L194.963 267.709C191.744 268.492 188.576 269.342 185.463 270.263L186.314 273.139ZM203.248 268.92C206.387 268.269 209.573 267.674 212.801 267.131L212.303 264.172C209.04 264.721 205.817 265.323 202.639 265.982L203.248 268.92ZM220.486 265.943C223.671 265.493 226.892 265.087 230.146 264.722L229.812 261.741C226.531 262.109 223.281 262.518 220.066 262.972L220.486 265.943ZM237.89 263.935C241.098 263.64 244.334 263.381 247.595 263.153L247.386 260.16C244.105 260.389 240.847 260.65 237.616 260.947L237.89 263.935ZM255.377 262.668C258.6 262.492 261.845 262.342 265.108 262.216L264.992 259.218C261.714 259.345 258.454 259.495 255.213 259.673L255.377 262.668ZM272.907 261.958C276.142 261.868 279.393 261.798 282.656 261.745L282.607 258.745C279.334 258.799 276.072 258.869 272.824 258.959L272.907 261.958ZM290.463 261.647C293.707 261.618 296.961 261.603 300.222 261.598L300.217 258.598C296.95 258.603 293.689 258.618 290.436 258.647L290.463 261.647ZM308.033 261.602C311.285 261.611 314.541 261.627 317.799 261.647L317.817 258.647C314.557 258.627 311.297 258.611 308.041 258.602L308.033 261.602ZM325.614 261.702C328.87 261.727 332.133 261.753 335.385 261.778L335.408 258.778C332.152 258.753 328.898 258.727 325.637 258.702L325.614 261.702ZM343.204 261.832C346.469 261.852 349.73 261.867 352.982 261.875L352.989 258.875C349.741 258.867 346.485 258.852 343.222 258.832L343.204 261.832ZM360.804 261.876C364.077 261.869 367.34 261.852 370.589 261.82L370.56 258.82C367.319 258.852 364.065 258.869 360.798 258.876L360.804 261.876ZM378.416 261.714C381.696 261.656 384.961 261.581 388.205 261.485L388.116 258.487C384.885 258.582 381.633 258.657 378.363 258.715L378.416 261.714ZM396.034 261.209C399.321 261.073 402.584 260.912 405.822 260.722L405.646 257.727C402.427 257.916 399.181 258.076 395.91 258.211L396.034 261.209ZM413.646 260.2C415.278 260.078 416.902 259.947 418.518 259.807L418.259 256.818C416.655 256.957 415.042 257.087 413.421 257.209L413.646 260.2ZM418.518 259.807C420.123 259.668 421.71 259.484 423.278 259.255L422.845 256.286C421.335 256.507 419.806 256.684 418.259 256.818L418.518 259.807ZM430.799 257.781C433.945 257 436.996 256.028 439.937 254.87L438.839 252.079C436.023 253.187 433.097 254.119 430.076 254.869L430.799 257.781ZM446.92 251.665C449.774 250.155 452.494 248.451 455.066 246.56L453.288 244.143C450.838 245.945 448.242 247.571 445.517 249.013L446.92 251.665ZM460.979 241.632C463.307 239.436 465.47 237.059 467.449 234.508L465.079 232.668C463.195 235.097 461.137 237.359 458.921 239.449L460.979 241.632ZM471.785 228.148C473.402 225.432 474.837 222.562 476.074 219.545L473.298 218.407C472.117 221.289 470.748 224.026 469.207 226.613L471.785 228.148ZM478.584 212.281C479.439 209.277 480.115 206.152 480.6 202.912L477.633 202.468C477.167 205.584 476.518 208.583 475.699 211.46L478.584 212.281ZM481.371 195.292C481.457 193.719 481.5 192.123 481.5 190.504H478.5C478.5 192.069 478.458 193.611 478.375 195.128L481.371 195.292ZM481.5 190.504C481.5 188.739 481.406 186.999 481.224 185.289L478.241 185.606C478.412 187.212 478.5 188.846 478.5 190.504H481.5ZM479.632 177.1C478.657 173.688 477.324 170.452 475.691 167.445L473.055 168.877C474.584 171.693 475.833 174.724 476.747 177.924L479.632 177.1ZM471.062 160.489C468.837 157.726 466.323 155.267 463.589 153.177L461.767 155.561C464.305 157.501 466.646 159.789 468.725 162.37L471.062 160.489ZM456.424 148.798C453.223 147.287 449.84 146.239 446.355 145.731L445.922 148.699C449.098 149.162 452.196 150.12 455.143 151.511L456.424 148.798ZM437.901 145.583C434.508 145.961 431.097 146.875 427.738 148.381L428.966 151.119C432.043 149.739 435.153 148.908 438.233 148.564L437.901 145.583ZM420.505 152.639C419.14 153.648 417.796 154.767 416.476 156L418.524 158.192C419.763 157.035 421.019 155.99 422.288 155.052L420.505 152.639ZM416.476 156C415.147 157.242 414.027 158.719 413.12 160.333L415.736 161.803C416.511 160.423 417.447 159.199 418.524 158.192L416.476 156ZM410.429 168.48C409.925 172.101 410.223 175.865 411.458 179.153L414.266 178.098C413.234 175.348 412.954 172.099 413.4 168.894L410.429 168.48ZM416.838 186.183C418.339 187.185 420.086 187.895 422.074 188.244L422.592 185.289C421.001 185.01 419.646 184.451 418.504 183.688L416.838 186.183ZM422.074 188.244C423.864 188.557 425.614 188.78 427.326 188.914L427.561 185.923C425.948 185.797 424.292 185.586 422.592 185.289L422.074 188.244ZM435.731 188.851C439.38 188.491 442.815 187.689 446.038 186.491L444.992 183.679C442.016 184.786 438.833 185.53 435.435 185.866L435.731 188.851ZM453.62 182.714C456.568 180.838 459.281 178.589 461.765 176.025L459.611 173.938C457.276 176.347 454.744 178.443 452.009 180.183L453.62 182.714ZM467.11 169.553C469.072 166.782 470.848 163.779 472.443 160.587L469.76 159.245C468.226 162.315 466.527 165.185 464.662 167.82L467.11 169.553ZM475.784 152.964C476.995 149.803 478.061 146.505 478.985 143.103L476.09 142.317C475.19 145.63 474.155 148.831 472.983 151.891L475.784 152.964ZM480.876 135.049C481.543 131.712 482.089 128.3 482.516 124.838L479.538 124.471C479.12 127.862 478.586 131.2 477.934 134.461L480.876 135.049ZM483.302 116.622C483.538 113.21 483.664 109.769 483.684 106.32L480.685 106.302C480.665 109.69 480.54 113.068 480.31 116.416L483.302 116.622ZM483.532 98.0714C483.385 94.6283 483.134 91.1944 482.781 87.7917L479.797 88.101C480.143 91.4432 480.39 94.8167 480.535 98.1996L483.532 98.0714ZM481.727 79.605C481.195 76.1646 480.558 72.7753 479.817 69.4614L476.889 70.1159C477.615 73.3625 478.24 76.6861 478.762 80.0629L481.727 79.605ZM477.783 61.461C476.81 58.066 475.721 54.7782 474.517 51.6279L471.715 52.6985C472.886 55.7631 473.948 58.969 474.899 62.2873L477.783 61.461ZM471.249 44.0073C469.691 40.764 467.99 37.72 466.15 34.9193L463.643 36.5666C465.401 39.2436 467.038 42.1697 468.545 45.3067L471.249 44.0073ZM461.101 28.2685C459.911 26.9227 458.675 25.6677 457.393 24.5124L455.385 26.741C456.577 27.8151 457.733 28.9886 458.853 30.2555L461.101 28.2685ZM457.393 24.5124C456.155 23.397 454.895 22.3262 453.615 21.2989L451.738 23.639C452.974 24.6306 454.19 25.6642 455.385 26.741L457.393 24.5124ZM447.201 16.6228C444.424 14.7872 441.566 13.129 438.64 11.637L437.277 14.3098C440.106 15.7519 442.866 17.3537 445.547 19.1256L447.201 16.6228ZM431.434 8.34784C428.378 7.10684 425.261 6.02618 422.093 5.09433L421.247 7.97236C424.323 8.87736 427.346 9.92556 430.305 11.1274L431.434 8.34784ZM414.434 3.14494C411.231 2.45104 407.987 1.89352 404.713 1.46129L404.32 4.43549C407.518 4.85758 410.68 5.40135 413.799 6.07692L414.434 3.14494ZM396.869 0.663778C393.61 0.427397 390.328 0.303484 387.033 0.281607L387.014 3.28154C390.246 3.30301 393.462 3.42457 396.652 3.65592L396.869 0.663778ZM379.167 0.417248C375.902 0.549068 372.632 0.772217 369.365 1.07678L369.644 4.06382C372.861 3.76386 376.079 3.54438 379.288 3.41481L379.167 0.417248ZM361.561 1.95587C358.315 2.38278 355.08 2.88285 351.865 3.44633L352.383 6.4013C355.558 5.84477 358.751 5.35128 361.952 4.93025L361.561 1.95587ZM344.161 4.92129C340.945 5.58819 337.756 6.31209 334.603 7.08295L335.315 9.99711C338.436 9.23418 341.59 8.51815 344.77 7.85881L344.161 4.92129ZM327.015 9.04389C323.829 9.91095 320.69 10.8194 317.607 11.7583L318.481 14.6282C321.537 13.6975 324.647 12.7974 327.803 11.9386L327.015 9.04389ZM310.148 14.1218C308.584 14.6361 307.039 15.1564 305.512 15.681L306.488 18.5181C308.002 17.9977 309.535 17.4816 311.085 16.9715L310.148 14.1218Z" fill="#E4E4E4"/>
</svg>
