<svg width="508" height="386" viewBox="0 0 508 386" fill="none" xmlns="http://www.w3.org/2000/svg">
<circle cx="217.313" cy="225.811" r="160" fill="#FBA22C"/>
<path d="M57.1931 166.004L54.8407 176.688L16.5944 168.373L11.9091 189.86L50.2734 198.156L47.9209 208.84L0 198.495L9.27218 155.659L57.1931 166.004Z" fill="#242938"/>
<path d="M16.9694 131.856L22.4477 122.47L26.2215 124.751C25.6541 122.06 25.4799 119.545 25.8169 117.188C26.0358 114.851 26.8645 112.533 28.3029 110.236C29.9187 107.546 31.9667 105.269 34.3681 103.66C36.868 101.913 39.485 100.874 42.4359 100.385C45.3867 99.8955 48.4157 99.8779 51.798 100.528C55.0622 101.198 58.4242 102.458 61.5102 104.248C64.7337 106.136 67.4062 108.357 69.6456 110.893C71.767 113.448 73.4162 116.081 74.3768 118.95C75.3178 121.7 75.6882 124.667 75.4489 127.613C75.2096 130.559 74.2231 133.387 72.6268 136.195C71.208 138.611 69.5734 140.456 67.7231 141.732C65.7548 143.027 63.5114 144.125 60.8748 145.047L81.6512 156.984L76.1729 166.37L16.9694 131.856ZM53.4451 140.465C55.3141 140.034 57.1245 139.249 58.8372 137.875C60.5499 136.502 61.889 135.068 62.8348 133.458C64.9236 129.963 65.2817 126.27 64.0664 122.596C62.851 118.922 60.1598 115.856 56.1303 113.496C52.1009 111.136 48.0698 110.23 44.1943 110.993C40.3187 111.757 37.3858 113.817 35.3166 117.43C34.3707 119.04 33.6999 120.847 33.3239 122.968C32.9478 125.09 33.0244 127.015 33.7106 128.96L53.4451 140.465Z" fill="#242938"/>
<path d="M105.794 60.4527C108.328 63.3027 110.154 66.2701 111.291 69.4728C112.408 72.5575 112.936 75.7401 112.736 78.9223C112.536 82.1044 111.726 85.2664 110.149 88.1922C108.592 91.2359 106.386 94.0238 103.531 96.5559C100.676 99.088 97.5861 100.932 94.3789 102.07C91.1716 103.207 87.9847 103.735 84.7986 103.536C81.6125 103.338 78.5648 102.511 75.5179 100.957C72.589 99.3834 69.7985 97.1815 67.2644 94.3315C64.8679 91.5798 62.924 88.6319 61.7868 85.4293C60.5315 82.2462 60.122 79.044 60.2042 75.8815C60.4045 72.6993 61.2144 69.5373 62.7716 66.4936C64.3288 63.4499 66.5348 60.662 69.3895 58.1299C72.3623 55.5783 75.3343 53.7534 78.522 52.4984C81.7293 51.3612 84.9162 50.833 88.1218 51.1494C91.3079 51.348 94.4932 52.2734 97.4221 53.8469C100.607 55.499 103.378 57.5831 105.794 60.4527ZM97.7608 67.5975C96.2679 65.9072 94.5975 64.6096 92.8482 63.5673C90.9808 62.5446 89.172 61.8755 87.2053 61.717C85.3567 61.539 83.4486 61.7341 81.4811 62.3025C79.5136 62.8708 77.7423 63.8911 76.0687 65.5007C74.3755 66.9925 73.0755 68.6613 72.2868 70.4876C71.498 72.3139 71.0829 74.1994 71.0218 76.0262C70.9803 77.9709 71.4109 79.8373 72.2152 81.7629C73.0195 83.6886 74.1583 85.4376 75.6513 87.1279C77.1442 88.8183 78.8341 90.2337 80.564 91.1581C82.2938 92.0826 84.2206 92.7321 86.0888 93.028C87.957 93.3239 89.865 93.1288 91.695 92.4621C93.5249 91.7955 95.4142 90.7556 97.1074 89.2639C98.8005 87.7721 100.101 86.1033 100.889 84.277C101.678 82.4506 102.211 80.5456 102.135 78.6205C102.176 76.6758 101.746 74.8094 101.059 72.8642C100.412 71.1548 99.2733 69.4057 97.7608 67.5975Z" fill="#242938"/>
<path d="M125.215 53.2369C127.021 56.0865 129.654 58.0722 132.977 59.0959C136.3 60.1196 140.097 59.6115 144.17 57.8463C147.456 56.4538 150.074 54.6876 151.925 52.6852C153.894 50.6633 155.333 48.366 156.397 46.0095L164.594 50.8276C162.976 54.9713 160.73 58.2503 157.994 60.7628C155.237 63.1575 151.95 65.2767 148.094 66.8849C144.591 68.4344 141.089 69.2571 137.588 69.3529C134.087 69.4488 130.862 69.0145 127.755 67.8338C124.668 66.771 121.818 64.9422 119.382 62.6815C116.926 60.303 114.884 57.4926 113.334 53.995C111.803 50.6153 111.119 47.2165 110.926 43.8574C110.733 40.4982 111.287 37.2574 112.49 34.2724C113.693 31.2874 115.427 28.5778 117.81 26.1239C120.193 23.6701 123.145 21.7274 126.648 20.1779C130.268 18.6089 133.888 17.7666 137.409 17.7886C140.91 17.6928 144.194 18.4807 147.339 19.8972C150.485 21.3136 153.393 23.496 156.045 26.3265C158.698 29.1569 160.995 32.7729 162.8 37.076L125.215 53.2369ZM147.817 33.0193C146.049 30.4056 143.573 28.636 140.309 27.9659C137.044 27.2958 133.819 27.5883 130.768 28.9417C127.6 30.3146 125.159 32.4148 123.445 35.2423C121.73 38.0698 121.137 41.0749 121.901 44.2183L147.817 33.0193Z" fill="#242938"/>
<path d="M221.792 49.0982L207.826 50.4442L189.653 32.2618L185.221 37.7197L186.562 52.3943L175.684 53.3495L171.136 4.68948L182.014 3.73427L183.977 24.3613L201.605 1.94025L216.417 0.57517L195.974 25.0372L221.792 49.0982Z" fill="#242938"/>
<path d="M279.653 35.2688L270.077 33.1016L273.456 18.3713L264.391 16.3615L257.869 45.0563L268.448 47.4206L266.274 56.9856L234.517 49.7747L236.691 40.2097L247.27 42.5741L253.793 13.8793L244.708 11.7517L241.328 26.4821L231.87 24.2953L237.424 0L285.187 10.8557L279.653 35.2688Z" fill="#242938"/>
<path d="M315.576 63.2261C313.014 67.5263 309.766 69.8813 305.734 70.4286C301.701 70.9759 297.257 69.7747 292.422 66.9428L278.427 58.6045L303.61 16.6433L312.907 22.2479L303.114 38.5258L307.949 41.3577C312.785 44.1897 315.888 47.5508 317.359 51.3037C318.673 54.8404 318.138 58.9259 315.576 63.2261ZM306.161 57.641C307.126 56.1487 307.246 54.6756 306.52 53.2214C305.931 51.8656 304.635 50.6272 302.866 49.4671L298.03 46.6352L292.612 55.6479L297.447 58.4798C299.334 59.6204 300.985 60.0733 302.421 59.9564C303.857 59.8395 305.196 59.1332 306.161 57.641ZM338.047 37.0957L347.344 42.7004L322.161 84.6616L312.864 79.0569L338.047 37.0957Z" fill="#242938"/>
<path d="M132.425 165.936H130.597V160.874H126.222V177.608H129.503V179.436H120.769V177.608H124.065V160.874H119.69V165.936H117.862V159.046H132.425V165.936ZM149.894 172.171C149.894 173.306 149.716 174.337 149.362 175.264C149.008 176.191 148.508 176.994 147.862 177.671C147.227 178.337 146.456 178.858 145.55 179.233C144.644 179.608 143.628 179.796 142.503 179.796C141.732 179.796 140.982 179.655 140.253 179.374C139.534 179.093 138.862 178.676 138.237 178.124V185.264H136.097V164.874H138.237V166.218C139.56 165.093 140.982 164.53 142.503 164.53C143.628 164.53 144.644 164.718 145.55 165.093C146.456 165.457 147.227 165.983 147.862 166.671C148.508 167.348 149.008 168.16 149.362 169.108C149.716 170.046 149.894 171.066 149.894 172.171ZM147.753 172.171C147.753 171.358 147.638 170.598 147.409 169.889C147.19 169.171 146.857 168.551 146.409 168.03C145.961 167.509 145.409 167.098 144.753 166.796C144.107 166.494 143.357 166.343 142.503 166.343C141.69 166.343 140.93 166.494 140.222 166.796C139.524 167.098 138.862 167.587 138.237 168.264V176.077C138.862 176.754 139.524 177.238 140.222 177.53C140.93 177.822 141.69 177.968 142.503 177.968C143.357 177.968 144.107 177.816 144.753 177.514C145.409 177.212 145.961 176.801 146.409 176.28C146.857 175.759 147.19 175.15 147.409 174.452C147.638 173.744 147.753 172.983 147.753 172.171ZM154.94 172.905C155.097 174.447 155.659 175.676 156.628 176.593C157.597 177.509 158.857 177.968 160.409 177.968C161.503 177.968 162.477 177.744 163.331 177.296C164.185 176.848 164.826 176.29 165.253 175.624L166.753 176.655C166.024 177.676 165.154 178.457 164.144 178.999C163.133 179.53 161.888 179.796 160.409 179.796C159.284 179.796 158.253 179.608 157.315 179.233C156.378 178.858 155.565 178.337 154.878 177.671C154.201 176.994 153.675 176.191 153.3 175.264C152.925 174.337 152.737 173.306 152.737 172.171C152.737 171.066 152.904 170.051 153.237 169.124C153.581 168.186 154.071 167.379 154.706 166.702C155.352 166.014 156.133 165.483 157.05 165.108C157.966 164.723 158.993 164.53 160.128 164.53C161.368 164.53 162.451 164.738 163.378 165.155C164.305 165.572 165.076 166.15 165.69 166.889C166.315 167.619 166.774 168.494 167.065 169.514C167.368 170.535 167.519 171.665 167.519 172.905H154.94ZM165.253 171.077C165.013 169.483 164.435 168.296 163.519 167.514C162.602 166.733 161.472 166.343 160.128 166.343C159.44 166.343 158.805 166.457 158.222 166.686C157.638 166.905 157.123 167.223 156.675 167.639C156.227 168.056 155.852 168.561 155.55 169.155C155.248 169.738 155.055 170.379 154.972 171.077H165.253ZM184.065 179.436H181.909V172.905H173.175V179.436H171.034V164.874H173.175V171.077H181.909V164.874H184.065V179.436ZM188.503 164.874H190.644V176.624L198.519 164.874H201.534V179.436H199.378V167.155L191.159 179.436H188.503V164.874ZM219.769 172.171C219.769 173.306 219.591 174.337 219.237 175.264C218.883 176.191 218.383 176.994 217.737 177.671C217.102 178.337 216.331 178.858 215.425 179.233C214.519 179.608 213.503 179.796 212.378 179.796C211.607 179.796 210.857 179.655 210.128 179.374C209.409 179.093 208.737 178.676 208.112 178.124V185.264H205.972V164.874H208.112V166.218C209.435 165.093 210.857 164.53 212.378 164.53C213.503 164.53 214.519 164.718 215.425 165.093C216.331 165.457 217.102 165.983 217.737 166.671C218.383 167.348 218.883 168.16 219.237 169.108C219.591 170.046 219.769 171.066 219.769 172.171ZM217.628 172.171C217.628 171.358 217.513 170.598 217.284 169.889C217.065 169.171 216.732 168.551 216.284 168.03C215.836 167.509 215.284 167.098 214.628 166.796C213.982 166.494 213.232 166.343 212.378 166.343C211.565 166.343 210.805 166.494 210.097 166.796C209.399 167.098 208.737 167.587 208.112 168.264V176.077C208.737 176.754 209.399 177.238 210.097 177.53C210.805 177.822 211.565 177.968 212.378 177.968C213.232 177.968 213.982 177.816 214.628 177.514C215.284 177.212 215.836 176.801 216.284 176.28C216.732 175.759 217.065 175.15 217.284 174.452C217.513 173.744 217.628 172.983 217.628 172.171ZM237.69 164.874L229.815 183.124C229.409 184.145 228.836 184.811 228.097 185.124C227.357 185.447 226.539 185.608 225.644 185.608C224.644 185.608 223.644 185.426 222.644 185.061L223.065 183.218C223.555 183.426 224.034 183.572 224.503 183.655C224.972 183.749 225.352 183.796 225.644 183.796C226.352 183.796 226.836 183.624 227.097 183.28C227.368 182.936 227.602 182.53 227.8 182.061L228.69 179.858L222.19 164.874H224.722L229.972 177.608L235.128 164.874H237.69ZM240.909 164.874H243.05V176.624L250.925 164.874H253.94V179.436H251.784V167.155L243.565 179.436H240.909V164.874ZM251.894 160.53C250.675 161.738 249.19 162.343 247.44 162.343C245.69 162.343 244.206 161.738 242.987 160.53L244.206 159.343C245.185 160.322 246.263 160.811 247.44 160.811C248.618 160.811 249.696 160.322 250.675 159.343L251.894 160.53ZM271.628 176.686C271.013 177.645 270.17 178.405 269.097 178.968C268.034 179.52 266.769 179.796 265.3 179.796C264.164 179.796 263.123 179.608 262.175 179.233C261.227 178.858 260.414 178.337 259.737 177.671C259.071 176.994 258.55 176.191 258.175 175.264C257.8 174.337 257.612 173.306 257.612 172.171C257.612 171.066 257.784 170.046 258.128 169.108C258.472 168.16 258.961 167.353 259.597 166.686C260.232 166.009 261.008 165.483 261.925 165.108C262.852 164.723 263.878 164.53 265.003 164.53C265.451 164.53 265.909 164.582 266.378 164.686C266.847 164.79 267.289 164.952 267.706 165.171C268.123 165.379 268.498 165.634 268.831 165.936C269.164 166.228 269.414 166.577 269.581 166.983V164.874H271.503V170.702H269.581C269.581 170.056 269.461 169.468 269.222 168.936C268.993 168.405 268.675 167.947 268.269 167.561C267.862 167.176 267.378 166.879 266.815 166.671C266.253 166.452 265.649 166.343 265.003 166.343C264.128 166.343 263.362 166.494 262.706 166.796C262.06 167.098 261.519 167.509 261.081 168.03C260.644 168.551 260.31 169.165 260.081 169.874C259.862 170.572 259.753 171.337 259.753 172.171C259.753 173.004 259.878 173.775 260.128 174.483C260.388 175.181 260.758 175.785 261.237 176.296C261.727 176.806 262.31 177.212 262.987 177.514C263.675 177.816 264.446 177.968 265.3 177.968C266.383 177.968 267.347 177.759 268.19 177.343C269.034 176.926 269.68 176.363 270.128 175.655L271.628 176.686ZM280.487 173.608C278.758 173.525 277.43 173.139 276.503 172.452C275.576 171.754 275.112 170.691 275.112 169.264C275.112 167.744 275.628 166.634 276.659 165.936C277.701 165.228 279.19 164.874 281.128 164.874H288.878V179.436H286.722V173.608H283.237L277.925 179.436H274.894L280.487 173.608ZM277.253 169.264C277.253 170.077 277.597 170.702 278.284 171.139C278.982 171.577 279.94 171.796 281.159 171.796H286.722V166.702H281.159C279.94 166.702 278.982 166.926 278.284 167.374C277.597 167.822 277.253 168.452 277.253 169.264ZM131.659 211.436H128.425V205.421H121.862V211.436H118.628V196.874H121.862V202.514H128.425V196.874H131.659V211.436ZM135.269 207.249C135.269 206.395 135.498 205.65 135.956 205.014C136.414 204.369 137.013 203.832 137.753 203.405C138.503 202.978 139.357 202.66 140.315 202.452C141.284 202.233 142.269 202.124 143.269 202.124C143.821 202.124 144.295 202.134 144.69 202.155C145.086 202.176 145.487 202.207 145.894 202.249V201.671C145.894 200.91 145.597 200.343 145.003 199.968C144.42 199.593 143.649 199.405 142.69 199.405C141.815 199.405 140.925 199.53 140.019 199.78C139.112 200.02 138.253 200.374 137.44 200.843L136.128 198.311C137.086 197.759 138.112 197.327 139.206 197.014C140.31 196.691 141.472 196.53 142.69 196.53C143.482 196.53 144.258 196.619 145.019 196.796C145.789 196.973 146.477 197.264 147.081 197.671C147.696 198.077 148.185 198.608 148.55 199.264C148.914 199.91 149.097 200.712 149.097 201.671V211.436H145.894V209.296C145.383 210.087 144.628 210.702 143.628 211.139C142.638 211.577 141.571 211.796 140.425 211.796C139.716 211.796 139.045 211.697 138.409 211.499C137.784 211.311 137.243 211.025 136.784 210.639C136.326 210.254 135.956 209.78 135.675 209.218C135.404 208.645 135.269 207.988 135.269 207.249ZM141.253 208.905C141.888 208.905 142.482 208.827 143.034 208.671C143.597 208.504 144.091 208.28 144.519 207.999C144.946 207.707 145.279 207.358 145.519 206.952C145.769 206.546 145.894 206.098 145.894 205.608V205.061C145.383 204.978 144.904 204.931 144.456 204.921C144.008 204.91 143.612 204.905 143.269 204.905C141.685 204.905 140.487 205.113 139.675 205.53C138.873 205.947 138.472 206.462 138.472 207.077C138.472 208.296 139.399 208.905 141.253 208.905ZM184.065 211.436H180.831V199.796H174.269V211.436H171.034V196.874H184.065V211.436ZM188.503 196.874H191.737V198.186C192.352 197.634 192.972 197.223 193.597 196.952C194.232 196.671 194.956 196.53 195.769 196.53C196.706 196.53 197.576 196.723 198.378 197.108C199.18 197.483 199.868 198.009 200.44 198.686C201.013 199.353 201.466 200.16 201.8 201.108C202.133 202.046 202.3 203.066 202.3 204.171C202.3 205.285 202.133 206.311 201.8 207.249C201.466 208.186 201.013 208.994 200.44 209.671C199.868 210.337 199.18 210.858 198.378 211.233C197.576 211.608 196.706 211.796 195.769 211.796C194.956 211.796 194.232 211.65 193.597 211.358C192.972 211.066 192.352 210.645 191.737 210.093V217.264H188.503V196.874ZM191.737 207.53C192.123 207.957 192.612 208.29 193.206 208.53C193.81 208.759 194.388 208.874 194.94 208.874C196.159 208.874 197.149 208.441 197.909 207.577C198.68 206.712 199.065 205.577 199.065 204.171C199.065 202.764 198.68 201.624 197.909 200.749C197.149 199.874 196.159 199.436 194.94 199.436C194.388 199.436 193.81 199.551 193.206 199.78C192.612 199.999 192.123 200.322 191.737 200.749V207.53ZM220.144 204.171C220.144 205.306 219.961 206.337 219.597 207.264C219.243 208.191 218.727 208.994 218.05 209.671C217.383 210.337 216.581 210.858 215.644 211.233C214.706 211.608 213.659 211.796 212.503 211.796C211.368 211.796 210.331 211.608 209.394 211.233C208.456 210.858 207.649 210.337 206.972 209.671C206.305 208.994 205.789 208.191 205.425 207.264C205.071 206.337 204.894 205.306 204.894 204.171C204.894 203.066 205.071 202.046 205.425 201.108C205.789 200.16 206.305 199.348 206.972 198.671C207.649 197.983 208.456 197.457 209.394 197.093C210.331 196.718 211.368 196.53 212.503 196.53C213.659 196.53 214.706 196.718 215.644 197.093C216.581 197.457 217.383 197.983 218.05 198.671C218.727 199.348 219.243 200.16 219.597 201.108C219.961 202.046 220.144 203.066 220.144 204.171ZM216.925 204.171C216.925 203.514 216.821 202.895 216.612 202.311C216.414 201.718 216.123 201.212 215.737 200.796C215.352 200.379 214.883 200.051 214.331 199.811C213.789 199.561 213.18 199.436 212.503 199.436C211.815 199.436 211.201 199.561 210.659 199.811C210.118 200.051 209.659 200.379 209.284 200.796C208.909 201.212 208.618 201.718 208.409 202.311C208.211 202.895 208.112 203.514 208.112 204.171C208.112 204.858 208.211 205.483 208.409 206.046C208.618 206.608 208.909 207.103 209.284 207.53C209.659 207.957 210.118 208.29 210.659 208.53C211.201 208.759 211.815 208.874 212.503 208.874C213.18 208.874 213.789 208.759 214.331 208.53C214.883 208.29 215.352 207.957 215.737 207.53C216.123 207.103 216.414 206.608 216.612 206.046C216.821 205.483 216.925 204.858 216.925 204.171ZM225.644 205.389C225.8 206.389 226.274 207.223 227.065 207.889C227.868 208.546 228.94 208.874 230.284 208.874C231.336 208.874 232.248 208.712 233.019 208.389C233.8 208.056 234.472 207.619 235.034 207.077L236.69 209.358C235.753 210.296 234.758 210.936 233.706 211.28C232.664 211.624 231.524 211.796 230.284 211.796C229.159 211.796 228.112 211.608 227.144 211.233C226.175 210.858 225.336 210.337 224.628 209.671C223.92 208.994 223.362 208.191 222.956 207.264C222.56 206.337 222.362 205.306 222.362 204.171C222.362 203.066 222.545 202.051 222.909 201.124C223.284 200.186 223.805 199.379 224.472 198.702C225.149 198.014 225.956 197.483 226.894 197.108C227.831 196.723 228.868 196.53 230.003 196.53C231.18 196.53 232.248 196.733 233.206 197.139C234.164 197.535 234.982 198.113 235.659 198.874C236.347 199.634 236.883 200.566 237.269 201.671C237.654 202.764 237.847 204.004 237.847 205.389H225.644ZM234.19 202.546C234.024 201.608 233.539 200.858 232.737 200.296C231.935 199.723 231.024 199.436 230.003 199.436C228.982 199.436 228.065 199.723 227.253 200.296C226.44 200.858 225.951 201.608 225.784 202.546H234.19ZM254.675 211.436H250.487L245.612 205.546L244.144 207.046V211.436H240.909V196.874H244.144V203.046L249.972 196.874H254.409L247.69 203.561L254.675 211.436ZM272.144 204.296H269.253V199.796H266.503V208.53H269.737V211.436H260.05V208.53H263.269V199.796H260.487V204.296H257.612V196.874H272.144V204.296ZM275.019 207.249C275.019 206.395 275.248 205.65 275.706 205.014C276.164 204.369 276.763 203.832 277.503 203.405C278.253 202.978 279.107 202.66 280.065 202.452C281.034 202.233 282.019 202.124 283.019 202.124C283.571 202.124 284.045 202.134 284.44 202.155C284.836 202.176 285.237 202.207 285.644 202.249V201.671C285.644 200.91 285.347 200.343 284.753 199.968C284.17 199.593 283.399 199.405 282.44 199.405C281.565 199.405 280.675 199.53 279.769 199.78C278.862 200.02 278.003 200.374 277.19 200.843L275.878 198.311C276.836 197.759 277.862 197.327 278.956 197.014C280.06 196.691 281.222 196.53 282.44 196.53C283.232 196.53 284.008 196.619 284.769 196.796C285.539 196.973 286.227 197.264 286.831 197.671C287.446 198.077 287.935 198.608 288.3 199.264C288.664 199.91 288.847 200.712 288.847 201.671V211.436H285.644V209.296C285.133 210.087 284.378 210.702 283.378 211.139C282.388 211.577 281.321 211.796 280.175 211.796C279.466 211.796 278.795 211.697 278.159 211.499C277.534 211.311 276.993 211.025 276.534 210.639C276.076 210.254 275.706 209.78 275.425 209.218C275.154 208.645 275.019 207.988 275.019 207.249ZM281.003 208.905C281.638 208.905 282.232 208.827 282.784 208.671C283.347 208.504 283.841 208.28 284.269 207.999C284.696 207.707 285.029 207.358 285.269 206.952C285.519 206.546 285.644 206.098 285.644 205.608V205.061C285.133 204.978 284.654 204.931 284.206 204.921C283.758 204.91 283.362 204.905 283.019 204.905C281.435 204.905 280.237 205.113 279.425 205.53C278.623 205.947 278.222 206.462 278.222 207.077C278.222 208.296 279.149 208.905 281.003 208.905ZM307.456 211.436H300.55V208.53H301.831L299.847 205.483L297.894 208.53H299.081V211.436H292.237V208.53H294.347L297.612 204.046L294.503 199.796H292.55V196.874H299.112V199.796H298.081L299.847 202.608L301.644 199.796H300.487V196.874H307.112V199.796H305.222L302.112 204.046L305.378 208.53H307.456V211.436ZM118.628 228.874H120.769V240.624L128.644 228.874H131.659V243.436H129.503V231.155L121.284 243.436H118.628V228.874ZM167.737 236.202C167.737 237.337 167.555 238.369 167.19 239.296C166.836 240.223 166.321 241.02 165.644 241.686C164.977 242.343 164.175 242.858 163.237 243.233C162.3 243.608 161.253 243.796 160.097 243.796C158.961 243.796 157.925 243.608 156.987 243.233C156.05 242.858 155.243 242.343 154.565 241.686C153.899 241.02 153.383 240.223 153.019 239.296C152.664 238.369 152.487 237.337 152.487 236.202C152.487 235.098 152.664 234.072 153.019 233.124C153.383 232.165 153.899 231.353 154.565 230.686C155.243 230.009 156.05 229.483 156.987 229.108C157.925 228.723 158.961 228.53 160.097 228.53C161.253 228.53 162.3 228.723 163.237 229.108C164.175 229.483 164.977 230.009 165.644 230.686C166.321 231.353 166.836 232.165 167.19 233.124C167.555 234.072 167.737 235.098 167.737 236.202ZM165.597 236.202C165.597 235.369 165.472 234.603 165.222 233.905C164.982 233.197 164.623 232.577 164.144 232.046C163.664 231.514 163.081 231.098 162.394 230.796C161.716 230.494 160.951 230.343 160.097 230.343C159.243 230.343 158.472 230.494 157.784 230.796C157.107 231.098 156.534 231.514 156.065 232.046C155.597 232.577 155.237 233.197 154.987 233.905C154.748 234.603 154.628 235.369 154.628 236.202C154.628 237.035 154.748 237.806 154.987 238.514C155.237 239.212 155.597 239.816 156.065 240.327C156.534 240.837 157.107 241.238 157.784 241.53C158.472 241.822 159.243 241.968 160.097 241.968C160.951 241.968 161.716 241.822 162.394 241.53C163.081 241.238 163.664 240.837 164.144 240.327C164.623 239.816 164.982 239.212 165.222 238.514C165.472 237.806 165.597 237.035 165.597 236.202ZM184.831 235.749H183.003V230.702H178.628V241.608H181.909V243.436H173.175V241.608H176.472V230.702H172.097V235.749H170.269V228.874H184.831V235.749ZM202.3 235.749H200.472V230.702H196.097V241.608H199.378V243.436H190.644V241.608H193.94V230.702H189.565V235.749H187.737V228.874H202.3V235.749ZM205.175 239.499C205.175 238.582 205.404 237.816 205.862 237.202C206.321 236.577 206.92 236.087 207.659 235.733C208.409 235.369 209.263 235.108 210.222 234.952C211.19 234.785 212.175 234.702 213.175 234.702C213.56 234.702 213.904 234.707 214.206 234.718C214.519 234.728 214.81 234.744 215.081 234.764C215.362 234.785 215.644 234.811 215.925 234.843C216.206 234.874 216.513 234.91 216.847 234.952V233.905C216.847 233.197 216.69 232.613 216.378 232.155C216.076 231.697 215.701 231.337 215.253 231.077C214.805 230.806 214.336 230.619 213.847 230.514C213.357 230.4 212.94 230.343 212.597 230.343C211.513 230.343 210.513 230.488 209.597 230.78C208.68 231.072 207.826 231.462 207.034 231.952L206.065 230.343C206.94 229.811 207.92 229.379 209.003 229.046C210.097 228.702 211.295 228.53 212.597 228.53C213.388 228.53 214.164 228.634 214.925 228.843C215.696 229.04 216.383 229.353 216.987 229.78C217.602 230.197 218.091 230.749 218.456 231.436C218.821 232.124 219.003 232.947 219.003 233.905V243.436H216.847V240.999C216.472 241.468 216.045 241.879 215.565 242.233C215.097 242.587 214.602 242.879 214.081 243.108C213.56 243.327 213.039 243.494 212.519 243.608C211.998 243.733 211.503 243.796 211.034 243.796C209.107 243.796 207.649 243.426 206.659 242.686C205.67 241.947 205.175 240.884 205.175 239.499ZM211.034 241.968C211.93 241.968 212.732 241.837 213.44 241.577C214.159 241.306 214.769 240.973 215.269 240.577C215.769 240.181 216.154 239.759 216.425 239.311C216.706 238.863 216.847 238.457 216.847 238.093V236.718C216.149 236.613 215.477 236.556 214.831 236.546C214.196 236.535 213.644 236.53 213.175 236.53C212.404 236.53 211.659 236.582 210.94 236.686C210.232 236.79 209.612 236.962 209.081 237.202C208.55 237.431 208.123 237.733 207.8 238.108C207.477 238.483 207.315 238.947 207.315 239.499C207.315 240.113 207.612 240.681 208.206 241.202C208.81 241.712 209.753 241.968 211.034 241.968ZM223.44 228.874H225.581V233.514C225.581 234.816 225.862 235.827 226.425 236.546C226.998 237.254 227.914 237.608 229.175 237.608C229.966 237.608 230.68 237.431 231.315 237.077C231.951 236.712 232.493 236.228 232.94 235.624C233.388 235.009 233.727 234.306 233.956 233.514C234.196 232.723 234.315 231.9 234.315 231.046V228.874H236.472V243.436H234.315V235.436C233.295 238.103 231.461 239.436 228.815 239.436C225.232 239.436 223.44 237.462 223.44 233.514V228.874ZM240.909 228.874H243.05V240.624L250.925 228.874H253.94V243.436H251.784V231.155L243.565 243.436H240.909V228.874ZM272.144 239.28C272.144 240.686 271.623 241.733 270.581 242.421C269.55 243.098 268.065 243.436 266.128 243.436H258.378V228.874H265.644C266.352 228.874 267.05 228.931 267.737 229.046C268.435 229.15 269.055 229.343 269.597 229.624C270.138 229.895 270.581 230.275 270.925 230.764C271.269 231.254 271.44 231.895 271.44 232.686C271.44 233.436 271.258 234.066 270.894 234.577C270.529 235.087 269.815 235.478 268.753 235.749C270.055 236.051 270.946 236.499 271.425 237.093C271.904 237.676 272.144 238.405 272.144 239.28ZM269.3 232.811C269.3 232.363 269.18 232.004 268.94 231.733C268.701 231.452 268.404 231.238 268.05 231.093C267.706 230.936 267.321 230.832 266.894 230.78C266.466 230.728 266.05 230.702 265.644 230.702H260.519V234.889H265.644C266.071 234.889 266.503 234.863 266.94 234.811C267.378 234.759 267.774 234.655 268.128 234.499C268.482 234.332 268.763 234.119 268.972 233.858C269.19 233.587 269.3 233.238 269.3 232.811ZM270.003 239.186C270.003 238.332 269.654 237.707 268.956 237.311C268.258 236.915 267.305 236.718 266.097 236.718H260.519V241.608H266.097C267.305 241.608 268.258 241.405 268.956 240.999C269.654 240.593 270.003 239.988 270.003 239.186ZM275.05 239.499C275.05 238.582 275.279 237.816 275.737 237.202C276.196 236.577 276.795 236.087 277.534 235.733C278.284 235.369 279.138 235.108 280.097 234.952C281.065 234.785 282.05 234.702 283.05 234.702C283.435 234.702 283.779 234.707 284.081 234.718C284.394 234.728 284.685 234.744 284.956 234.764C285.237 234.785 285.519 234.811 285.8 234.843C286.081 234.874 286.388 234.91 286.722 234.952V233.905C286.722 233.197 286.565 232.613 286.253 232.155C285.951 231.697 285.576 231.337 285.128 231.077C284.68 230.806 284.211 230.619 283.722 230.514C283.232 230.4 282.815 230.343 282.472 230.343C281.388 230.343 280.388 230.488 279.472 230.78C278.555 231.072 277.701 231.462 276.909 231.952L275.94 230.343C276.815 229.811 277.795 229.379 278.878 229.046C279.972 228.702 281.17 228.53 282.472 228.53C283.263 228.53 284.039 228.634 284.8 228.843C285.571 229.04 286.258 229.353 286.862 229.78C287.477 230.197 287.966 230.749 288.331 231.436C288.696 232.124 288.878 232.947 288.878 233.905V243.436H286.722V240.999C286.347 241.468 285.92 241.879 285.44 242.233C284.972 242.587 284.477 242.879 283.956 243.108C283.435 243.327 282.914 243.494 282.394 243.608C281.873 243.733 281.378 243.796 280.909 243.796C278.982 243.796 277.524 243.426 276.534 242.686C275.545 241.947 275.05 240.884 275.05 239.499ZM280.909 241.968C281.805 241.968 282.607 241.837 283.315 241.577C284.034 241.306 284.644 240.973 285.144 240.577C285.644 240.181 286.029 239.759 286.3 239.311C286.581 238.863 286.722 238.457 286.722 238.093V236.718C286.024 236.613 285.352 236.556 284.706 236.546C284.071 236.535 283.519 236.53 283.05 236.53C282.279 236.53 281.534 236.582 280.815 236.686C280.107 236.79 279.487 236.962 278.956 237.202C278.425 237.431 277.998 237.733 277.675 238.108C277.352 238.483 277.19 238.947 277.19 239.499C277.19 240.113 277.487 240.681 278.081 241.202C278.685 241.712 279.628 241.968 280.909 241.968ZM293.315 228.874H295.456V240.624L303.331 228.874H306.347V243.436H304.19V231.155L295.972 243.436H293.315V228.874ZM304.3 224.53C303.081 225.738 301.597 226.343 299.847 226.343C298.097 226.343 296.612 225.738 295.394 224.53L296.612 223.343C297.591 224.322 298.67 224.811 299.847 224.811C301.024 224.811 302.102 224.322 303.081 223.343L304.3 224.53ZM341.284 232.874C341.284 233.582 341.034 234.249 340.534 234.874C340.045 235.488 339.289 235.879 338.269 236.046C339.227 236.233 339.998 236.639 340.581 237.264C341.175 237.879 341.472 238.561 341.472 239.311C341.472 240.009 341.284 240.639 340.909 241.202C340.534 241.754 340.019 242.223 339.362 242.608C338.716 242.994 337.951 243.285 337.065 243.483C336.18 243.691 335.216 243.796 334.175 243.796C332.508 243.796 331.133 243.54 330.05 243.03C328.977 242.509 328.112 241.728 327.456 240.686L328.956 239.655C329.446 240.405 330.118 240.978 330.972 241.374C331.826 241.77 332.894 241.968 334.175 241.968C335.706 241.968 336.946 241.733 337.894 241.264C338.852 240.796 339.331 240.145 339.331 239.311C339.331 239.03 339.237 238.749 339.05 238.468C338.873 238.176 338.607 237.921 338.253 237.702C337.899 237.473 337.461 237.29 336.94 237.155C336.42 237.009 335.805 236.936 335.097 236.936H332.659V235.124H335.097C336.461 235.124 337.472 234.884 338.128 234.405C338.795 233.915 339.128 233.405 339.128 232.874C339.128 232.103 338.701 231.488 337.847 231.03C337.003 230.572 335.841 230.343 334.362 230.343C333.133 230.343 332.118 230.561 331.315 230.999C330.513 231.436 329.899 232.02 329.472 232.749L327.878 231.655C328.513 230.613 329.352 229.832 330.394 229.311C331.446 228.79 332.769 228.53 334.362 228.53C335.373 228.53 336.295 228.634 337.128 228.843C337.972 229.04 338.701 229.327 339.315 229.702C339.94 230.066 340.425 230.525 340.769 231.077C341.112 231.619 341.284 232.218 341.284 232.874ZM358.753 243.436H356.597V236.905H347.862V243.436H345.722V228.874H347.862V235.077H356.597V228.874H358.753V243.436ZM362.394 239.499C362.394 238.582 362.623 237.816 363.081 237.202C363.539 236.577 364.138 236.087 364.878 235.733C365.628 235.369 366.482 235.108 367.44 234.952C368.409 234.785 369.394 234.702 370.394 234.702C370.779 234.702 371.123 234.707 371.425 234.718C371.737 234.728 372.029 234.744 372.3 234.764C372.581 234.785 372.862 234.811 373.144 234.843C373.425 234.874 373.732 234.91 374.065 234.952V233.905C374.065 233.197 373.909 232.613 373.597 232.155C373.295 231.697 372.92 231.337 372.472 231.077C372.024 230.806 371.555 230.619 371.065 230.514C370.576 230.4 370.159 230.343 369.815 230.343C368.732 230.343 367.732 230.488 366.815 230.78C365.899 231.072 365.045 231.462 364.253 231.952L363.284 230.343C364.159 229.811 365.138 229.379 366.222 229.046C367.315 228.702 368.513 228.53 369.815 228.53C370.607 228.53 371.383 228.634 372.144 228.843C372.914 229.04 373.602 229.353 374.206 229.78C374.821 230.197 375.31 230.749 375.675 231.436C376.039 232.124 376.222 232.947 376.222 233.905V243.436H374.065V240.999C373.69 241.468 373.263 241.879 372.784 242.233C372.315 242.587 371.821 242.879 371.3 243.108C370.779 243.327 370.258 243.494 369.737 243.608C369.216 243.733 368.722 243.796 368.253 243.796C366.326 243.796 364.868 243.426 363.878 242.686C362.888 241.947 362.394 240.884 362.394 239.499ZM368.253 241.968C369.149 241.968 369.951 241.837 370.659 241.577C371.378 241.306 371.987 240.973 372.487 240.577C372.987 240.181 373.373 239.759 373.644 239.311C373.925 238.863 374.065 238.457 374.065 238.093V236.718C373.368 236.613 372.696 236.556 372.05 236.546C371.414 236.535 370.862 236.53 370.394 236.53C369.623 236.53 368.878 236.582 368.159 236.686C367.451 236.79 366.831 236.962 366.3 237.202C365.769 237.431 365.341 237.733 365.019 238.108C364.696 238.483 364.534 238.947 364.534 239.499C364.534 240.113 364.831 240.681 365.425 241.202C366.029 241.712 366.972 241.968 368.253 241.968ZM393.69 243.436H391.534V236.905H382.8V243.436H380.659V228.874H382.8V235.077H391.534V228.874H393.69V243.436ZM398.128 228.874H400.269V240.624L408.144 228.874H411.159V243.436H409.003V231.155L400.784 243.436H398.128V228.874ZM420.237 237.608C418.508 237.525 417.18 237.139 416.253 236.452C415.326 235.754 414.862 234.691 414.862 233.264C414.862 231.744 415.378 230.634 416.409 229.936C417.451 229.228 418.94 228.874 420.878 228.874H428.628V243.436H426.472V237.608H422.987L417.675 243.436H414.644L420.237 237.608ZM417.003 233.264C417.003 234.077 417.347 234.702 418.034 235.139C418.732 235.577 419.69 235.796 420.909 235.796H426.472V230.702H420.909C419.69 230.702 418.732 230.926 418.034 231.374C417.347 231.822 417.003 232.452 417.003 233.264ZM123.519 264.264C123.352 263.879 123.164 263.619 122.956 263.483C122.758 263.348 122.545 263.28 122.315 263.28C122.076 263.28 121.847 263.358 121.628 263.514C121.42 263.671 121.243 263.936 121.097 264.311C120.951 264.686 120.831 265.191 120.737 265.827C120.654 266.452 120.612 267.223 120.612 268.139C120.612 269.077 120.654 269.858 120.737 270.483C120.831 271.098 120.951 271.598 121.097 271.983C121.243 272.369 121.42 272.639 121.628 272.796C121.847 272.952 122.076 273.03 122.315 273.03C122.545 273.03 122.758 272.962 122.956 272.827C123.164 272.691 123.352 272.431 123.519 272.046V264.264ZM123.519 281.264V274.452C123.352 274.9 123.076 275.233 122.69 275.452C122.305 275.681 121.899 275.796 121.472 275.796C120.899 275.796 120.368 275.634 119.878 275.311C119.388 274.988 118.956 274.509 118.581 273.874C118.206 273.228 117.914 272.431 117.706 271.483C117.487 270.535 117.378 269.421 117.378 268.139C117.378 266.858 117.487 265.744 117.706 264.796C117.914 263.848 118.206 263.061 118.581 262.436C118.956 261.801 119.388 261.327 119.878 261.014C120.368 260.691 120.899 260.53 121.472 260.53C121.899 260.53 122.305 260.645 122.69 260.874C123.076 261.093 123.352 261.426 123.519 261.874V255.046H126.753V261.874C126.93 261.426 127.206 261.093 127.581 260.874C127.966 260.645 128.373 260.53 128.8 260.53C129.383 260.53 129.92 260.691 130.409 261.014C130.899 261.327 131.331 261.801 131.706 262.436C132.081 263.061 132.373 263.848 132.581 264.796C132.8 265.744 132.909 266.858 132.909 268.139C132.909 269.421 132.8 270.535 132.581 271.483C132.373 272.431 132.081 273.228 131.706 273.874C131.331 274.509 130.899 274.988 130.409 275.311C129.92 275.634 129.383 275.796 128.8 275.796C128.373 275.796 127.966 275.681 127.581 275.452C127.206 275.233 126.93 274.9 126.753 274.452V281.264H123.519ZM126.753 272.046C126.93 272.431 127.118 272.691 127.315 272.827C127.524 272.962 127.743 273.03 127.972 273.03C128.211 273.03 128.435 272.952 128.644 272.796C128.862 272.639 129.045 272.369 129.19 271.983C129.336 271.598 129.451 271.098 129.534 270.483C129.628 269.858 129.675 269.077 129.675 268.139C129.675 267.223 129.628 266.452 129.534 265.827C129.451 265.191 129.336 264.686 129.19 264.311C129.045 263.936 128.862 263.671 128.644 263.514C128.435 263.358 128.211 263.28 127.972 263.28C127.743 263.28 127.524 263.348 127.315 263.483C127.118 263.619 126.93 263.879 126.753 264.264V272.046ZM136.097 260.874H139.331V270.889L145.065 260.874H149.128V275.436H145.894V264.843L139.847 275.436H136.097V260.874ZM152.8 272.53C153.394 272.207 153.878 271.837 154.253 271.421C154.628 271.004 154.92 270.478 155.128 269.843C155.347 269.197 155.498 268.415 155.581 267.499C155.664 266.582 155.706 265.483 155.706 264.202V260.874H164.987V272.53H167.362V280.421H164.44V275.436H155.706V280.421H152.8V272.53ZM158.94 264.843C158.94 265.436 158.92 266.108 158.878 266.858C158.836 267.608 158.732 268.348 158.565 269.077C158.409 269.796 158.164 270.468 157.831 271.093C157.508 271.707 157.045 272.186 156.44 272.53H161.753V263.593H158.94V264.843ZM173.69 268.499C173.69 269.822 174.039 270.884 174.737 271.686C175.446 272.478 176.409 272.874 177.628 272.874C178.784 272.874 179.732 272.478 180.472 271.686C181.222 270.884 181.597 269.822 181.597 268.499C181.597 267.155 181.243 266.087 180.534 265.296C179.836 264.504 178.868 264.108 177.628 264.108C176.305 264.108 175.315 264.504 174.659 265.296C174.013 266.087 173.69 267.155 173.69 268.499ZM170.269 265.264C170.269 263.702 170.43 262.275 170.753 260.983C171.086 259.691 171.55 258.582 172.144 257.655C172.748 256.728 173.461 256.004 174.284 255.483C175.107 254.962 176.019 254.702 177.019 254.702C177.508 254.702 177.914 254.749 178.237 254.843C178.56 254.936 178.847 255.051 179.097 255.186C179.357 255.311 179.597 255.421 179.815 255.514C180.045 255.608 180.321 255.655 180.644 255.655C181.071 255.655 181.43 255.582 181.722 255.436C182.024 255.29 182.388 255.046 182.815 254.702L184.284 256.843C183.899 257.311 183.378 257.718 182.722 258.061C182.076 258.405 181.383 258.577 180.644 258.577C180.144 258.577 179.743 258.53 179.44 258.436C179.149 258.332 178.878 258.218 178.628 258.093C178.388 257.968 178.149 257.858 177.909 257.764C177.68 257.66 177.383 257.608 177.019 257.608C176.529 257.608 176.076 257.733 175.659 257.983C175.243 258.223 174.873 258.608 174.55 259.139C174.237 259.66 173.987 260.332 173.8 261.155C173.623 261.968 173.534 262.962 173.534 264.139C173.94 263.181 174.508 262.452 175.237 261.952C175.977 261.452 176.784 261.202 177.659 261.202C178.68 261.202 179.628 261.358 180.503 261.671C181.378 261.973 182.133 262.431 182.769 263.046C183.414 263.65 183.92 264.405 184.284 265.311C184.649 266.218 184.831 267.28 184.831 268.499C184.831 269.52 184.649 270.478 184.284 271.374C183.92 272.27 183.414 273.046 182.769 273.702C182.133 274.348 181.378 274.858 180.503 275.233C179.628 275.608 178.68 275.796 177.659 275.796C175.211 275.796 173.368 274.941 172.128 273.233C170.888 271.525 170.269 268.869 170.269 265.264ZM190.706 269.389C190.862 270.389 191.336 271.223 192.128 271.889C192.93 272.546 194.003 272.874 195.347 272.874C196.399 272.874 197.31 272.712 198.081 272.389C198.862 272.056 199.534 271.619 200.097 271.077L201.753 273.358C200.815 274.296 199.821 274.936 198.769 275.28C197.727 275.624 196.586 275.796 195.347 275.796C194.222 275.796 193.175 275.608 192.206 275.233C191.237 274.858 190.399 274.337 189.69 273.671C188.982 272.994 188.425 272.191 188.019 271.264C187.623 270.337 187.425 269.306 187.425 268.171C187.425 267.066 187.607 266.051 187.972 265.124C188.347 264.186 188.868 263.379 189.534 262.702C190.211 262.014 191.019 261.483 191.956 261.108C192.894 260.723 193.93 260.53 195.065 260.53C196.243 260.53 197.31 260.733 198.269 261.139C199.227 261.535 200.045 262.113 200.722 262.874C201.409 263.634 201.946 264.566 202.331 265.671C202.716 266.764 202.909 268.004 202.909 269.389H190.706ZM199.253 266.546C199.086 265.608 198.602 264.858 197.8 264.296C196.998 263.723 196.086 263.436 195.065 263.436C194.045 263.436 193.128 263.723 192.315 264.296C191.503 264.858 191.013 265.608 190.847 266.546H199.253ZM219.737 275.436H215.55L210.675 269.546L209.206 271.046V275.436H205.972V260.874H209.206V267.046L215.034 260.874H219.472L212.753 267.561L219.737 275.436ZM237.612 268.171C237.612 269.306 237.43 270.337 237.065 271.264C236.711 272.191 236.196 272.994 235.519 273.671C234.852 274.337 234.05 274.858 233.112 275.233C232.175 275.608 231.128 275.796 229.972 275.796C228.836 275.796 227.8 275.608 226.862 275.233C225.925 274.858 225.118 274.337 224.44 273.671C223.774 272.994 223.258 272.191 222.894 271.264C222.539 270.337 222.362 269.306 222.362 268.171C222.362 267.066 222.539 266.046 222.894 265.108C223.258 264.16 223.774 263.348 224.44 262.671C225.118 261.983 225.925 261.457 226.862 261.093C227.8 260.718 228.836 260.53 229.972 260.53C231.128 260.53 232.175 260.718 233.112 261.093C234.05 261.457 234.852 261.983 235.519 262.671C236.196 263.348 236.711 264.16 237.065 265.108C237.43 266.046 237.612 267.066 237.612 268.171ZM234.394 268.171C234.394 267.514 234.289 266.895 234.081 266.311C233.883 265.718 233.591 265.212 233.206 264.796C232.821 264.379 232.352 264.051 231.8 263.811C231.258 263.561 230.649 263.436 229.972 263.436C229.284 263.436 228.67 263.561 228.128 263.811C227.586 264.051 227.128 264.379 226.753 264.796C226.378 265.212 226.086 265.718 225.878 266.311C225.68 266.895 225.581 267.514 225.581 268.171C225.581 268.858 225.68 269.483 225.878 270.046C226.086 270.608 226.378 271.103 226.753 271.53C227.128 271.957 227.586 272.29 228.128 272.53C228.67 272.759 229.284 272.874 229.972 272.874C230.649 272.874 231.258 272.759 231.8 272.53C232.352 272.29 232.821 271.957 233.206 271.53C233.591 271.103 233.883 270.608 234.081 270.046C234.289 269.483 234.394 268.858 234.394 268.171ZM253.94 275.436H250.706V265.577L248.659 270.827H246.159L244.144 265.577V275.436H240.909V260.874H244.753L247.409 267.468L250.065 260.874H253.94V275.436ZM288.878 275.436H285.644V265.577L283.597 270.827H281.097L279.081 265.577V275.436H275.847V260.874H279.69L282.347 267.468L285.003 260.874H288.878V275.436ZM295.519 269.389C295.675 270.389 296.149 271.223 296.94 271.889C297.743 272.546 298.815 272.874 300.159 272.874C301.211 272.874 302.123 272.712 302.894 272.389C303.675 272.056 304.347 271.619 304.909 271.077L306.565 273.358C305.628 274.296 304.633 274.936 303.581 275.28C302.539 275.624 301.399 275.796 300.159 275.796C299.034 275.796 297.987 275.608 297.019 275.233C296.05 274.858 295.211 274.337 294.503 273.671C293.795 272.994 293.237 272.191 292.831 271.264C292.435 270.337 292.237 269.306 292.237 268.171C292.237 267.066 292.42 266.051 292.784 265.124C293.159 264.186 293.68 263.379 294.347 262.702C295.024 262.014 295.831 261.483 296.769 261.108C297.706 260.723 298.743 260.53 299.878 260.53C301.055 260.53 302.123 260.733 303.081 261.139C304.039 261.535 304.857 262.113 305.534 262.874C306.222 263.634 306.758 264.566 307.144 265.671C307.529 266.764 307.722 268.004 307.722 269.389H295.519ZM304.065 266.546C303.899 265.608 303.414 264.858 302.612 264.296C301.81 263.723 300.899 263.436 299.878 263.436C298.857 263.436 297.94 263.723 297.128 264.296C296.315 264.858 295.826 265.608 295.659 266.546H304.065ZM323.815 275.436H320.581V269.421H314.019V275.436H310.784V260.874H314.019V266.514H320.581V260.874H323.815V275.436ZM342.019 268.296H339.128V263.796H336.378V272.53H339.612V275.436H329.925V272.53H333.144V263.796H330.362V268.296H327.487V260.874H342.019V268.296ZM359.894 268.171C359.894 269.306 359.711 270.337 359.347 271.264C358.993 272.191 358.477 272.994 357.8 273.671C357.133 274.337 356.331 274.858 355.394 275.233C354.456 275.608 353.409 275.796 352.253 275.796C351.118 275.796 350.081 275.608 349.144 275.233C348.206 274.858 347.399 274.337 346.722 273.671C346.055 272.994 345.539 272.191 345.175 271.264C344.821 270.337 344.644 269.306 344.644 268.171C344.644 267.066 344.821 266.046 345.175 265.108C345.539 264.16 346.055 263.348 346.722 262.671C347.399 261.983 348.206 261.457 349.144 261.093C350.081 260.718 351.118 260.53 352.253 260.53C353.409 260.53 354.456 260.718 355.394 261.093C356.331 261.457 357.133 261.983 357.8 262.671C358.477 263.348 358.993 264.16 359.347 265.108C359.711 266.046 359.894 267.066 359.894 268.171ZM356.675 268.171C356.675 267.514 356.571 266.895 356.362 266.311C356.164 265.718 355.873 265.212 355.487 264.796C355.102 264.379 354.633 264.051 354.081 263.811C353.539 263.561 352.93 263.436 352.253 263.436C351.565 263.436 350.951 263.561 350.409 263.811C349.868 264.051 349.409 264.379 349.034 264.796C348.659 265.212 348.368 265.718 348.159 266.311C347.961 266.895 347.862 267.514 347.862 268.171C347.862 268.858 347.961 269.483 348.159 270.046C348.368 270.608 348.659 271.103 349.034 271.53C349.409 271.957 349.868 272.29 350.409 272.53C350.951 272.759 351.565 272.874 352.253 272.874C352.93 272.874 353.539 272.759 354.081 272.53C354.633 272.29 355.102 271.957 355.487 271.53C355.873 271.103 356.164 270.608 356.362 270.046C356.571 269.483 356.675 268.858 356.675 268.171ZM363.19 260.874H366.425V262.186C367.039 261.634 367.659 261.223 368.284 260.952C368.92 260.671 369.644 260.53 370.456 260.53C371.394 260.53 372.263 260.723 373.065 261.108C373.868 261.483 374.555 262.009 375.128 262.686C375.701 263.353 376.154 264.16 376.487 265.108C376.821 266.046 376.987 267.066 376.987 268.171C376.987 269.285 376.821 270.311 376.487 271.249C376.154 272.186 375.701 272.994 375.128 273.671C374.555 274.337 373.868 274.858 373.065 275.233C372.263 275.608 371.394 275.796 370.456 275.796C369.644 275.796 368.92 275.65 368.284 275.358C367.659 275.066 367.039 274.645 366.425 274.093V281.264H363.19V260.874ZM366.425 271.53C366.81 271.957 367.3 272.29 367.894 272.53C368.498 272.759 369.076 272.874 369.628 272.874C370.847 272.874 371.836 272.441 372.597 271.577C373.368 270.712 373.753 269.577 373.753 268.171C373.753 266.764 373.368 265.624 372.597 264.749C371.836 263.874 370.847 263.436 369.628 263.436C369.076 263.436 368.498 263.551 367.894 263.78C367.3 263.999 366.81 264.322 366.425 264.749V271.53ZM394.831 268.171C394.831 269.306 394.649 270.337 394.284 271.264C393.93 272.191 393.414 272.994 392.737 273.671C392.071 274.337 391.269 274.858 390.331 275.233C389.394 275.608 388.347 275.796 387.19 275.796C386.055 275.796 385.019 275.608 384.081 275.233C383.144 274.858 382.336 274.337 381.659 273.671C380.993 272.994 380.477 272.191 380.112 271.264C379.758 270.337 379.581 269.306 379.581 268.171C379.581 267.066 379.758 266.046 380.112 265.108C380.477 264.16 380.993 263.348 381.659 262.671C382.336 261.983 383.144 261.457 384.081 261.093C385.019 260.718 386.055 260.53 387.19 260.53C388.347 260.53 389.394 260.718 390.331 261.093C391.269 261.457 392.071 261.983 392.737 262.671C393.414 263.348 393.93 264.16 394.284 265.108C394.649 266.046 394.831 267.066 394.831 268.171ZM391.612 268.171C391.612 267.514 391.508 266.895 391.3 266.311C391.102 265.718 390.81 265.212 390.425 264.796C390.039 264.379 389.571 264.051 389.019 263.811C388.477 263.561 387.868 263.436 387.19 263.436C386.503 263.436 385.888 263.561 385.347 263.811C384.805 264.051 384.347 264.379 383.972 264.796C383.597 265.212 383.305 265.718 383.097 266.311C382.899 266.895 382.8 267.514 382.8 268.171C382.8 268.858 382.899 269.483 383.097 270.046C383.305 270.608 383.597 271.103 383.972 271.53C384.347 271.957 384.805 272.29 385.347 272.53C385.888 272.759 386.503 272.874 387.19 272.874C387.868 272.874 388.477 272.759 389.019 272.53C389.571 272.29 390.039 271.957 390.425 271.53C390.81 271.103 391.102 270.608 391.3 270.046C391.508 269.483 391.612 268.858 391.612 268.171ZM411.894 271.436C411.894 272.759 411.404 273.759 410.425 274.436C409.456 275.103 408.065 275.436 406.253 275.436H398.128V260.874H405.675C406.341 260.874 407.003 260.926 407.659 261.03C408.326 261.124 408.92 261.311 409.44 261.593C409.961 261.863 410.383 262.249 410.706 262.749C411.029 263.249 411.19 263.895 411.19 264.686C411.19 265.415 410.961 266.072 410.503 266.655C410.045 267.238 409.336 267.671 408.378 267.952C409.565 268.119 410.446 268.504 411.019 269.108C411.602 269.702 411.894 270.478 411.894 271.436ZM407.987 265.061C407.987 264.749 407.92 264.499 407.784 264.311C407.659 264.113 407.487 263.962 407.269 263.858C407.06 263.744 406.815 263.671 406.534 263.639C406.263 263.608 405.993 263.593 405.722 263.593H401.362V266.514H405.722C405.993 266.514 406.263 266.499 406.534 266.468C406.815 266.426 407.06 266.353 407.269 266.249C407.487 266.145 407.659 265.999 407.784 265.811C407.92 265.613 407.987 265.363 407.987 265.061ZM408.69 270.952C408.69 270.441 408.477 270.061 408.05 269.811C407.623 269.551 407.024 269.421 406.253 269.421H401.362V272.53H406.253C407.024 272.53 407.623 272.4 408.05 272.139C408.477 271.879 408.69 271.483 408.69 270.952Z" fill="black"/>
</svg>
