<svg width="119" height="225" viewBox="0 0 119 225" fill="none" xmlns="http://www.w3.org/2000/svg">
<path d="M3.19236 0.702812C2.68971 0.0443031 1.74841 -0.0820461 1.0899 0.420604C0.431389 0.923254 0.305038 1.86456 0.807686 2.52307L3.19236 0.702812ZM117.069 224.111C117.896 224.074 118.536 223.372 118.499 222.544L117.882 209.059C117.845 208.231 117.143 207.591 116.316 207.629C115.488 207.666 114.848 208.368 114.886 209.195L115.433 221.183L103.446 221.731C102.618 221.768 101.978 222.47 102.016 223.298C102.054 224.125 102.755 224.765 103.583 224.727L117.069 224.111ZM3.84585 6.59001C4.33461 7.25889 5.27306 7.40491 5.94195 6.91615C6.61083 6.42739 6.75684 5.48893 6.26808 4.82005L3.84585 6.59001ZM10.9313 11.441C10.4664 10.7553 9.53374 10.5762 8.848 11.041C8.16225 11.5058 7.98316 12.4385 8.44797 13.1242L10.9313 11.441ZM13.8569 21.5279C14.2881 22.2353 15.211 22.4592 15.9184 22.0281C16.6258 21.597 16.8498 20.674 16.4187 19.9666L13.8569 21.5279ZM20.4962 26.9787C20.095 26.254 19.1821 25.9918 18.4574 26.393C17.7326 26.7943 17.4704 27.7071 17.8717 28.4319L20.4962 26.9787ZM22.4616 37.2834C22.8224 38.0291 23.7194 38.3412 24.4652 37.9803C25.2109 37.6195 25.5229 36.7225 25.1621 35.9768L22.4616 37.2834ZM28.5302 43.3581C28.2034 42.5968 27.3214 42.2446 26.5601 42.5713C25.7989 42.8981 25.4466 43.7801 25.7734 44.5414L28.5302 43.3581ZM29.4509 53.8177C29.7349 54.596 30.5959 54.9967 31.3742 54.7128C32.1524 54.4288 32.5532 53.5678 32.2692 52.7895L29.4509 53.8177ZM34.8914 60.4759C34.64 59.6865 33.7962 59.2504 33.0069 59.5019C32.2175 59.7533 31.7814 60.597 32.0329 61.3863L34.8914 60.4759ZM34.8448 70.9725C35.061 71.7723 35.8845 72.2453 36.6843 72.0291C37.484 71.8129 37.957 70.9894 37.7408 70.1897L34.8448 70.9725ZM39.7418 78.0312C39.5472 77.226 38.7367 76.731 37.9314 76.9256C37.1262 77.1202 36.6312 77.9308 36.8258 78.736L39.7418 78.0312ZM39.0746 88.5219C39.2533 89.3308 40.0539 89.8418 40.8628 89.6631C41.6717 89.4844 42.1827 88.6838 42.004 87.8748L39.0746 88.5219ZM43.7214 95.7462C43.5453 94.9367 42.7464 94.4232 41.9369 94.5993C41.1274 94.7753 40.6139 95.5743 40.79 96.3838L43.7214 95.7462ZM42.9791 106.227C43.1652 107.034 43.9704 107.538 44.7777 107.352C45.585 107.166 46.0886 106.36 45.9025 105.553L42.9791 106.227ZM47.7844 113.352C47.5804 112.549 46.7641 112.063 45.9612 112.267C45.1583 112.471 44.6727 113.288 44.8767 114.09L47.7844 113.352ZM47.5591 123.849C47.7959 124.643 48.6314 125.094 49.4253 124.857C50.2192 124.62 50.6708 123.785 50.434 122.991L47.5591 123.849ZM52.8703 130.6C52.6011 129.816 51.7478 129.399 50.9643 129.668C50.1808 129.938 49.7638 130.791 50.033 131.574L52.8703 130.6ZM53.6081 141.095C53.9219 141.861 54.7977 142.229 55.5645 141.915C56.3312 141.601 56.6984 140.725 56.3847 139.959L53.6081 141.095ZM59.5783 147.259C59.2281 146.509 58.3356 146.184 57.5848 146.534C56.8341 146.884 56.5093 147.777 56.8595 148.527L59.5783 147.259ZM61.4163 157.58C61.8105 158.309 62.7208 158.58 63.4494 158.186C64.178 157.792 64.4491 156.881 64.0549 156.153L61.4163 157.58ZM68.013 163.083C67.586 162.373 66.6643 162.143 65.9545 162.57C65.2446 162.997 65.0153 163.919 65.4423 164.629L68.013 163.083ZM70.9076 173.183C71.3717 173.869 72.3042 174.049 72.9904 173.585C73.6766 173.121 73.8566 172.189 73.3925 171.502L70.9076 173.183ZM77.9948 178.026C77.5044 177.358 76.5656 177.215 75.8979 177.705C75.2302 178.196 75.0866 179.134 75.577 179.802L77.9948 178.026ZM81.757 187.832C82.2763 188.477 83.2206 188.58 83.866 188.06C84.5115 187.541 84.6137 186.597 84.0944 185.951L81.757 187.832ZM89.2061 192.1C88.6667 191.471 87.7197 191.399 87.091 191.938C86.4622 192.478 86.3898 193.425 86.9293 194.054L89.2061 192.1ZM93.6563 201.613C94.2177 202.222 95.1666 202.261 95.7758 201.7C96.3851 201.138 96.4238 200.189 95.8624 199.58L93.6563 201.613ZM101.405 205.44C100.828 204.845 99.8783 204.831 99.2836 205.407C98.689 205.984 98.6744 206.934 99.2512 207.529L101.405 205.44ZM106.414 214.702C107.007 215.279 107.957 215.267 108.535 214.673C109.113 214.08 109.1 213.13 108.507 212.552L106.414 214.702ZM114.251 218.032C113.646 217.466 112.697 217.498 112.131 218.103C111.565 218.708 111.597 219.657 112.202 220.223L114.251 218.032ZM0.807686 2.52307C1.85098 3.88987 2.86331 5.24538 3.84585 6.59001L6.26808 4.82005C5.27306 3.45832 4.2482 2.08605 3.19236 0.702812L0.807686 2.52307ZM8.44797 13.1242C10.3784 15.9722 12.1774 18.7721 13.8569 21.5279L16.4187 19.9666C14.7136 17.1689 12.8884 14.3284 10.9313 11.441L8.44797 13.1242ZM17.8717 28.4319C19.5319 31.4304 21.0563 34.379 22.4616 37.2834L25.1621 35.9768C23.7329 33.0232 22.1833 30.0257 20.4962 26.9787L17.8717 28.4319ZM25.7734 44.5414C27.1197 47.6779 28.338 50.7673 29.4509 53.8177L32.2692 52.7895C31.1382 49.6894 29.8995 46.5481 28.5302 43.3581L25.7734 44.5414ZM32.0329 61.3863C33.0612 64.615 33.9891 67.8069 34.8448 70.9725L37.7408 70.1897C36.8751 66.9871 35.9349 63.7522 34.8914 60.4759L32.0329 61.3863ZM36.8258 78.736C37.618 82.0138 38.3565 85.2711 39.0746 88.5219L42.004 87.8748C41.2837 84.6139 40.5405 81.3356 39.7418 78.0312L36.8258 78.736ZM40.79 96.3838C41.5023 99.6587 42.2211 102.937 42.9791 106.227L45.9025 105.553C45.1489 102.283 44.4334 99.0194 43.7214 95.7462L40.79 96.3838ZM44.8767 114.09C45.6971 117.319 46.5807 120.569 47.5591 123.849L50.434 122.991C49.4692 119.757 48.5964 116.548 47.7844 113.352L44.8767 114.09ZM50.033 131.574C51.1105 134.711 52.2935 137.882 53.6081 141.095L56.3847 139.959C55.0933 136.803 53.9304 133.686 52.8703 130.6L50.033 131.574ZM56.8595 148.527C58.2477 151.504 59.7601 154.519 61.4163 157.58L64.0549 156.153C62.4274 153.145 60.9417 150.182 59.5783 147.259L56.8595 148.527ZM65.4423 164.629C67.1324 167.439 68.9495 170.288 70.9076 173.183L73.3925 171.502C71.4639 168.651 69.6754 165.846 68.013 163.083L65.4423 164.629ZM75.577 179.802C77.5142 182.439 79.5709 185.115 81.757 187.832L84.0944 185.951C81.9352 183.268 79.9053 180.627 77.9948 178.026L75.577 179.802ZM86.9293 194.054C89.0604 196.537 91.3004 199.056 93.6563 201.613L95.8624 199.58C93.5298 197.049 91.3134 194.556 89.2061 192.1L86.9293 194.054ZM99.2512 207.529C101.539 209.887 103.924 212.277 106.414 214.702L108.507 212.552C106.037 210.147 103.672 207.777 101.405 205.44L99.2512 207.529ZM112.202 220.223C113.441 221.381 114.703 222.547 115.989 223.721L118.011 221.505C116.734 220.339 115.481 219.182 114.251 218.032L112.202 220.223Z" fill="#E4E4E4"/>
</svg>
