<svg width="451" height="257" viewBox="0 0 451 257" fill="none" xmlns="http://www.w3.org/2000/svg">
<path d="M427 -8.07108e-07C440.255 -3.61354e-07 451 10.7452 451 24L451 141C451 154.255 440.255 165 427 165L57.0002 165C43.7454 165 33.0002 154.255 33.0002 141L33.0002 24C33.0002 10.7452 43.7454 -1.36958e-05 57.0002 -1.325e-05L427 -8.07108e-07Z" fill="#FED230"/>
<path d="M13.7969 55H11.6406V36.4375H2.90625V55H0.765625V34.6094H13.7969V55ZM32.4062 47.7656C32.4062 48.901 32.224 49.9323 31.8594 50.8594C31.5052 51.7865 30.9896 52.5833 30.3125 53.25C29.6458 53.9062 28.8438 54.4219 27.9062 54.7969C26.9688 55.1719 25.9219 55.3594 24.7656 55.3594C23.6302 55.3594 22.5938 55.1719 21.6562 54.7969C20.7188 54.4219 19.9115 53.9062 19.2344 53.25C18.5677 52.5833 18.0521 51.7865 17.6875 50.8594C17.3333 49.9323 17.1562 48.901 17.1562 47.7656C17.1562 46.6615 17.3333 45.6354 17.6875 44.6875C18.0521 43.7292 18.5677 42.9167 19.2344 42.25C19.9115 41.5729 20.7188 41.0469 21.6562 40.6719C22.5938 40.2865 23.6302 40.0938 24.7656 40.0938C25.9219 40.0938 26.9688 40.2865 27.9062 40.6719C28.8438 41.0469 29.6458 41.5729 30.3125 42.25C30.9896 42.9167 31.5052 43.7292 31.8594 44.6875C32.224 45.6354 32.4062 46.6615 32.4062 47.7656ZM30.2656 47.7656C30.2656 46.9323 30.1406 46.1667 29.8906 45.4688C29.651 44.7604 29.2917 44.1406 28.8125 43.6094C28.3333 43.0781 27.75 42.6615 27.0625 42.3594C26.3854 42.0573 25.6198 41.9062 24.7656 41.9062C23.9115 41.9062 23.1406 42.0573 22.4531 42.3594C21.776 42.6615 21.2031 43.0781 20.7344 43.6094C20.2656 44.1406 19.9062 44.7604 19.6562 45.4688C19.4167 46.1667 19.2969 46.9323 19.2969 47.7656C19.2969 48.599 19.4167 49.3698 19.6562 50.0781C19.9062 50.776 20.2656 51.3802 20.7344 51.8906C21.2031 52.401 21.776 52.8021 22.4531 53.0938C23.1406 53.3854 23.9115 53.5312 24.7656 53.5312C25.6198 53.5312 26.3854 53.3854 27.0625 53.0938C27.75 52.8021 28.3333 52.401 28.8125 51.8906C29.2917 51.3802 29.651 50.776 29.8906 50.0781C30.1406 49.3698 30.2656 48.599 30.2656 47.7656ZM48.7344 55H46.5781V42.2656H37.8438V55H35.7031V40.4375H48.7344V55ZM52.375 51.0625C52.375 50.1458 52.6042 49.3802 53.0625 48.7656C53.5208 48.1406 54.1198 47.651 54.8594 47.2969C55.6094 46.9323 56.4635 46.6719 57.4219 46.5156C58.3906 46.349 59.375 46.2656 60.375 46.2656C60.7604 46.2656 61.1042 46.2708 61.4062 46.2812C61.7188 46.2917 62.0104 46.3073 62.2812 46.3281C62.5625 46.349 62.8438 46.375 63.125 46.4062C63.4062 46.4375 63.7135 46.474 64.0469 46.5156V45.4688C64.0469 44.7604 63.8906 44.1771 63.5781 43.7188C63.276 43.2604 62.901 42.901 62.4531 42.6406C62.0052 42.3698 61.5365 42.1823 61.0469 42.0781C60.5573 41.9635 60.1406 41.9062 59.7969 41.9062C58.7135 41.9062 57.7135 42.0521 56.7969 42.3438C55.8802 42.6354 55.026 43.026 54.2344 43.5156L53.2656 41.9062C54.1406 41.375 55.1198 40.9427 56.2031 40.6094C57.2969 40.2656 58.4948 40.0938 59.7969 40.0938C60.5885 40.0938 61.3646 40.1979 62.125 40.4062C62.8958 40.6042 63.5833 40.9167 64.1875 41.3438C64.8021 41.7604 65.2917 42.3125 65.6562 43C66.0208 43.6875 66.2031 44.5104 66.2031 45.4688V55H64.0469V52.5625C63.6719 53.0312 63.2448 53.4427 62.7656 53.7969C62.2969 54.151 61.8021 54.4427 61.2812 54.6719C60.7604 54.8906 60.2396 55.0573 59.7188 55.1719C59.1979 55.2969 58.7031 55.3594 58.2344 55.3594C56.3073 55.3594 54.849 54.9896 53.8594 54.25C52.8698 53.5104 52.375 52.4479 52.375 51.0625ZM58.2344 53.5312C59.1302 53.5312 59.9323 53.401 60.6406 53.1406C61.3594 52.8698 61.9688 52.5365 62.4688 52.1406C62.9688 51.7448 63.3542 51.3229 63.625 50.875C63.9062 50.4271 64.0469 50.0208 64.0469 49.6562V48.2812C63.349 48.1771 62.6771 48.1198 62.0312 48.1094C61.3958 48.099 60.8438 48.0938 60.375 48.0938C59.6042 48.0938 58.8594 48.1458 58.1406 48.25C57.4323 48.3542 56.8125 48.526 56.2812 48.7656C55.75 48.9948 55.3229 49.2969 55 49.6719C54.6771 50.0469 54.5156 50.5104 54.5156 51.0625C54.5156 51.6771 54.8125 52.2448 55.4062 52.7656C56.0104 53.276 56.9531 53.5312 58.2344 53.5312ZM69.875 53.1719C70.3646 53.0677 70.8333 52.7865 71.2812 52.3281C71.7292 51.8698 72.1198 51.2344 72.4531 50.4219C72.7865 49.6094 73.0521 48.625 73.25 47.4688C73.4583 46.3021 73.5625 44.9635 73.5625 43.4531V40.4375H81.5156V53.1719H84.4375V59.9844H82.5156V55H71.7969V59.9844H69.875V53.1719ZM75.7031 43.4531C75.7031 44.6615 75.6146 45.7969 75.4375 46.8594C75.2708 47.9115 75.0469 48.8542 74.7656 49.6875C74.4948 50.5208 74.1823 51.2396 73.8281 51.8438C73.474 52.4375 73.125 52.8802 72.7812 53.1719H79.375V42.2656H75.7031V43.4531ZM88.1094 40.4375H90.25V52.1875L98.125 40.4375H101.141V55H98.9844V42.7188L90.7656 55H88.1094V40.4375ZM13.7969 87H10.5625V80.9844H4V87H0.765625V72.4375H4V78.0781H10.5625V72.4375H13.7969V87ZM17.4062 82.8125C17.4062 81.9583 17.6354 81.2135 18.0938 80.5781C18.5521 79.9323 19.151 79.3958 19.8906 78.9688C20.6406 78.5417 21.4948 78.224 22.4531 78.0156C23.4219 77.7969 24.4062 77.6875 25.4062 77.6875C25.9583 77.6875 26.4323 77.6979 26.8281 77.7188C27.224 77.7396 27.625 77.7708 28.0312 77.8125V77.2344C28.0312 76.474 27.7344 75.9062 27.1406 75.5312C26.5573 75.1562 25.7865 74.9688 24.8281 74.9688C23.9531 74.9688 23.0625 75.0938 22.1562 75.3438C21.25 75.5833 20.3906 75.9375 19.5781 76.4062L18.2656 73.875C19.224 73.3229 20.25 72.8906 21.3438 72.5781C22.4479 72.2552 23.6094 72.0938 24.8281 72.0938C25.6198 72.0938 26.3958 72.1823 27.1562 72.3594C27.9271 72.5365 28.6146 72.8281 29.2188 73.2344C29.8333 73.6406 30.3229 74.1719 30.6875 74.8281C31.0521 75.474 31.2344 76.276 31.2344 77.2344V87H28.0312V84.8594C27.5208 85.651 26.7656 86.2656 25.7656 86.7031C24.776 87.1406 23.7083 87.3594 22.5625 87.3594C21.8542 87.3594 21.1823 87.2604 20.5469 87.0625C19.9219 86.875 19.3802 86.5885 18.9219 86.2031C18.4635 85.8177 18.0938 85.3438 17.8125 84.7812C17.5417 84.2083 17.4062 83.5521 17.4062 82.8125ZM23.3906 84.4688C24.026 84.4688 24.6198 84.3906 25.1719 84.2344C25.7344 84.0677 26.2292 83.8438 26.6562 83.5625C27.0833 83.2708 27.4167 82.9219 27.6562 82.5156C27.9062 82.1094 28.0312 81.6615 28.0312 81.1719V80.625C27.5208 80.5417 27.0417 80.4948 26.5938 80.4844C26.1458 80.474 25.75 80.4688 25.4062 80.4688C23.8229 80.4688 22.625 80.6771 21.8125 81.0938C21.0104 81.5104 20.6094 82.026 20.6094 82.6406C20.6094 83.8594 21.5365 84.4688 23.3906 84.4688ZM52.4062 84.0938C53 83.7708 53.4844 83.401 53.8594 82.9844C54.2344 82.5677 54.526 82.0417 54.7344 81.4062C54.9531 80.7604 55.1042 79.9792 55.1875 79.0625C55.2708 78.1458 55.3125 77.0469 55.3125 75.7656V72.4375H64.5938V84.0938H66.9688V91.9844H64.0469V87H55.3125V91.9844H52.4062V84.0938ZM58.5469 76.4062C58.5469 77 58.526 77.6719 58.4844 78.4219C58.4427 79.1719 58.3385 79.9115 58.1719 80.6406C58.0156 81.3594 57.7708 82.0312 57.4375 82.6562C57.1146 83.2708 56.651 83.75 56.0469 84.0938H61.3594V75.1562H58.5469V76.4062ZM84.8125 79.7344C84.8125 80.8698 84.6302 81.901 84.2656 82.8281C83.9115 83.7552 83.3958 84.5573 82.7188 85.2344C82.0521 85.901 81.25 86.4219 80.3125 86.7969C79.375 87.1719 78.3281 87.3594 77.1719 87.3594C76.0365 87.3594 75 87.1719 74.0625 86.7969C73.125 86.4219 72.3177 85.901 71.6406 85.2344C70.974 84.5573 70.4583 83.7552 70.0938 82.8281C69.7396 81.901 69.5625 80.8698 69.5625 79.7344C69.5625 78.6302 69.7396 77.6094 70.0938 76.6719C70.4583 75.724 70.974 74.9115 71.6406 74.2344C72.3177 73.5469 73.125 73.0208 74.0625 72.6562C75 72.2812 76.0365 72.0938 77.1719 72.0938C78.3281 72.0938 79.375 72.2812 80.3125 72.6562C81.25 73.0208 82.0521 73.5469 82.7188 74.2344C83.3958 74.9115 83.9115 75.724 84.2656 76.6719C84.6302 77.6094 84.8125 78.6302 84.8125 79.7344ZM81.5938 79.7344C81.5938 79.0781 81.4896 78.4583 81.2812 77.875C81.0833 77.2812 80.7917 76.776 80.4062 76.3594C80.0208 75.9427 79.5521 75.6146 79 75.375C78.4583 75.125 77.849 75 77.1719 75C76.4844 75 75.8698 75.125 75.3281 75.375C74.7865 75.6146 74.3281 75.9427 73.9531 76.3594C73.5781 76.776 73.2865 77.2812 73.0781 77.875C72.8802 78.4583 72.7812 79.0781 72.7812 79.7344C72.7812 80.4219 72.8802 81.0469 73.0781 81.6094C73.2865 82.1719 73.5781 82.6667 73.9531 83.0938C74.3281 83.5208 74.7865 83.8542 75.3281 84.0938C75.8698 84.3229 76.4844 84.4375 77.1719 84.4375C77.849 84.4375 78.4583 84.3229 79 84.0938C79.5521 83.8542 80.0208 83.5208 80.4062 83.0938C80.7917 82.6667 81.0833 82.1719 81.2812 81.6094C81.4896 81.0469 81.5938 80.4219 81.5938 79.7344ZM101.359 84.9219C100.422 85.8594 99.4323 86.5 98.3906 86.8438C97.3594 87.1875 96.2396 87.3594 95.0312 87.3594C93.8125 87.3594 92.7031 87.1771 91.7031 86.8125C90.7135 86.4479 89.8698 85.9375 89.1719 85.2812C88.4844 84.6146 87.9531 83.8125 87.5781 82.875C87.2135 81.9375 87.0312 80.8906 87.0312 79.7344C87.0312 78.6302 87.2135 77.6094 87.5781 76.6719C87.9531 75.724 88.4531 74.9167 89.0781 74.25C89.7135 73.5729 90.4583 73.0469 91.3125 72.6719C92.1667 72.2865 93.0729 72.0938 94.0312 72.0938C95.0312 72.0938 95.901 72.3021 96.6406 72.7188C97.3802 73.1354 97.9167 73.7448 98.25 74.5469V72.4375H101.141V79.2188H98.25C98.25 77.9375 97.8958 76.9167 97.1875 76.1562C96.4896 75.3854 95.5781 75 94.4531 75C94.0052 75 93.5312 75.0938 93.0312 75.2812C92.5417 75.4583 92.0885 75.7396 91.6719 76.125C91.2656 76.5104 90.9271 77 90.6562 77.5938C90.3854 78.1875 90.25 78.901 90.25 79.7344C90.25 80.5469 90.3802 81.25 90.6406 81.8438C90.901 82.4271 91.2396 82.9115 91.6562 83.2969C92.0833 83.6719 92.5833 83.9583 93.1562 84.1562C93.7396 84.3438 94.3385 84.4375 94.9531 84.4375C96.0052 84.4375 96.9167 84.276 97.6875 83.9531C98.4688 83.6198 99.1406 83.1823 99.7031 82.6406L101.359 84.9219ZM119.344 87H115.156L110.281 81.1094L108.812 82.6094V87H105.578V72.4375H108.812V78.6094L114.641 72.4375H119.078L112.359 79.125L119.344 87ZM136.719 72.4375L130.438 89.8438C129.969 91.1042 129.286 91.974 128.391 92.4531C127.495 92.9323 126.427 93.1719 125.188 93.1719C124.76 93.1719 124.302 93.1302 123.812 93.0469C123.323 92.9635 122.812 92.8229 122.281 92.625L122.953 89.6562C123.401 89.8229 123.812 89.9375 124.188 90C124.562 90.0729 124.896 90.1094 125.188 90.1094C126.156 90.1094 126.818 89.6719 127.172 88.7969L127.75 87.3906L122.188 72.4375H125.547L129.547 83.4531L133.25 72.4375H136.719ZM171.75 87H167.562L162.688 81.1094L161.219 82.6094V87H157.984V72.4375H161.219V78.6094L167.047 72.4375H171.484L164.766 79.125L171.75 87ZM174.625 82.8125C174.625 81.9583 174.854 81.2135 175.312 80.5781C175.771 79.9323 176.37 79.3958 177.109 78.9688C177.859 78.5417 178.714 78.224 179.672 78.0156C180.641 77.7969 181.625 77.6875 182.625 77.6875C183.177 77.6875 183.651 77.6979 184.047 77.7188C184.443 77.7396 184.844 77.7708 185.25 77.8125V77.2344C185.25 76.474 184.953 75.9062 184.359 75.5312C183.776 75.1562 183.005 74.9688 182.047 74.9688C181.172 74.9688 180.281 75.0938 179.375 75.3438C178.469 75.5833 177.609 75.9375 176.797 76.4062L175.484 73.875C176.443 73.3229 177.469 72.8906 178.562 72.5781C179.667 72.2552 180.828 72.0938 182.047 72.0938C182.839 72.0938 183.615 72.1823 184.375 72.3594C185.146 72.5365 185.833 72.8281 186.438 73.2344C187.052 73.6406 187.542 74.1719 187.906 74.8281C188.271 75.474 188.453 76.276 188.453 77.2344V87H185.25V84.8594C184.74 85.651 183.984 86.2656 182.984 86.7031C181.995 87.1406 180.927 87.3594 179.781 87.3594C179.073 87.3594 178.401 87.2604 177.766 87.0625C177.141 86.875 176.599 86.5885 176.141 86.2031C175.682 85.8177 175.312 85.3438 175.031 84.7812C174.76 84.2083 174.625 83.5521 174.625 82.8125ZM180.609 84.4688C181.245 84.4688 181.839 84.3906 182.391 84.2344C182.953 84.0677 183.448 83.8438 183.875 83.5625C184.302 83.2708 184.635 82.9219 184.875 82.5156C185.125 82.1094 185.25 81.6615 185.25 81.1719V80.625C184.74 80.5417 184.26 80.4948 183.812 80.4844C183.365 80.474 182.969 80.4688 182.625 80.4688C181.042 80.4688 179.844 80.6771 179.031 81.0938C178.229 81.5104 177.828 82.026 177.828 82.6406C177.828 83.8594 178.755 84.4688 180.609 84.4688ZM205.953 87H202.719V80.9844H196.156V87H192.922V72.4375H196.156V78.0781H202.719V72.4375H205.953V87ZM209.625 84.0938C210.219 83.7708 210.703 83.401 211.078 82.9844C211.453 82.5677 211.745 82.0417 211.953 81.4062C212.172 80.7604 212.323 79.9792 212.406 79.0625C212.49 78.1458 212.531 77.0469 212.531 75.7656V72.4375H221.812V84.0938H224.188V91.9844H221.266V87H212.531V91.9844H209.625V84.0938ZM215.766 76.4062C215.766 77 215.745 77.6719 215.703 78.4219C215.661 79.1719 215.557 79.9115 215.391 80.6406C215.234 81.3594 214.99 82.0312 214.656 82.6562C214.333 83.2708 213.87 83.75 213.266 84.0938H218.578V75.1562H215.766V76.4062ZM227.859 72.4375H231.094V82.4531L236.828 72.4375H240.891V87H237.656V76.4062L231.609 87H227.859V72.4375ZM244.562 84.0938C245.156 83.7708 245.641 83.401 246.016 82.9844C246.391 82.5677 246.682 82.0417 246.891 81.4062C247.109 80.7604 247.26 79.9792 247.344 79.0625C247.427 78.1458 247.469 77.0469 247.469 75.7656V72.4375H256.75V84.0938H259.125V91.9844H256.203V87H247.469V91.9844H244.562V84.0938ZM250.703 76.4062C250.703 77 250.682 77.6719 250.641 78.4219C250.599 79.1719 250.495 79.9115 250.328 80.6406C250.172 81.3594 249.927 82.0312 249.594 82.6562C249.271 83.2708 248.807 83.75 248.203 84.0938H253.516V75.1562H250.703V76.4062ZM261.969 82.8125C261.969 81.9583 262.198 81.2135 262.656 80.5781C263.115 79.9323 263.714 79.3958 264.453 78.9688C265.203 78.5417 266.057 78.224 267.016 78.0156C267.984 77.7969 268.969 77.6875 269.969 77.6875C270.521 77.6875 270.995 77.6979 271.391 77.7188C271.786 77.7396 272.188 77.7708 272.594 77.8125V77.2344C272.594 76.474 272.297 75.9062 271.703 75.5312C271.12 75.1562 270.349 74.9688 269.391 74.9688C268.516 74.9688 267.625 75.0938 266.719 75.3438C265.812 75.5833 264.953 75.9375 264.141 76.4062L262.828 73.875C263.786 73.3229 264.812 72.8906 265.906 72.5781C267.01 72.2552 268.172 72.0938 269.391 72.0938C270.182 72.0938 270.958 72.1823 271.719 72.3594C272.49 72.5365 273.177 72.8281 273.781 73.2344C274.396 73.6406 274.885 74.1719 275.25 74.8281C275.615 75.474 275.797 76.276 275.797 77.2344V87H272.594V84.8594C272.083 85.651 271.328 86.2656 270.328 86.7031C269.339 87.1406 268.271 87.3594 267.125 87.3594C266.417 87.3594 265.745 87.2604 265.109 87.0625C264.484 86.875 263.943 86.5885 263.484 86.2031C263.026 85.8177 262.656 85.3438 262.375 84.7812C262.104 84.2083 261.969 83.5521 261.969 82.8125ZM267.953 84.4688C268.589 84.4688 269.182 84.3906 269.734 84.2344C270.297 84.0677 270.792 83.8438 271.219 83.5625C271.646 83.2708 271.979 82.9219 272.219 82.5156C272.469 82.1094 272.594 81.6615 272.594 81.1719V80.625C272.083 80.5417 271.604 80.4948 271.156 80.4844C270.708 80.474 270.312 80.4688 269.969 80.4688C268.385 80.4688 267.188 80.6771 266.375 81.0938C265.573 81.5104 265.172 82.026 265.172 82.6406C265.172 83.8594 266.099 84.4688 267.953 84.4688ZM294.031 79.8594H291.141V75.3594H288.391V84.0938H291.625V87H281.938V84.0938H285.156V75.3594H282.375V79.8594H279.5V72.4375H294.031V79.8594ZM311.906 79.7344C311.906 80.8698 311.724 81.901 311.359 82.8281C311.005 83.7552 310.49 84.5573 309.812 85.2344C309.146 85.901 308.344 86.4219 307.406 86.7969C306.469 87.1719 305.422 87.3594 304.266 87.3594C303.13 87.3594 302.094 87.1719 301.156 86.7969C300.219 86.4219 299.411 85.901 298.734 85.2344C298.068 84.5573 297.552 83.7552 297.188 82.8281C296.833 81.901 296.656 80.8698 296.656 79.7344C296.656 78.6302 296.833 77.6094 297.188 76.6719C297.552 75.724 298.068 74.9115 298.734 74.2344C299.411 73.5469 300.219 73.0208 301.156 72.6562C302.094 72.2812 303.13 72.0938 304.266 72.0938C305.422 72.0938 306.469 72.2812 307.406 72.6562C308.344 73.0208 309.146 73.5469 309.812 74.2344C310.49 74.9115 311.005 75.724 311.359 76.6719C311.724 77.6094 311.906 78.6302 311.906 79.7344ZM308.688 79.7344C308.688 79.0781 308.583 78.4583 308.375 77.875C308.177 77.2812 307.885 76.776 307.5 76.3594C307.115 75.9427 306.646 75.6146 306.094 75.375C305.552 75.125 304.943 75 304.266 75C303.578 75 302.964 75.125 302.422 75.375C301.88 75.6146 301.422 75.9427 301.047 76.3594C300.672 76.776 300.38 77.2812 300.172 77.875C299.974 78.4583 299.875 79.0781 299.875 79.7344C299.875 80.4219 299.974 81.0469 300.172 81.6094C300.38 82.1719 300.672 82.6667 301.047 83.0938C301.422 83.5208 301.88 83.8542 302.422 84.0938C302.964 84.3229 303.578 84.4375 304.266 84.4375C304.943 84.4375 305.552 84.3229 306.094 84.0938C306.646 83.8542 307.115 83.5208 307.5 83.0938C307.885 82.6667 308.177 82.1719 308.375 81.6094C308.583 81.0469 308.688 80.4219 308.688 79.7344ZM328.969 83C328.969 84.3229 328.479 85.3229 327.5 86C326.531 86.6667 325.141 87 323.328 87H315.203V72.4375H322.75C323.417 72.4375 324.078 72.4896 324.734 72.5938C325.401 72.6875 325.995 72.875 326.516 73.1562C327.036 73.4271 327.458 73.8125 327.781 74.3125C328.104 74.8125 328.266 75.4583 328.266 76.25C328.266 76.9792 328.036 77.6354 327.578 78.2188C327.12 78.8021 326.411 79.2344 325.453 79.5156C326.641 79.6823 327.521 80.0677 328.094 80.6719C328.677 81.2656 328.969 82.0417 328.969 83ZM325.062 76.625C325.062 76.3125 324.995 76.0625 324.859 75.875C324.734 75.6771 324.562 75.526 324.344 75.4219C324.135 75.3073 323.891 75.2344 323.609 75.2031C323.339 75.1719 323.068 75.1562 322.797 75.1562H318.438V78.0781H322.797C323.068 78.0781 323.339 78.0625 323.609 78.0312C323.891 77.9896 324.135 77.9167 324.344 77.8125C324.562 77.7083 324.734 77.5625 324.859 77.375C324.995 77.1771 325.062 76.9271 325.062 76.625ZM325.766 82.5156C325.766 82.0052 325.552 81.625 325.125 81.375C324.698 81.1146 324.099 80.9844 323.328 80.9844H318.438V84.0938H323.328C324.099 84.0938 324.698 83.9635 325.125 83.7031C325.552 83.4427 325.766 83.0469 325.766 82.5156ZM14.0156 116.25C13.401 117.208 12.5573 117.969 11.4844 118.531C10.4219 119.083 9.15625 119.359 7.6875 119.359C6.55208 119.359 5.51042 119.172 4.5625 118.797C3.61458 118.422 2.80208 117.901 2.125 117.234C1.45833 116.557 0.9375 115.755 0.5625 114.828C0.1875 113.901 0 112.87 0 111.734C0 110.63 0.171875 109.609 0.515625 108.672C0.859375 107.724 1.34896 106.917 1.98438 106.25C2.61979 105.573 3.39583 105.047 4.3125 104.672C5.23958 104.286 6.26562 104.094 7.39062 104.094C7.83854 104.094 8.29688 104.146 8.76562 104.25C9.23438 104.354 9.67708 104.516 10.0938 104.734C10.5104 104.943 10.8854 105.198 11.2188 105.5C11.5521 105.792 11.8021 106.141 11.9688 106.547V104.438H13.8906V110.266H11.9688C11.9688 109.62 11.849 109.031 11.6094 108.5C11.3802 107.969 11.0625 107.51 10.6562 107.125C10.25 106.74 9.76562 106.443 9.20312 106.234C8.64062 106.016 8.03646 105.906 7.39062 105.906C6.51562 105.906 5.75 106.057 5.09375 106.359C4.44792 106.661 3.90625 107.073 3.46875 107.594C3.03125 108.115 2.69792 108.729 2.46875 109.438C2.25 110.135 2.14062 110.901 2.14062 111.734C2.14062 112.568 2.26562 113.339 2.51562 114.047C2.77604 114.745 3.14583 115.349 3.625 115.859C4.11458 116.37 4.69792 116.776 5.375 117.078C6.0625 117.38 6.83333 117.531 7.6875 117.531C8.77083 117.531 9.73438 117.323 10.5781 116.906C11.4219 116.49 12.0677 115.927 12.5156 115.219L14.0156 116.25ZM48.7344 119H46.5781V106.266H37.8438V119H35.7031V104.438H48.7344V119ZM67.3438 111.766C67.3438 112.901 67.1615 113.932 66.7969 114.859C66.4427 115.786 65.9271 116.583 65.25 117.25C64.5833 117.906 63.7812 118.422 62.8438 118.797C61.9062 119.172 60.8594 119.359 59.7031 119.359C58.5677 119.359 57.5312 119.172 56.5938 118.797C55.6562 118.422 54.849 117.906 54.1719 117.25C53.5052 116.583 52.9896 115.786 52.625 114.859C52.2708 113.932 52.0938 112.901 52.0938 111.766C52.0938 110.661 52.2708 109.635 52.625 108.688C52.9896 107.729 53.5052 106.917 54.1719 106.25C54.849 105.573 55.6562 105.047 56.5938 104.672C57.5312 104.286 58.5677 104.094 59.7031 104.094C60.8594 104.094 61.9062 104.286 62.8438 104.672C63.7812 105.047 64.5833 105.573 65.25 106.25C65.9271 106.917 66.4427 107.729 66.7969 108.688C67.1615 109.635 67.3438 110.661 67.3438 111.766ZM65.2031 111.766C65.2031 110.932 65.0781 110.167 64.8281 109.469C64.5885 108.76 64.2292 108.141 63.75 107.609C63.2708 107.078 62.6875 106.661 62 106.359C61.3229 106.057 60.5573 105.906 59.7031 105.906C58.849 105.906 58.0781 106.057 57.3906 106.359C56.7135 106.661 56.1406 107.078 55.6719 107.609C55.2031 108.141 54.8438 108.76 54.5938 109.469C54.3542 110.167 54.2344 110.932 54.2344 111.766C54.2344 112.599 54.3542 113.37 54.5938 114.078C54.8438 114.776 55.2031 115.38 55.6719 115.891C56.1406 116.401 56.7135 116.802 57.3906 117.094C58.0781 117.385 58.849 117.531 59.7031 117.531C60.5573 117.531 61.3229 117.385 62 117.094C62.6875 116.802 63.2708 116.401 63.75 115.891C64.2292 115.38 64.5885 114.776 64.8281 114.078C65.0781 113.37 65.2031 112.599 65.2031 111.766ZM84.4375 111.734C84.4375 112.87 84.2604 113.901 83.9062 114.828C83.5521 115.755 83.0521 116.557 82.4062 117.234C81.7708 117.901 81 118.422 80.0938 118.797C79.1875 119.172 78.1719 119.359 77.0469 119.359C76.276 119.359 75.526 119.219 74.7969 118.938C74.0781 118.656 73.4062 118.24 72.7812 117.688V124.828H70.6406V104.438H72.7812V105.781C74.1042 104.656 75.526 104.094 77.0469 104.094C78.1719 104.094 79.1875 104.281 80.0938 104.656C81 105.021 81.7708 105.547 82.4062 106.234C83.0521 106.911 83.5521 107.724 83.9062 108.672C84.2604 109.609 84.4375 110.63 84.4375 111.734ZM82.2969 111.734C82.2969 110.922 82.1823 110.161 81.9531 109.453C81.7344 108.734 81.401 108.115 80.9531 107.594C80.5052 107.073 79.9531 106.661 79.2969 106.359C78.651 106.057 77.901 105.906 77.0469 105.906C76.2344 105.906 75.474 106.057 74.7656 106.359C74.0677 106.661 73.4062 107.151 72.7812 107.828V115.641C73.4062 116.318 74.0677 116.802 74.7656 117.094C75.474 117.385 76.2344 117.531 77.0469 117.531C77.901 117.531 78.651 117.38 79.2969 117.078C79.9531 116.776 80.5052 116.365 80.9531 115.844C81.401 115.323 81.7344 114.714 81.9531 114.016C82.1823 113.307 82.2969 112.547 82.2969 111.734ZM101.906 111.312H100.078V106.266H95.7031V117.172H98.9844V119H90.25V117.172H93.5469V106.266H89.1719V111.312H87.3438V104.438H101.906V111.312ZM111.016 107.391C110.422 106.401 109.688 105.906 108.812 105.906C108.042 105.906 107.464 106.354 107.078 107.25C106.703 108.146 106.516 109.641 106.516 111.734C106.516 113.828 106.703 115.318 107.078 116.203C107.464 117.089 108.042 117.531 108.812 117.531C109.688 117.531 110.422 117.042 111.016 116.062V107.391ZM111.016 118.016C110.464 118.911 109.729 119.359 108.812 119.359C107.323 119.359 106.208 118.703 105.469 117.391C104.729 116.078 104.359 114.193 104.359 111.734C104.359 109.286 104.729 107.401 105.469 106.078C106.208 104.755 107.323 104.094 108.812 104.094C109.729 104.094 110.464 104.542 111.016 105.438V98.6094H113.172V105.438C113.724 104.542 114.458 104.094 115.375 104.094C116.865 104.094 117.979 104.755 118.719 106.078C119.458 107.401 119.828 109.286 119.828 111.734C119.828 114.193 119.458 116.078 118.719 117.391C117.979 118.703 116.865 119.359 115.375 119.359C114.458 119.359 113.724 118.911 113.172 118.016V124.828H111.016V118.016ZM113.172 116.062C113.766 117.042 114.5 117.531 115.375 117.531C116.146 117.531 116.719 117.089 117.094 116.203C117.479 115.318 117.672 113.828 117.672 111.734C117.672 109.641 117.479 108.146 117.094 107.25C116.719 106.354 116.146 105.906 115.375 105.906C114.5 105.906 113.766 106.401 113.172 107.391V116.062ZM137.219 111.766C137.219 112.901 137.036 113.932 136.672 114.859C136.318 115.786 135.802 116.583 135.125 117.25C134.458 117.906 133.656 118.422 132.719 118.797C131.781 119.172 130.734 119.359 129.578 119.359C128.443 119.359 127.406 119.172 126.469 118.797C125.531 118.422 124.724 117.906 124.047 117.25C123.38 116.583 122.865 115.786 122.5 114.859C122.146 113.932 121.969 112.901 121.969 111.766C121.969 110.661 122.146 109.635 122.5 108.688C122.865 107.729 123.38 106.917 124.047 106.25C124.724 105.573 125.531 105.047 126.469 104.672C127.406 104.286 128.443 104.094 129.578 104.094C130.734 104.094 131.781 104.286 132.719 104.672C133.656 105.047 134.458 105.573 135.125 106.25C135.802 106.917 136.318 107.729 136.672 108.688C137.036 109.635 137.219 110.661 137.219 111.766ZM135.078 111.766C135.078 110.932 134.953 110.167 134.703 109.469C134.464 108.76 134.104 108.141 133.625 107.609C133.146 107.078 132.562 106.661 131.875 106.359C131.198 106.057 130.432 105.906 129.578 105.906C128.724 105.906 127.953 106.057 127.266 106.359C126.589 106.661 126.016 107.078 125.547 107.609C125.078 108.141 124.719 108.76 124.469 109.469C124.229 110.167 124.109 110.932 124.109 111.766C124.109 112.599 124.229 113.37 124.469 114.078C124.719 114.776 125.078 115.38 125.547 115.891C126.016 116.401 126.589 116.802 127.266 117.094C127.953 117.385 128.724 117.531 129.578 117.531C130.432 117.531 131.198 117.385 131.875 117.094C132.562 116.802 133.146 116.401 133.625 115.891C134.104 115.38 134.464 114.776 134.703 114.078C134.953 113.37 135.078 112.599 135.078 111.766ZM153.547 104.438V119H151.391V106.266H144.812V115.766C144.812 116.339 144.714 116.849 144.516 117.297C144.328 117.745 144.073 118.12 143.75 118.422C143.427 118.724 143.052 118.953 142.625 119.109C142.198 119.276 141.75 119.359 141.281 119.359C140.406 119.359 139.766 119.229 139.359 118.969L139.781 117.266C139.927 117.359 140.089 117.427 140.266 117.469C140.453 117.51 140.698 117.531 141 117.531C142.104 117.531 142.656 116.943 142.656 115.766V104.438H153.547ZM157.984 104.438H160.125V116.188L168 104.438H171.016V119H168.859V106.719L160.641 119H157.984V104.438ZM189.625 111.766C189.625 112.901 189.443 113.932 189.078 114.859C188.724 115.786 188.208 116.583 187.531 117.25C186.865 117.906 186.062 118.422 185.125 118.797C184.188 119.172 183.141 119.359 181.984 119.359C180.849 119.359 179.812 119.172 178.875 118.797C177.938 118.422 177.13 117.906 176.453 117.25C175.786 116.583 175.271 115.786 174.906 114.859C174.552 113.932 174.375 112.901 174.375 111.766C174.375 110.661 174.552 109.635 174.906 108.688C175.271 107.729 175.786 106.917 176.453 106.25C177.13 105.573 177.938 105.047 178.875 104.672C179.812 104.286 180.849 104.094 181.984 104.094C183.141 104.094 184.188 104.286 185.125 104.672C186.062 105.047 186.865 105.573 187.531 106.25C188.208 106.917 188.724 107.729 189.078 108.688C189.443 109.635 189.625 110.661 189.625 111.766ZM187.484 111.766C187.484 110.932 187.359 110.167 187.109 109.469C186.87 108.76 186.51 108.141 186.031 107.609C185.552 107.078 184.969 106.661 184.281 106.359C183.604 106.057 182.839 105.906 181.984 105.906C181.13 105.906 180.359 106.057 179.672 106.359C178.995 106.661 178.422 107.078 177.953 107.609C177.484 108.141 177.125 108.76 176.875 109.469C176.635 110.167 176.516 110.932 176.516 111.766C176.516 112.599 176.635 113.37 176.875 114.078C177.125 114.776 177.484 115.38 177.953 115.891C178.422 116.401 178.995 116.802 179.672 117.094C180.359 117.385 181.13 117.531 181.984 117.531C182.839 117.531 183.604 117.385 184.281 117.094C184.969 116.802 185.552 116.401 186.031 115.891C186.51 115.38 186.87 114.776 187.109 114.078C187.359 113.37 187.484 112.599 187.484 111.766ZM223.422 119H221.266V106.266H212.531V119H210.391V104.438H223.422V119ZM241.656 111.734C241.656 112.87 241.479 113.901 241.125 114.828C240.771 115.755 240.271 116.557 239.625 117.234C238.99 117.901 238.219 118.422 237.312 118.797C236.406 119.172 235.391 119.359 234.266 119.359C233.495 119.359 232.745 119.219 232.016 118.938C231.297 118.656 230.625 118.24 230 117.688V124.828H227.859V104.438H230V105.781C231.323 104.656 232.745 104.094 234.266 104.094C235.391 104.094 236.406 104.281 237.312 104.656C238.219 105.021 238.99 105.547 239.625 106.234C240.271 106.911 240.771 107.724 241.125 108.672C241.479 109.609 241.656 110.63 241.656 111.734ZM239.516 111.734C239.516 110.922 239.401 110.161 239.172 109.453C238.953 108.734 238.62 108.115 238.172 107.594C237.724 107.073 237.172 106.661 236.516 106.359C235.87 106.057 235.12 105.906 234.266 105.906C233.453 105.906 232.693 106.057 231.984 106.359C231.286 106.661 230.625 107.151 230 107.828V115.641C230.625 116.318 231.286 116.802 231.984 117.094C232.693 117.385 233.453 117.531 234.266 117.531C235.12 117.531 235.87 117.38 236.516 117.078C237.172 116.776 237.724 116.365 238.172 115.844C238.62 115.323 238.953 114.714 239.172 114.016C239.401 113.307 239.516 112.547 239.516 111.734ZM259.5 111.766C259.5 112.901 259.318 113.932 258.953 114.859C258.599 115.786 258.083 116.583 257.406 117.25C256.74 117.906 255.938 118.422 255 118.797C254.062 119.172 253.016 119.359 251.859 119.359C250.724 119.359 249.688 119.172 248.75 118.797C247.812 118.422 247.005 117.906 246.328 117.25C245.661 116.583 245.146 115.786 244.781 114.859C244.427 113.932 244.25 112.901 244.25 111.766C244.25 110.661 244.427 109.635 244.781 108.688C245.146 107.729 245.661 106.917 246.328 106.25C247.005 105.573 247.812 105.047 248.75 104.672C249.688 104.286 250.724 104.094 251.859 104.094C253.016 104.094 254.062 104.286 255 104.672C255.938 105.047 256.74 105.573 257.406 106.25C258.083 106.917 258.599 107.729 258.953 108.688C259.318 109.635 259.5 110.661 259.5 111.766ZM257.359 111.766C257.359 110.932 257.234 110.167 256.984 109.469C256.745 108.76 256.385 108.141 255.906 107.609C255.427 107.078 254.844 106.661 254.156 106.359C253.479 106.057 252.714 105.906 251.859 105.906C251.005 105.906 250.234 106.057 249.547 106.359C248.87 106.661 248.297 107.078 247.828 107.609C247.359 108.141 247 108.76 246.75 109.469C246.51 110.167 246.391 110.932 246.391 111.766C246.391 112.599 246.51 113.37 246.75 114.078C247 114.776 247.359 115.38 247.828 115.891C248.297 116.401 248.87 116.802 249.547 117.094C250.234 117.385 251.005 117.531 251.859 117.531C252.714 117.531 253.479 117.385 254.156 117.094C254.844 116.802 255.427 116.401 255.906 115.891C256.385 115.38 256.745 114.776 256.984 114.078C257.234 113.37 257.359 112.599 257.359 111.766ZM264.172 112.469C264.328 114.01 264.891 115.24 265.859 116.156C266.828 117.073 268.089 117.531 269.641 117.531C270.734 117.531 271.708 117.307 272.562 116.859C273.417 116.411 274.057 115.854 274.484 115.188L275.984 116.219C275.255 117.24 274.385 118.021 273.375 118.562C272.365 119.094 271.12 119.359 269.641 119.359C268.516 119.359 267.484 119.172 266.547 118.797C265.609 118.422 264.797 117.901 264.109 117.234C263.432 116.557 262.906 115.755 262.531 114.828C262.156 113.901 261.969 112.87 261.969 111.734C261.969 110.63 262.135 109.615 262.469 108.688C262.812 107.75 263.302 106.943 263.938 106.266C264.583 105.578 265.365 105.047 266.281 104.672C267.198 104.286 268.224 104.094 269.359 104.094C270.599 104.094 271.682 104.302 272.609 104.719C273.536 105.135 274.307 105.714 274.922 106.453C275.547 107.182 276.005 108.057 276.297 109.078C276.599 110.099 276.75 111.229 276.75 112.469H264.172ZM274.484 110.641C274.245 109.047 273.667 107.859 272.75 107.078C271.833 106.297 270.703 105.906 269.359 105.906C268.672 105.906 268.036 106.021 267.453 106.25C266.87 106.469 266.354 106.786 265.906 107.203C265.458 107.62 265.083 108.125 264.781 108.719C264.479 109.302 264.286 109.943 264.203 110.641H274.484ZM294.031 119H290.984L285.031 112.469L282.406 114.875V119H280.266V104.438H282.406V112.281L290.703 104.438H293.766L286.469 111.125L294.031 119ZM311.531 111.312H309.703V106.266H305.328V117.172H308.609V119H299.875V117.172H303.172V106.266H298.797V111.312H296.969V104.438H311.531V111.312ZM329.375 111.766C329.375 112.901 329.193 113.932 328.828 114.859C328.474 115.786 327.958 116.583 327.281 117.25C326.615 117.906 325.812 118.422 324.875 118.797C323.938 119.172 322.891 119.359 321.734 119.359C320.599 119.359 319.562 119.172 318.625 118.797C317.688 118.422 316.88 117.906 316.203 117.25C315.536 116.583 315.021 115.786 314.656 114.859C314.302 113.932 314.125 112.901 314.125 111.766C314.125 110.661 314.302 109.635 314.656 108.688C315.021 107.729 315.536 106.917 316.203 106.25C316.88 105.573 317.688 105.047 318.625 104.672C319.562 104.286 320.599 104.094 321.734 104.094C322.891 104.094 323.938 104.286 324.875 104.672C325.812 105.047 326.615 105.573 327.281 106.25C327.958 106.917 328.474 107.729 328.828 108.688C329.193 109.635 329.375 110.661 329.375 111.766ZM327.234 111.766C327.234 110.932 327.109 110.167 326.859 109.469C326.62 108.76 326.26 108.141 325.781 107.609C325.302 107.078 324.719 106.661 324.031 106.359C323.354 106.057 322.589 105.906 321.734 105.906C320.88 105.906 320.109 106.057 319.422 106.359C318.745 106.661 318.172 107.078 317.703 107.609C317.234 108.141 316.875 108.76 316.625 109.469C316.385 110.167 316.266 110.932 316.266 111.766C316.266 112.599 316.385 113.37 316.625 114.078C316.875 114.776 317.234 115.38 317.703 115.891C318.172 116.401 318.745 116.802 319.422 117.094C320.109 117.385 320.88 117.531 321.734 117.531C322.589 117.531 323.354 117.385 324.031 117.094C324.719 116.802 325.302 116.401 325.781 115.891C326.26 115.38 326.62 114.776 326.859 114.078C327.109 113.37 327.234 112.599 327.234 111.766ZM346.438 114.844C346.438 116.25 345.917 117.297 344.875 117.984C343.844 118.661 342.359 119 340.422 119H332.672V104.438H339.938C340.646 104.438 341.344 104.495 342.031 104.609C342.729 104.714 343.349 104.906 343.891 105.188C344.432 105.458 344.875 105.839 345.219 106.328C345.562 106.818 345.734 107.458 345.734 108.25C345.734 109 345.552 109.63 345.188 110.141C344.823 110.651 344.109 111.042 343.047 111.312C344.349 111.615 345.24 112.062 345.719 112.656C346.198 113.24 346.438 113.969 346.438 114.844ZM343.594 108.375C343.594 107.927 343.474 107.568 343.234 107.297C342.995 107.016 342.698 106.802 342.344 106.656C342 106.5 341.615 106.396 341.188 106.344C340.76 106.292 340.344 106.266 339.938 106.266H334.812V110.453H339.938C340.365 110.453 340.797 110.427 341.234 110.375C341.672 110.323 342.068 110.219 342.422 110.062C342.776 109.896 343.057 109.682 343.266 109.422C343.484 109.151 343.594 108.802 343.594 108.375ZM344.297 114.75C344.297 113.896 343.948 113.271 343.25 112.875C342.552 112.479 341.599 112.281 340.391 112.281H334.812V117.172H340.391C341.599 117.172 342.552 116.969 343.25 116.562C343.948 116.156 344.297 115.552 344.297 114.75Z" fill="black"/>
<path d="M32.3926 192.351H42.5V196.453C44.4206 194.727 46.3574 193.442 48.3105 192.595C50.2962 191.716 52.5586 191.277 55.0977 191.277C58.0273 191.277 60.7454 191.879 63.252 193.083C65.7585 194.255 67.9069 195.899 69.6973 198.015C71.4876 200.098 72.9036 202.621 73.9453 205.583C74.987 208.513 75.5078 211.703 75.5078 215.154C75.5078 218.637 74.987 221.843 73.9453 224.773C72.9036 227.703 71.4876 230.225 69.6973 232.341C67.9069 234.425 65.7585 236.052 63.252 237.224C60.7454 238.396 58.0273 238.982 55.0977 238.982C52.5586 238.982 50.2962 238.526 48.3105 237.615C46.3574 236.703 44.4206 235.385 42.5 233.66L42.5 256.072H32.3926L32.3926 192.351ZM42.5 225.652C43.7044 226.986 45.2344 228.028 47.0898 228.777C48.9779 229.493 50.7845 229.851 52.5098 229.851C56.3184 229.851 59.4108 228.5 61.7871 225.798C64.196 223.097 65.4004 219.548 65.4004 215.154C65.4004 210.759 64.196 207.195 61.7871 204.46C59.4108 201.726 56.3184 200.359 52.5098 200.359C50.7845 200.359 48.9779 200.717 47.0898 201.433C45.2344 202.117 43.7044 203.126 42.5 204.46V225.652Z" fill="black"/>
<path d="M84.3945 224.773C84.3945 222.104 85.1107 219.776 86.543 217.791C87.9753 215.772 89.847 214.096 92.1582 212.761C94.502 211.427 97.1712 210.434 100.166 209.783C103.193 209.099 106.27 208.757 109.395 208.757C111.12 208.757 112.601 208.79 113.838 208.855C115.075 208.92 116.328 209.018 117.598 209.148V207.341C117.598 204.965 116.67 203.191 114.814 202.019C112.992 200.847 110.583 200.261 107.588 200.261C104.854 200.261 102.07 200.652 99.2383 201.433C96.4062 202.182 93.7207 203.289 91.1816 204.753L87.0801 196.843C90.0749 195.118 93.2812 193.767 96.6992 192.791C100.15 191.781 103.779 191.277 107.588 191.277C110.062 191.277 112.487 191.554 114.863 192.107C117.272 192.66 119.421 193.572 121.309 194.841C123.229 196.111 124.759 197.771 125.898 199.822C127.038 201.84 127.607 204.347 127.607 207.341V237.859H117.598V231.169C116.003 233.643 113.643 235.564 110.518 236.931C107.425 238.298 104.089 238.982 100.508 238.982C98.2943 238.982 96.1947 238.673 94.209 238.054C92.2559 237.468 90.5632 236.573 89.1309 235.369C87.6986 234.164 86.543 232.683 85.6641 230.925C84.8177 229.135 84.3945 227.084 84.3945 224.773ZM103.096 229.949C105.081 229.949 106.937 229.705 108.662 229.216C110.42 228.695 111.966 227.996 113.301 227.117C114.635 226.205 115.677 225.115 116.426 223.845C117.207 222.576 117.598 221.176 117.598 219.646V217.937C116.003 217.677 114.505 217.53 113.105 217.498C111.706 217.465 110.469 217.449 109.395 217.449C104.447 217.449 100.703 218.1 98.1641 219.402C95.6576 220.704 94.4043 222.315 94.4043 224.236C94.4043 228.044 97.3014 229.949 103.096 229.949Z" fill="black"/>
<path d="M149.873 216.179C149.873 220.313 150.964 223.634 153.145 226.14C155.358 228.614 158.369 229.851 162.178 229.851C165.791 229.851 168.753 228.614 171.064 226.14C173.408 223.634 174.58 220.313 174.58 216.179C174.58 211.98 173.473 208.643 171.26 206.169C169.079 203.695 166.051 202.458 162.178 202.458C158.044 202.458 154.951 203.695 152.9 206.169C150.882 208.643 149.873 211.98 149.873 216.179ZM139.18 206.072C139.18 201.189 139.684 196.729 140.693 192.693C141.735 188.656 143.184 185.19 145.039 182.292C146.927 179.395 149.157 177.133 151.729 175.505C154.3 173.878 157.148 173.064 160.273 173.064C161.803 173.064 163.073 173.21 164.082 173.503C165.091 173.796 165.986 174.154 166.768 174.578C167.581 174.968 168.33 175.31 169.014 175.603C169.73 175.896 170.592 176.042 171.602 176.042C172.936 176.042 174.059 175.815 174.971 175.359C175.915 174.903 177.054 174.138 178.389 173.064L182.979 179.753C181.774 181.218 180.146 182.488 178.096 183.562C176.077 184.636 173.913 185.173 171.602 185.173C170.039 185.173 168.786 185.027 167.842 184.734C166.93 184.408 166.084 184.05 165.303 183.66C164.554 183.269 163.805 182.927 163.057 182.634C162.34 182.309 161.413 182.146 160.273 182.146C158.743 182.146 157.327 182.537 156.025 183.318C154.723 184.067 153.568 185.271 152.559 186.931C151.582 188.559 150.801 190.658 150.215 193.23C149.661 195.769 149.385 198.878 149.385 202.556C150.654 199.561 152.428 197.283 154.707 195.72C157.018 194.158 159.541 193.376 162.275 193.376C165.465 193.376 168.428 193.865 171.162 194.841C173.896 195.785 176.257 197.218 178.242 199.138C180.26 201.026 181.839 203.386 182.979 206.218C184.118 209.05 184.688 212.371 184.688 216.179C184.688 219.369 184.118 222.364 182.979 225.164C181.839 227.963 180.26 230.388 178.242 232.439C176.257 234.457 173.896 236.052 171.162 237.224C168.428 238.396 165.465 238.982 162.275 238.982C154.626 238.982 148.864 236.313 144.99 230.974C141.117 225.636 139.18 217.335 139.18 206.072Z" fill="black"/>
<path d="M240.449 215.154C240.449 218.702 239.88 221.925 238.74 224.822C237.633 227.719 236.022 230.225 233.906 232.341C231.823 234.425 229.316 236.052 226.387 237.224C223.457 238.396 220.186 238.982 216.572 238.982C213.024 238.982 209.785 238.396 206.855 237.224C203.926 236.052 201.403 234.425 199.287 232.341C197.204 230.225 195.592 227.719 194.453 224.822C193.346 221.925 192.793 218.702 192.793 215.154C192.793 211.703 193.346 208.513 194.453 205.583C195.592 202.621 197.204 200.082 199.287 197.966C201.403 195.818 203.926 194.174 206.855 193.035C209.785 191.863 213.024 191.277 216.572 191.277C220.186 191.277 223.457 191.863 226.387 193.035C229.316 194.174 231.823 195.818 233.906 197.966C236.022 200.082 237.633 202.621 238.74 205.583C239.88 208.513 240.449 211.703 240.449 215.154ZM230.391 215.154C230.391 213.103 230.065 211.166 229.414 209.343C228.796 207.488 227.884 205.909 226.68 204.607C225.475 203.305 224.01 202.279 222.285 201.531C220.592 200.75 218.688 200.359 216.572 200.359C214.424 200.359 212.503 200.75 210.811 201.531C209.118 202.279 207.686 203.305 206.514 204.607C205.342 205.909 204.43 207.488 203.779 209.343C203.161 211.166 202.852 213.103 202.852 215.154C202.852 217.302 203.161 219.255 203.779 221.013C204.43 222.771 205.342 224.317 206.514 225.652C207.686 226.986 209.118 228.028 210.811 228.777C212.503 229.493 214.424 229.851 216.572 229.851C218.688 229.851 220.592 229.493 222.285 228.777C224.01 228.028 225.475 226.986 226.68 225.652C227.884 224.317 228.796 222.771 229.414 221.013C230.065 219.255 230.391 217.302 230.391 215.154Z" fill="black"/>
<path d="M293.77 215.544H284.736V201.482H276.143V228.777H286.25V237.859H255.977V228.777H266.035V201.482H257.344V215.544H248.359V192.351H293.77V215.544Z" fill="black"/>
<path d="M302.754 224.773C302.754 222.104 303.47 219.776 304.902 217.791C306.335 215.772 308.206 214.096 310.518 212.761C312.861 211.427 315.531 210.434 318.525 209.783C321.553 209.099 324.629 208.757 327.754 208.757C329.479 208.757 330.96 208.79 332.197 208.855C333.434 208.92 334.688 209.018 335.957 209.148V207.341C335.957 204.965 335.029 203.191 333.174 202.019C331.351 200.847 328.942 200.261 325.947 200.261C323.213 200.261 320.43 200.652 317.598 201.433C314.766 202.182 312.08 203.289 309.541 204.753L305.439 196.843C308.434 195.118 311.641 193.767 315.059 192.791C318.509 191.781 322.139 191.277 325.947 191.277C328.421 191.277 330.846 191.554 333.223 192.107C335.632 192.66 337.78 193.572 339.668 194.841C341.589 196.111 343.118 197.771 344.258 199.822C345.397 201.84 345.967 204.347 345.967 207.341V237.859H335.957V231.169C334.362 233.643 332.002 235.564 328.877 236.931C325.785 238.298 322.448 238.982 318.867 238.982C316.654 238.982 314.554 238.673 312.568 238.054C310.615 237.468 308.923 236.573 307.49 235.369C306.058 234.164 304.902 232.683 304.023 230.925C303.177 229.135 302.754 227.084 302.754 224.773ZM321.455 229.949C323.441 229.949 325.296 229.705 327.021 229.216C328.779 228.695 330.326 227.996 331.66 227.117C332.995 226.205 334.036 225.115 334.785 223.845C335.566 222.576 335.957 221.176 335.957 219.646V217.937C334.362 217.677 332.865 217.53 331.465 217.498C330.065 217.465 328.828 217.449 327.754 217.449C322.806 217.449 319.062 218.1 316.523 219.402C314.017 220.704 312.764 222.315 312.764 224.236C312.764 228.044 315.661 229.949 321.455 229.949Z" fill="black"/>
</svg>
