<svg width="200" height="200" viewBox="0 0 200 200" fill="none" xmlns="http://www.w3.org/2000/svg">
<path d="M43.8619 129.696L34.127 133.537L32.6615 129.929L42.1502 126.218C44.8103 125.205 45.6832 123.923 44.7559 121.75C43.8964 119.613 42.4971 119.116 39.5908 120.258L30.2746 123.976L28.8091 120.368L38.3347 116.589C42.6757 114.909 45.9063 116.402 47.6254 120.675C49.3503 124.775 48.0983 128.047 43.8619 129.696Z" fill="black"/>
<path d="M27.1594 113.058L26.7954 108.556L37.517 101.123L26.293 102.047L26.0292 98.6531L43.0746 97.2066L43.4254 101.087L31.8854 109.216L44.0457 108.188L44.3095 111.581L27.1594 113.058Z" fill="black"/>
<path d="M37.8782 94.6439L38.6245 91.0091C40.1403 91.1307 41.5013 90.729 42.0337 88.2955C42.3331 86.6138 41.6844 85.3826 40.3471 85.0945C39.0097 84.8063 38.4007 85.4414 37.5232 87.8629C36.137 92.028 34.4264 93.5572 31.271 92.8953C28.4238 92.3131 26.7563 89.5616 27.4716 85.8222C28.2238 82.015 30.359 80.1896 33.7666 80.5495L33.094 84.0487C31.5414 83.9948 30.6183 84.7226 30.3189 86.4044C30.0194 88.0862 30.6062 89.108 31.7401 89.2855C32.9418 89.4998 33.6128 89.0741 34.5271 86.5848C35.8706 82.66 37.3526 80.7429 40.853 81.4169C43.8728 82.005 45.7069 84.935 44.9488 88.9146C43.8957 93.4366 41.3167 95.1084 37.8782 94.6439Z" fill="black"/>
<path d="M38.3519 77.7732L38.2162 77.6995C33.5982 75.3637 32.0384 70.4748 34.2932 66.1672C36.1115 62.5006 39.3186 60.6433 43.3071 62.1975L41.5625 65.7286C39.5469 65.0716 38.1122 65.6089 37.1477 67.5439C35.9252 69.9535 37.0502 72.4099 40.207 74.0388L40.3426 74.1126C43.4995 75.7415 46.074 75.2092 47.3702 72.6641C48.3347 70.7291 48.0487 68.9925 46.2293 67.6516L47.9001 64.2561C51.483 66.556 52.049 70.2017 50.157 74.0039C47.4289 79.0204 43.0377 80.1459 38.3519 77.7732Z" fill="black"/>
<path d="M41.7861 54.1673L44.4374 51.3929L49.4534 56.2289L54.2517 51.2843L49.2357 46.4483L51.887 43.6739L64.2265 55.567L61.5752 58.3414L56.4914 53.4685L51.6931 58.4132L56.7769 63.2861L54.1256 66.0605L41.7861 54.1673Z" fill="black"/>
<path d="M61.3792 46.9038L61.2805 46.7623C58.8772 42.2931 60.4287 37.3395 64.8981 34.9389C69.4721 32.5075 74.2981 33.8144 76.7323 38.3883L76.8311 38.5298C79.2343 42.999 77.8922 47.8908 73.1766 50.421C68.5288 52.988 63.7146 51.3361 61.3792 46.9038ZM73.3098 40.4798L73.2111 40.3382C71.6541 37.3834 69.034 36.222 66.3931 37.6844C63.789 39.0791 63.2448 41.8575 64.8326 44.917L64.9314 45.0586C66.5871 48.155 69.3547 49.0452 71.8172 47.7492C74.4213 46.3546 74.9346 43.4715 73.3098 40.4798Z" fill="black"/>
<path d="M80.1133 37.5037L80.0514 37.2943C79.1876 32.2569 82.2681 28.047 87.2696 27.2535C92.3081 26.3921 96.4955 29.1965 97.4272 34.2707L97.4891 34.4801C98.3529 39.5175 95.5127 43.7703 90.3018 44.6256C84.9861 45.5119 81.0139 42.4733 80.1133 37.5037ZM93.5285 35.137L93.4666 34.9277C92.8888 31.6269 90.7788 29.6889 87.8593 30.2093C84.9397 30.7297 83.5447 33.1332 84.1535 36.5387L84.2154 36.748C84.7873 40.2213 87.1804 41.9619 89.8905 41.5033C92.6685 41.0816 94.1373 38.5425 93.5285 35.137Z" fill="black"/>
<path d="M102.468 26.2956L106.288 26.7044L104.842 40.6751L111.762 41.3639L111.452 44.3577L100.644 43.2231L102.468 26.2956Z" fill="black"/>
<path d="M118.656 28.6872L129.172 32.298L128.141 35.1632L121.243 32.8174L119.974 36.6067L125.503 38.5596L124.583 41.2214L119.053 39.2684L117.673 43.261L124.91 45.7912L123.879 48.6563L112.987 44.9289L118.656 28.6872Z" fill="black"/>
<path d="M134.912 35.1562L140.013 38.5448C143.392 40.734 144.61 43.5044 142.711 46.5121L142.674 46.5799C141.254 48.7063 139.239 49.0163 137.255 48.464L136.996 57.0195L133.549 54.7934L133.747 46.9956L132.329 46.0485L128.72 51.5524L125.476 49.437L134.912 35.1562ZM135.679 45.0596C137.301 46.1173 138.582 46.0236 139.461 44.5691L139.498 44.5013C140.481 43.0159 139.894 41.9941 138.34 40.9732L136.515 39.8048L133.785 43.8543L135.679 45.0596Z" fill="black"/>
<path d="M153.503 66.2597L162.879 61.7846L164.554 65.3306L155.319 69.707C152.721 70.9292 152.02 72.2172 152.985 74.3227C153.986 76.3604 155.385 76.8578 158.229 75.506L167.323 71.2283L168.998 74.7743L159.726 79.2185C155.478 81.2124 152.241 79.8914 150.208 75.7114C148.347 71.5373 149.359 68.2226 153.503 66.2597Z" fill="black"/>
<path d="M171.245 81.7939L171.923 86.2032L161.732 94.2762L172.844 92.5894L173.348 96.0258L156.403 98.5808L155.843 94.7627L166.821 85.8882L154.773 87.6806L154.269 84.2442L171.245 81.7939Z" fill="black"/>
<path d="M161.748 100.873L161.242 104.55C159.689 104.496 158.359 105.003 158.03 107.547C157.799 109.266 158.62 110.503 159.963 110.618C161.27 110.802 161.879 110.167 162.584 107.739C163.699 103.427 165.237 101.891 168.54 102.282C171.43 102.624 173.27 105.382 172.831 109.096C172.32 112.946 170.351 114.95 166.938 114.763L167.37 111.221C168.959 111.207 169.784 110.337 169.978 108.686C170.173 107.036 169.482 106.045 168.415 105.904C167.177 105.757 166.574 106.22 165.863 108.82C164.828 112.825 163.413 114.779 159.938 114.382C156.912 113.966 154.795 111.233 155.313 107.211C155.854 102.499 158.371 100.617 161.748 100.873Z" fill="black"/>
<path d="M162.518 117.718L162.653 117.791C167.419 119.856 169.262 124.547 167.346 129.04C165.731 132.817 162.691 134.853 158.623 133.606L160.164 129.965C162.148 130.517 163.62 129.912 164.449 127.903C165.536 125.42 164.201 123.025 161.002 121.636L160.866 121.563C157.599 120.137 155.086 120.879 153.962 123.43C153.17 125.371 153.524 127.144 155.417 128.35L153.95 131.856C150.22 129.827 149.413 126.138 151.065 122.293C153.281 117.087 157.648 115.684 162.518 117.718Z" fill="black"/>
<path d="M160.563 141.513L158.078 144.466L152.705 139.963L148.277 145.196L153.65 149.699L151.165 152.652L138.069 141.665L140.554 138.712L145.995 143.252L150.423 138.019L144.982 133.479L147.467 130.526L160.563 141.513Z" fill="black"/>
<path d="M141.513 150.038L141.612 150.18C144.261 154.519 143.018 159.553 138.746 162.236C134.37 164.951 129.464 163.952 126.747 159.576L126.648 159.434C123.999 155.094 124.965 150.086 129.483 147.273C134.001 144.459 138.895 145.803 141.513 150.038ZM130.003 157.306L130.101 157.447C131.905 160.272 134.531 161.261 137.141 159.694C139.646 158.158 140.055 155.306 138.22 152.376L138.122 152.234C136.288 149.304 133.446 148.55 131.082 149.987C128.577 151.524 128.169 154.376 130.003 157.306Z" fill="black"/>
<path d="M123.428 160.67L123.49 160.879C124.668 165.824 121.927 170.218 116.981 171.393C111.931 172.6 107.596 170.066 106.418 165.122L106.356 164.912C105.178 159.968 107.679 155.53 112.902 154.33C118.094 153.025 122.281 155.83 123.428 160.67ZM110.224 163.941L110.286 164.151C111.073 167.39 113.325 169.229 116.182 168.499C119.108 167.806 120.299 165.292 119.481 161.949L119.419 161.739C118.638 158.328 116.171 156.723 113.455 157.354C110.671 157.948 109.443 160.53 110.224 163.941Z" fill="black"/>
<path d="M101.957 173.324L98.0934 173.155L98.6087 159.118L91.6402 158.842L91.7097 155.805L102.541 156.25L101.957 173.324Z" fill="black"/>
<path d="M85.5911 172.066L74.8111 169.102L75.6016 166.194L82.6526 168.096L83.682 164.264L78.0362 162.687L78.8208 159.951L84.4666 161.529L85.5757 157.388L78.1487 155.37L78.9392 152.462L90.0273 155.505L85.5911 172.066Z" fill="black"/>
<path d="M68.918 166.688L63.5966 163.706C60.1066 161.72 58.6794 159.011 60.4431 155.93L60.4799 155.862C61.7644 153.662 63.7166 153.143 65.806 153.664L65.4423 145.121L69.0001 147.144L69.3565 154.892L70.8487 155.704L74.087 149.911L77.4414 151.823L68.918 166.688ZM67.5605 156.902C65.8648 155.98 64.6144 156.178 63.8402 157.602L63.8034 157.67C62.9555 159.229 63.5422 160.251 65.1701 161.136L67.0692 162.169L69.4965 157.867L67.5605 156.902Z" fill="black"/>
</svg>
