<svg width="802" height="602" xmlns="http://www.w3.org/2000/svg">

 <g>
  <title>background</title>
  <rect fill="none" id="canvas_background" height="604" width="804" y="-1" x="-1"/>
 </g>
 <g>
  <title>Layer 1</title>
  <path id="svg_1" fill="black" d="m424.1372,431.102l-67.24609,0l0,-19.98l22.12889,0l0,-100.1176l-22.12889,0l0,-20.0879l67.24609,0l0,20.0879l-22.8809,0l0,100.1176l22.8809,0l0,19.98zm135.9958,-89.0527l-19.873,0l0,-31.0449l-18.906,0l0,100.1176l22.236,0l0,19.98l-66.601,0l0,-19.98l22.129,0l0,-100.1176l-19.121,0l0,31.0449l-19.766,0l0,-51.1328l99.902,0l0,51.1328z"/>
  <g id="svg_25">
   <path id="svg_5" fill="black" d="m327.80049,341.08578l-9.79991,3.86665l-1.47529,-3.63209l9.55206,-3.73578c2.67786,-1.01976 3.55659,-2.31033 2.6231,-4.49784c-0.86524,-2.15127 -2.27388,-2.65159 -5.19959,-1.50196l-9.37841,3.74283l-1.47529,-3.63209l9.58921,-3.80424c4.36999,-1.69122 7.62216,-0.18825 9.35274,4.11329c1.73642,4.12738 0.47606,7.42123 -3.78863,9.08124z"/>
   <path id="svg_6" fill="black" d="m310.98646,324.33667l-0.36643,-4.53206l10.7932,-7.48264l-11.29895,0.93017l-0.26556,-3.41656l17.15923,-1.45616l0.35314,3.90631l-11.61706,8.18328l12.2415,-1.03486l0.26556,3.41566l-17.26462,1.48686z"/>
   <path id="svg_7" fill="black" d="m321.77683,305.79961l0.75128,-3.65907c1.52592,0.12241 2.89601,-0.28197 3.43197,-2.73172c0.3014,-1.69293 -0.35163,-2.93235 -1.69786,-3.22238c-1.34633,-0.29012 -1.9594,0.34922 -2.84276,2.78689c-1.39546,4.19291 -3.11748,5.73233 -6.29395,5.06601c-2.86621,-0.58609 -4.54485,-3.35596 -3.82477,-7.12033c0.75722,-3.83262 2.90668,-5.67021 6.33704,-5.30791l-0.67709,3.52257c-1.56297,-0.05426 -2.49223,0.6784 -2.79363,2.37143c-0.3015,1.69303 0.28922,2.72165 1.43069,2.90034c1.20972,0.21573 1.88521,-0.21281 2.80561,-2.71873c1.35247,-3.95101 2.84437,-5.88091 6.36814,-5.20241c3.03997,0.59203 4.88631,3.54159 4.12315,7.54777c-1.06013,4.5522 -3.65635,6.23516 -7.11782,5.76756z"/>
   <path id="svg_8" fill="black" d="m322.2537,288.81625l-0.13661,-0.07419c-4.64884,-2.3514 -6.21905,-7.27294 -3.9492,-11.60931c1.83044,-3.69108 5.05896,-5.56079 9.07409,-3.99621l-1.75625,3.55468c-2.02906,-0.66139 -3.47334,-0.1205 -4.44428,1.82742c-1.23066,2.42569 -0.09815,4.89849 3.07973,6.53827l0.13651,0.07429c3.17798,1.63978 5.76967,1.10392 7.07453,-1.45817c0.97094,-1.94792 0.68303,-3.69612 -1.14852,-5.04597l1.68196,-3.41817c3.60683,2.31526 4.17661,5.9853 2.27197,9.81289c-2.74632,5.05 -7.16684,6.18301 -11.88393,3.79447z"/>
   <path id="svg_9" fill="black" d="m325.71083,265.05271l2.669,-2.79293l5.0495,4.86829l4.83034,-4.97762l-5.0495,-4.86829l2.669,-2.79293l12.4219,11.97252l-2.669,2.79293l-5.11775,-4.90544l-4.83034,4.97772l5.11775,4.90544l-2.669,2.79293l-12.4219,-11.97262z"/>
   <path id="svg_10" fill="black" d="m345.43477,257.74071l-0.09936,-0.14244c-2.41935,-4.49904 -0.85749,-9.48572 3.64176,-11.90235c4.60454,-2.44764 9.46277,-1.13201 11.91323,3.47243l0.09946,0.14244c2.41925,4.49904 1.06819,9.42351 -3.6789,11.97061c-4.67884,2.58414 -9.52519,0.92121 -11.87618,-3.54069zm12.01027,-6.4669l-0.09936,-0.14255c-1.5674,-2.97453 -4.20499,-4.14369 -6.86353,-2.67152c-2.62149,1.40401 -3.16932,4.20097 -1.57092,7.2809l0.09946,0.14255c1.66676,3.11708 4.45284,4.01322 6.93178,2.70857c2.62149,-1.40391 3.13822,-4.30627 1.50257,-7.31794z"/>
   <path id="svg_11" fill="black" d="m364.29397,248.27784l-0.06231,-0.2108c-0.86957,-5.07104 2.2315,-9.30905 7.2664,-10.10785c5.07215,-0.86715 9.28751,1.95597 10.22543,7.06406l0.06231,0.2108c0.86957,5.07104 -1.9896,9.35224 -7.2353,10.21325c-5.3512,0.89222 -9.34992,-2.16667 -10.25654,-7.16946zm13.50478,-2.3825l-0.06231,-0.2107c-0.58166,-3.32284 -2.70575,-5.27378 -5.64474,-4.74991c-2.9391,0.52388 -4.34341,2.94343 -3.73055,6.37167l0.06231,0.2107c0.57572,3.49649 2.9848,5.24872 5.713,4.78705c2.79655,-0.42452 4.27516,-2.98057 3.66229,-6.40881z"/>
   <path id="svg_12" fill="black" d="m386.79795,236.99489l3.84551,0.41153l-1.45566,14.06399l6.96621,0.6934l-0.31207,3.01379l-10.88017,-1.14218l1.83618,-17.04054z"/>
   <path id="svg_13" fill="black" d="m403.09405,239.40246l10.58622,3.63491l-1.03788,2.88433l-6.94406,-2.36146l-1.27747,3.8146l5.56592,1.96594l-0.92614,2.67957l-5.56693,-1.96604l-1.38922,4.01926l7.28533,2.5471l-1.03788,2.88423l-10.96473,-3.75229l5.70686,-16.35016z"/>
   <path id="svg_14" fill="black" d="m419.4586,245.91466l5.13506,3.41123c3.40156,2.20382 4.6277,4.99272 2.71602,8.0205l-0.03725,0.06825c-1.42948,2.1406 -3.45794,2.45267 -5.45519,1.89668l-0.26073,8.61263l-3.47002,-2.24097l0.19932,-7.84987l-1.42747,-0.95342l-3.6331,5.54065l-3.26566,-2.12953l9.49901,-14.37616zm0.77212,9.96953c1.63283,1.06476 2.92239,0.97044 3.80726,-0.49378l0.03725,-0.06825c0.98956,-1.49532 0.39864,-2.52394 -1.16573,-3.55166l-1.83719,-1.1762l-2.74823,4.07654l1.90665,1.21335z"/>
   <path id="svg_15" fill="black" d="m438.17375,277.22586l9.43861,-4.50498l1.68619,3.56968l-9.29667,4.40562c-2.61535,1.23036 -3.32103,2.52696 -2.34959,4.64652c1.00768,2.05131 2.41603,2.55203 5.27902,1.1912l9.15473,-4.30627l1.68619,3.56968l-9.33392,4.47388c-4.27637,2.00721 -7.53498,0.67739 -9.58156,-3.53052c-1.87343,-4.20197 -0.85467,-7.53881 3.317,-9.51482z"/>
   <path id="svg_16" fill="black" d="m456.03423,292.8638l0.68253,4.43874l-10.25905,8.12691l11.1862,-1.69806l0.50737,3.45935l-17.05815,2.57206l-0.56374,-3.8436l11.05131,-8.93376l-12.12845,1.80437l-0.50737,-3.45935l17.08936,-2.46666z"/>
   <path id="svg_17" fill="black" d="m446.47381,312.0703l-0.50938,3.70155c-1.56337,-0.05436 -2.90225,0.45603 -3.23345,3.01701c-0.23254,1.73048 0.59394,2.97574 1.94591,3.09151c1.31573,0.18523 1.92879,-0.45401 2.6385,-2.89823c1.12245,-4.34079 2.67072,-5.88705 5.99577,-5.49344c2.9093,0.34428 4.76159,3.1207 4.31965,6.8595c-0.51441,3.87571 -2.49656,5.89309 -5.93235,5.70484l0.43488,-3.56565c1.59961,-0.01409 2.43012,-0.8899 2.62542,-2.55193c0.1963,-1.66102 -0.49931,-2.65864 -1.57344,-2.80058c-1.24627,-0.14798 -1.85329,0.31811 -2.56904,2.93547c-1.04191,4.03174 -2.46636,5.99879 -5.96457,5.59914c-3.04621,-0.41878 -5.17734,-3.17003 -4.65588,-7.21889c0.54461,-4.74347 3.07842,-6.63803 6.47797,-6.38032z"/>
   <path id="svg_18" fill="black" d="m447.24895,329.02779l0.1359,0.07349c4.79783,2.07879 6.65313,6.80112 4.72434,11.32412c-1.62578,3.80222 -4.68609,5.85182 -8.78125,4.59649l1.55129,-3.66531c1.99725,0.55569 3.47908,-0.05335 4.31361,-2.07577c1.09426,-2.49958 -0.24966,-4.91057 -3.47002,-6.30885l-0.13691,-0.07349c-3.28882,-1.43552 -5.8186,-0.68857 -6.9501,1.87947c-0.79729,1.95396 -0.44092,3.7388 1.46472,4.95285l-1.4768,3.52941c-3.75491,-2.04255 -4.5673,-5.75618 -2.90427,-9.62686c2.2308,-5.24076 6.62696,-6.65313 11.52948,-4.60555z"/>
   <path id="svg_19" fill="black" d="m445.28089,352.98169l-2.50159,2.97272l-5.40888,-4.53307l-4.45757,5.26794l5.40888,4.53307l-2.50159,2.97272l-13.18345,-11.06037l2.50159,-2.97272l5.47733,4.57032l4.45757,-5.26794l-5.47733,-4.57032l2.50159,-2.97272l13.18345,11.06037z"/>
   <path id="svg_20" fill="black" d="m426.10368,361.56362l0.09966,0.14295c2.66669,4.36797 1.41539,9.43559 -2.88514,12.13651c-4.40522,2.73313 -9.34398,1.72746 -12.07913,-2.67776l-0.09966,-0.14295c-2.66669,-4.36898 -1.69424,-9.41042 2.85393,-12.24221c4.54817,-2.83279 9.47485,-1.47982 12.11033,2.78346zm-11.58686,7.31653l0.09865,0.14194c1.81605,2.84386 4.45958,3.83947 7.08701,2.262c2.52173,-1.54626 2.93346,-4.4173 1.08621,-7.36687l-0.09865,-0.14295c-1.84625,-2.94957 -4.70723,-3.7086 -7.08701,-2.262c-2.52173,1.54726 -2.93245,4.41831 -1.08621,7.36787z"/>
   <path id="svg_21" fill="black" d="m407.89791,372.26661l0.06241,0.2104c1.18587,4.97802 -1.57344,9.40136 -6.55247,10.58421c-5.08372,1.21506 -9.44767,-1.33586 -10.63354,-6.31288l-0.06241,-0.2114c-1.18587,-4.97701 1.33183,-9.44465 6.58971,-10.65266c5.22667,-1.31371 9.44163,1.51002 10.59629,6.38234zm-13.29217,3.29284l0.06241,0.2114c0.79226,3.26063 3.05929,5.11191 5.93537,4.37703c2.94554,-0.69763 4.14449,-3.22842 3.32103,-6.59374l-0.06241,-0.2114c-0.78622,-3.43378 -3.26969,-5.0495 -6.00383,-4.41428c-2.80259,0.59797 -4.03879,3.19721 -3.25258,6.63099z"/>
   <path id="svg_22" fill="black" d="m386.28354,385.00511l-3.8894,-0.17013l0.51874,-14.13074l-7.01503,-0.27784l0.06996,-3.05728l10.90363,0.44797l-0.5879,17.18802z"/>
   <path id="svg_23" fill="black" d="m369.80835,383.73871l-10.85199,-2.98379l0.79578,-2.92742l7.09808,1.9147l1.03627,-3.85759l-5.6835,-1.58753l0.78984,-2.75427l5.6835,1.58854l1.11651,-4.16865l-7.4766,-2.03148l0.79578,-2.92742l11.16214,3.06332l-4.46582,16.67159z"/>
   <path id="svg_24" fill="black" d="m353.02391,378.3248l-5.35694,-3.00191c-3.51331,-1.99926 -4.95004,-4.72635 -3.17456,-7.82793l0.03705,-0.06845c1.29308,-2.21469 3.25831,-2.73716 5.36167,-2.21268l-0.36613,-8.60005l3.58156,2.03651l0.35878,7.79974l1.50216,0.81742l3.25992,-5.83168l3.3768,1.92477l-8.58032,14.96427zm-1.36657,-9.85135c-1.70702,-0.92816 -2.96577,-0.72883 -3.74514,0.70467l-0.03705,0.06845c-0.85356,1.56941 -0.26294,2.59824 1.37583,3.48915l1.91178,1.0399l2.44351,-4.33073l-1.94893,-0.97144z"/>
  </g>
 </g>
</svg>